<svg xmlns="http://www.w3.org/2000/svg" viewBox="0 0 47.98 53.83"><defs><style>.cls-1{fill:none;}.cls-2{fill:#e63a51;}.cls-3,.cls-4{fill:#0492bf;}.cls-10,.cls-11,.cls-3,.cls-7{opacity:0.5;}.cls-5{fill:#fdd296;}.cls-11,.cls-6{fill:#e7215a;}.cls-10,.cls-8{fill:#989697;}.cls-9{fill:#f9b550;}</style></defs><title>Fichier 1</title><g id="Calque_2" data-name="Calque 2"><g id="FIXE"><path class="cls-1" d="M24,14.49a58.15,58.15,0,0,1,6-2.38c-1.56-5.52-3.86-9-6-9s-4.47,3.45-6,9a60,60,0,0,1,6,2.37Z"/><path class="cls-1" d="M18.47,17.36q.93-.54,1.83-1c-1.05-.43-2.08-.81-3.07-1.14-.21,1-.4,2.12-.55,3.24C17.31,18.05,17.91,17.68,18.47,17.36Z"/><path class="cls-1" d="M8.21,29.15c-3.6,3.55-6.08,7.22-4.72,9.59,1.09,1.85,5.18,2.16,10.7.77a57.56,57.56,0,0,1-.94-6.38A56.71,56.71,0,0,1,8.21,29.15Z"/><path class="cls-1" d="M18.47,36.47c-.61-.35-1.2-.71-1.79-1.07.15,1.12.34,2.2.55,3.22,1-.33,2-.71,3.08-1.13C19.65,37.14,19,36.8,18.47,36.47Z"/><path class="cls-1" d="M24,39.28a63.22,63.22,0,0,1-6,2.36c1.56,5.56,3.88,9,6,9A3.88,3.88,0,0,0,26.72,49a4.86,4.86,0,0,1-1.15-3.13A4.74,4.74,0,0,1,29,41.29c-1.73-.61-3.42-1.3-5-2Z"/><path class="cls-1" d="M27.67,37.48c1.06.43,2.1.82,3.1,1.15.21-1.05.39-2.14.55-3.25-.64.4-1.24.76-1.81,1.09S28.33,37.14,27.67,37.48Z"/><path class="cls-1" d="M39.73,24.73c3.63-3.57,6.13-7.27,4.76-9.64a3.8,3.8,0,0,0-2.81-1.5A4.73,4.73,0,0,1,34,15.47c.31,1.71.56,3.48.72,5.29A61.48,61.48,0,0,1,39.73,24.73Z"/><path class="cls-1" d="M24,18c-1.32.63-2.65,1.32-3.94,2.08-1.09.63-2.39,1.47-3.79,2.45-.1,1.42-.15,2.88-.15,4.39s.05,3,.15,4.47c1.22.82,2.49,1.62,3.79,2.38S22.7,35.21,24,35.84h0c1.3-.63,2.62-1.33,3.94-2.08,1.09-.63,2.4-1.47,3.8-2.46.1-1.44.15-2.91.15-4.39s-.06-3-.15-4.39c-1.43-1-2.75-1.84-3.8-2.45C26.61,19.31,25.29,18.62,24,18Zm0,13.65a4.73,4.73,0,1,1,4.73-4.73A4.72,4.72,0,0,1,24,31.64Z"/><path class="cls-1" d="M13,25c-.82.65-1.64,1.33-2.44,2,.77.68,1.59,1.35,2.45,2,0-.7,0-1.4,0-2.1S13,25.61,13,25Z"/><path class="cls-1" d="M29.51,17.36c.56.32,1.17.68,1.8,1.08-.16-1.13-.35-2.21-.56-3.25-1,.34-2,.72-3.07,1.15C28.29,16.67,28.91,17,29.51,17.36Z"/><path class="cls-1" d="M35,26.91q0,1,0,1.95c.8-.63,1.6-1.28,2.37-2C36.6,26.23,35.8,25.58,35,25,35,25.61,35,26.26,35,26.91Z"/><path class="cls-1" d="M33.8,39.51c5.52,1.39,9.6,1.08,10.69-.77,1.4-2.44-1.12-6.13-4.74-9.67-1.62,1.44-3.34,2.78-5,4A56.9,56.9,0,0,1,33.8,39.51Z"/><path class="cls-1" d="M14.19,14.31c-5.53-1.38-9.63-1.08-10.7.78a3.92,3.92,0,0,0,.15,3.23,4.73,4.73,0,0,1,5.77,5.42c1.27-1.06,2.56-2.06,3.83-3A61.54,61.54,0,0,1,14.19,14.31Z"/><polygon class="cls-2" points="23.99 35.84 23.99 35.84 23.99 35.84 23.99 35.84"/><path class="cls-3" d="M13.25,33.13a57.56,57.56,0,0,0,.94,6.38c1-.24,2-.54,3-.89-.21-1-.4-2.1-.55-3.22C15.49,34.66,14.34,33.91,13.25,33.13Z"/><path class="cls-3" d="M18,41.64c-1,.33-2,.64-3,.9,1.82,6.54,4.88,11.29,9.06,11.29V50.67C21.83,50.67,19.51,47.2,18,41.64Z"/><path class="cls-4" d="M31.32,35.38c-.16,1.11-.34,2.2-.55,3.25,1.05.35,2.06.64,3,.88a56.9,56.9,0,0,0,1-6.46C33.56,33.91,32.4,34.69,31.32,35.38Z"/><path class="cls-4" d="M33.89,42.76l-.84-.21c-1-.26-2-.57-3-.9L29,41.29a4.74,4.74,0,0,0-3.42,4.55A4.86,4.86,0,0,0,26.72,49,3.88,3.88,0,0,1,24,50.67v3.16c1.41,0,3.46-.59,5.45-3.24a4.91,4.91,0,0,0,.86.08A4.83,4.83,0,0,0,35,45.84,4.71,4.71,0,0,0,33.89,42.76Z"/><path class="cls-5" d="M24,14.49h0l0,0Z"/><path class="cls-6" d="M24,14.5a60,60,0,0,0-6-2.37c-.27,1-.52,2-.74,3.07,1,.33,2,.71,3.07,1.14Q22.12,17.06,24,18V14.52Z"/><g class="cls-7"><path class="cls-8" d="M24,18q-1.87-.93-3.69-1.65-.9.48-1.83,1c-.56.32-1.16.69-1.79,1.08-.18,1.31-.33,2.67-.42,4.08,1.4-1,2.7-1.82,3.79-2.45C21.34,19.31,22.67,18.62,24,18Z"/><path class="cls-8" d="M17.23,38.62c-1.05.35-2.07.65-3,.89-5.52,1.39-9.61,1.08-10.7-.77-1.36-2.37,1.12-6,4.72-9.59-.66-.59-1.29-1.18-1.89-1.78a4.79,4.79,0,0,1-1.06.24c-4,4.29-6.64,9-4.48,12.71C3,44.21,8.83,44.13,14.93,42.54c1-.26,2-.57,3-.9a63.22,63.22,0,0,0,6-2.36h0V35.84c-1.25.61-2.48,1.16-3.68,1.65C19.26,37.91,18.23,38.29,17.23,38.62Z"/><path class="cls-8" d="M13,25c0-1.4.13-2.81.26-4.19-1.27.91-2.56,1.91-3.83,3a4.69,4.69,0,0,1-.56,1.54.41.41,0,0,0,0,.09q.82.81,1.74,1.62C11.34,26.29,12.16,25.61,13,25Z"/></g><path class="cls-3" d="M14.94,11.24c-.28,1-.53,2-.75,3.07a61.54,61.54,0,0,0-.95,6.46C13.11,22.15,13,23.56,13,25q0,1,0,1.95c0,.7,0,1.4,0,2.1q1.56,1.21,3.27,2.37-.15-2.16-.15-4.47c0-1.51.05-3,.15-4.39s.24-2.77.42-4.08c.15-1.12.34-2.21.55-3.24s.47-2.1.74-3.07c1.55-5.53,3.86-9,6-9V0C19.82,0,16.76,4.73,14.94,11.24Z"/><path class="cls-9" d="M30,12.11h0a58.15,58.15,0,0,0-6,2.38A58.15,58.15,0,0,1,30,12.11Z"/><path class="cls-6" d="M31.73,22.52q-.15-2.11-.42-4.08c-.63-.4-1.24-.76-1.8-1.08s-1.22-.69-1.83-1c-1.22-.65-2.45-1.26-3.69-1.82V18c1.3.63,2.62,1.32,3.94,2.08C29,20.68,30.3,21.52,31.73,22.52Z"/><path class="cls-6" d="M42.05,26.91c-.74.74-1.51,1.46-2.3,2.16,3.62,3.54,6.14,7.23,4.74,9.67-1.09,1.85-5.17,2.16-10.69.77-1-.24-2-.53-3-.88s-2-.72-3.1-1.15c-1.12.59-2.37,1.2-3.68,1.8,1.58.71,3.27,1.4,5,2l1.05.36c1,.33,2,.64,3,.9l.84.21c5.77,1.38,11.16,1.29,13.31-2.44C49.48,36.37,46.48,31.38,42.05,26.91Z"/><path class="cls-6" d="M37.37,26.9c.82-.71,1.61-1.44,2.36-2.17a61.48,61.48,0,0,0-5-4c.13,1.39.22,2.79.26,4.19C35.8,25.58,36.6,26.23,37.37,26.9Z"/><polygon class="cls-9" points="23.99 39.28 23.99 39.27 23.99 39.27 23.99 39.28"/><path class="cls-1" d="M35,25c0,.66,0,1.31,0,2s0,1.31,0,1.95c.8-.63,1.6-1.28,2.37-2s1.61-1.44,2.36-2.17c3.63-3.57,6.13-7.27,4.76-9.64a3.8,3.8,0,0,0-2.81-1.5A4.73,4.73,0,0,1,34,15.47c.31,1.71.56,3.48.72,5.29C34.87,22.15,35,23.55,35,25Z"/><path class="cls-8" d="M24,14.49v0c1.24.56,2.47,1.17,3.69,1.82,1-.43,2.07-.81,3.07-1.15-.22-1.08-.47-2.11-.74-3.08A58.15,58.15,0,0,0,24,14.49Z"/><path class="cls-8" d="M47.2,13.51c-.7-1.21-2.24-2.68-5.52-3.11a4.12,4.12,0,0,0-.36-.77,4.72,4.72,0,0,0-8.53.73c.09.28.17.57.25.87h0c.28,1,.53,2,.75,3.08.08.38.16.77.23,1.16a4.73,4.73,0,0,0,7.66-1.88,3.8,3.8,0,0,1,2.81,1.5c1.37,2.37-1.13,6.07-4.76,9.64-.75.73-1.54,1.46-2.36,2.17s-1.57,1.33-2.37,2c-1.11.88-2.21,1.7-3.27,2.44-1.4,1-2.71,1.83-3.8,2.46-1.32.75-2.64,1.45-3.94,2.08h0v3.44h0c1.31-.6,2.56-1.21,3.68-1.8.66-.34,1.28-.68,1.84-1s1.17-.69,1.81-1.09c1.08-.69,2.24-1.47,3.44-2.33,1.65-1.2,3.37-2.54,5-4,.79-.7,1.56-1.42,2.3-2.16C46.49,22.43,49.48,17.44,47.2,13.51Z"/><path class="cls-10" d="M19.26,26.91A4.72,4.72,0,0,0,24,31.64V22.18A4.72,4.72,0,0,0,19.26,26.91Z"/><path class="cls-8" d="M24,22.18v9.46a4.73,4.73,0,0,0,0-9.46Z"/><path class="cls-11" d="M20.05,33.76c-1.3-.76-2.57-1.56-3.79-2.38S14,29.82,13,29c-.86-.67-1.68-1.34-2.45-2q-.91-.81-1.74-1.62a.41.41,0,0,1,0-.09,4.73,4.73,0,0,0-5.21-7,3.92,3.92,0,0,1-.15-3.23c1.07-1.86,5.17-2.16,10.7-.78.22-1.05.47-2.08.75-3.07C8.43,9.59,2.87,9.89.78,13.51.06,14.75-.45,16.9,1,20.1a5,5,0,0,0-.29.45A4.73,4.73,0,0,0,2.39,27h0a4.67,4.67,0,0,0,2.87.6,4.79,4.79,0,0,0,1.06-.24c.6.6,1.23,1.19,1.89,1.78a56.71,56.71,0,0,0,5,4c1.09.78,2.24,1.53,3.43,2.27.59.36,1.18.72,1.79,1.07s1.18.67,1.84,1c1.2-.49,2.43-1,3.68-1.65h0C22.7,35.21,21.37,34.51,20.05,33.76Z"/><path class="cls-4" d="M35,25c0-1.4-.13-2.8-.26-4.19-.16-1.81-.41-3.58-.72-5.29-.07-.39-.15-.78-.23-1.16-.22-1.06-.47-2.09-.75-3.08h0c-.08-.3-.16-.59-.25-.87C30.94,4.3,28,0,24,0V3.15c2.16,0,4.46,3.44,6,9h0c.27,1,.52,2,.74,3.08s.4,2.12.56,3.25q.27,2,.42,4.08c.09,1.42.15,2.89.15,4.39s-.05,2.95-.15,4.39c1.06-.74,2.16-1.56,3.27-2.44q0-1,0-1.95C35,26.26,35,25.61,35,25Z"/></g></g></svg>