<?xml version="1.0" encoding="utf-8"?>
<!-- Generator: Adobe Illustrator 22.0.1, SVG Export Plug-In . SVG Version: 6.00 Build 0)  -->
<svg version="1.1" id="Calque_1" xmlns="http://www.w3.org/2000/svg" xmlns:xlink="http://www.w3.org/1999/xlink" x="0px" y="0px"
	 viewBox="0 0 40.5 40.5" style="enable-background:new 0 0 40.5 40.5;" xml:space="preserve">
<style type="text/css">
	.st0{opacity:0.7;fill:#FFFFFF;stroke:#4E3B7B;stroke-miterlimit:10;enable-background:new    ;}
	.st1{fill:#FFFFFF;stroke:#4E3B7B;stroke-miterlimit:10;}
	.st2{opacity:0.7;}
</style>
<g id="Calque_2_1_">
	<g id="V2_Entête">
		<circle class="st0" cx="20.9" cy="20.1" r="3.8"/>
		<circle class="st1" cx="21.2" cy="19.6" r="3.1"/>
		<g class="st2">
			<path class="st1" d="M20.9,35.3c-8.4,0-15.2-6.8-15.2-15.2S12.5,4.9,20.9,4.9s15.2,6.8,15.2,15.2C36.1,28.5,29.3,35.3,20.9,35.3z
				 M20.9,5.3C12.7,5.3,6,11.9,6,20.1C6,28.3,12.7,35,20.9,35s14.9-6.6,14.9-14.8c0,0,0,0,0-0.1C35.7,11.9,29.1,5.2,20.9,5.3
				L20.9,5.3z"/>
		</g>
		<g class="st2">
			<path class="st1" d="M20.9,39.6c-10.8,0-19.6-8.8-19.6-19.6S10.1,0.5,20.9,0.5s19.6,8.8,19.6,19.6C40.5,30.9,31.7,39.6,20.9,39.6
				z M20.9,0.9C10.3,0.9,1.7,9.5,1.7,20.1c0,10.6,8.6,19.2,19.2,19.2s19.2-8.6,19.2-19.2c0,0,0,0,0,0C40.1,9.5,31.5,0.9,20.9,0.9z"
				/>
		</g>
		<g class="st2">
			<path class="st1" d="M20.9,30.6c-5.8,0-10.5-4.7-10.5-10.5S15.1,9.5,20.9,9.5s10.5,4.7,10.5,10.5l0,0
				C31.4,25.9,26.7,30.6,20.9,30.6z M20.9,9.9c-5.6,0-10.2,4.5-10.2,10.2s4.5,10.2,10.2,10.2s10.2-4.5,10.2-10.2
				C31.1,14.5,26.5,9.9,20.9,9.9z"/>
		</g>
		<circle class="st1" cx="29.9" cy="25" r="1.5"/>
		<circle class="st1" cx="26.7" cy="11.5" r="1.5"/>
		<circle class="st1" cx="10.6" cy="20.9" r="1.5"/>
		<circle class="st1" cx="20.1" cy="35.1" r="1.5"/>
		<circle class="st1" cx="35.9" cy="19.6" r="1.5"/>
		<circle class="st1" cx="36.2" cy="31.9" r="1.5"/>
		<circle class="st1" cx="39" cy="12.9" r="1.5"/>
		<circle class="st1" cx="26.7" cy="1.5" r="1.5"/>
		<circle class="st1" cx="9" cy="4.5" r="1.5"/>
		<circle class="st1" cx="1.5" cy="21.6" r="1.5"/>
		<circle class="st1" cx="8.1" cy="34.6" r="1.5"/>
		<circle class="st1" cx="24.7" cy="39" r="1.5"/>
		<circle class="st1" cx="22.4" cy="5.1" r="1.5"/>
		<circle class="st1" cx="8.4" cy="11.5" r="1.5"/>
		<circle class="st1" cx="7.4" cy="26.5" r="1.5"/>
	</g>
</g>
</svg>
