<svg xmlns="http://www.w3.org/2000/svg" viewBox="0 0 40.47 40.48"><defs><style>.cls-1,.cls-2{fill:#fff;}.cls-1,.cls-3{opacity:0.7;}</style></defs><g id="Calque_2" data-name="Calque 2"><g id="V2_Entête" data-name="V2 Entête"><circle class="cls-1" cx="20.9" cy="20.07" r="3.76" transform="translate(-2.26 37.49) rotate(-80.78)"/><circle class="cls-2" cx="21.17" cy="19.61" r="3.11"/><g class="cls-3"><path class="cls-2" d="M20.9,35.28A15.21,15.21,0,1,1,36.11,20.07,15.22,15.22,0,0,1,20.9,35.28Zm0-30A14.85,14.85,0,1,0,35.74,20.07,14.85,14.85,0,0,0,20.9,5.23Z"/></g><g class="cls-3"><path class="cls-2" d="M20.9,39.64A19.57,19.57,0,1,1,40.47,20.07,19.59,19.59,0,0,1,20.9,39.64ZM20.9.87a19.21,19.21,0,1,0,19.2,19.2A19.23,19.23,0,0,0,20.9.87Z"/></g><g class="cls-3"><path class="cls-2" d="M20.9,30.59A10.52,10.52,0,1,1,31.42,20.07,10.53,10.53,0,0,1,20.9,30.59Zm0-20.68A10.16,10.16,0,1,0,31.06,20.07,10.17,10.17,0,0,0,20.9,9.91Z"/></g><circle class="cls-2" cx="29.93" cy="25.04" r="1.51"/><circle class="cls-2" cx="26.73" cy="11.55" r="1.51" transform="translate(9.34 34.91) rotate(-76.72)"/><circle class="cls-2" cx="10.56" cy="20.94" r="1.51" transform="translate(-11.8 28.01) rotate(-80.78)"/><circle class="cls-2" cx="20.15" cy="35.1" r="1.51"/><circle class="cls-2" cx="35.93" cy="19.61" r="1.51" transform="translate(8.58 50.07) rotate(-76.72)"/><circle class="cls-2" cx="36.23" cy="31.92" r="1.51"/><circle class="cls-2" cx="38.95" cy="12.85" r="1.51"/><circle class="cls-2" cx="26.73" cy="1.51" r="1.51"/><circle class="cls-2" cx="9.05" cy="4.54" r="1.51" transform="translate(2.55 12.3) rotate(-76.72)"/><circle class="cls-2" cx="1.51" cy="21.58" r="1.51"/><circle class="cls-2" cx="8.08" cy="34.61" r="1.51"/><circle class="cls-2" cx="24.66" cy="38.97" r="1.51"/><circle class="cls-2" cx="22.41" cy="5.05" r="1.51"/><circle class="cls-2" cx="8.41" cy="11.55" r="1.51" transform="translate(-4.76 17.08) rotate(-76.72)"/><circle class="cls-2" cx="7.39" cy="26.55" r="1.51"/></g></g></svg>