<?xml version="1.0" encoding="utf-8"?>
<!-- Generator: Adobe Illustrator 24.0.2, SVG Export Plug-In . SVG Version: 6.00 Build 0)  -->
<svg version="1.1" id="Calque_1" xmlns="http://www.w3.org/2000/svg" xmlns:xlink="http://www.w3.org/1999/xlink" x="0px" y="0px"
	 viewBox="0 0 1545 536" style="enable-background:new 0 0 1545 536;" xml:space="preserve">
<style type="text/css">
	.st0{fill:#E52F60;}
	.st1{fill:#2B9BC0;}
	.st2{fill:#CCCCCC;}
	.st3{fill:#8E8E8E;}
	.st4{enable-background:new    ;}
	.st5{fill:#8D8E90;}
	.st6{fill:#CBCCCD;}
</style>
<title>LogoUnisciel</title>
<path class="st0" d="M537.2,253.4c0,57.7-27.1,86.5-81.2,86.5c-53.9,0-80.8-28.9-80.8-86.5v-86.9h34v87c0,17.7,2.9,30.4,8.8,38.3
	c7.2,9.6,19.9,14.4,38,14.4c18.1,0,30.8-4.8,38-14.4c5.9-7.8,8.8-20.6,8.8-38.3v-87h34.3V253.4z"/>
<path class="st0" d="M728.9,340h-34v-86.7c0-17.7-2.9-30.4-8.8-38.3c-7.2-9.8-19.9-14.7-38-14.7c-18.1,0-30.9,4.9-38.3,14.7
	c-5.9,7.9-8.8,20.6-8.8,38.3V340h-34v-86.5c0-57.9,27-86.9,81.1-86.9c53.9,0,80.8,29,80.8,86.9L728.9,340z"/>
<rect x="758.6" y="146.3" class="st0" width="34" height="14.2"/>
<rect x="758.7" y="166.5" class="st0" width="34" height="173.4"/>
<rect x="1202.7" y="146.7" class="st1" width="34" height="14.2"/>
<rect x="1202.6" y="166.5" class="st2" width="34" height="173.4"/>
<path class="st2" d="M1426.4,340h-80.8c-54.1,0-81.1-28.8-81.1-86.5c0-57.9,27-86.9,81.1-86.9c53.9,0,80.8,28.9,80.8,86.8v17h-127
	c3.5,24,18.9,36,46.1,36h80.8L1426.4,340z M1391.4,236.6c-3.5-24.2-18.8-36.3-45.8-36.3c-27.3,0-42.7,12.1-46.1,36.3H1391.4z"/>
<path class="st2" d="M981.5,217.9H942c0-5.2-1.8-9-5.3-11.5c-6.1-4.4-18.2-6.5-36.4-6.5s-30.3,2.2-36.4,6.6
	c-3.5,2.4-5.3,6.3-5.3,11.6c0,6.6,2.5,11,7.4,13.2s16.9,3.9,35.8,5c23,1.3,40,4.3,51.2,8.8c19,8.3,28.4,22.6,28.4,43.1
	c0,34.6-27,51.9-81.1,51.9c-54.1,0-81.1-17.3-81.1-52h39.4c0,5.3,1.8,9.2,5.3,11.7c6.1,4.4,18.2,6.7,36.4,6.7s30.3-2.2,36.4-6.6
	c3.5-2.4,5.3-6.3,5.3-11.5c0-6.4-2.3-10.7-6.8-12.9c-5.3-2.4-17.3-4.2-36-5.3c-23.2-1.3-40.3-4.3-51.2-8.8
	c-19.2-8-28.8-22.4-28.8-43.1c0-34.6,27-51.9,81.1-51.9C954.4,166.3,981.5,183.5,981.5,217.9"/>
<path class="st2" d="M1173.2,286.9c-9.7,35.3-36,53-79,53c-55.4,0-83.1-29-83.1-86.9c0-57.7,27.7-86.5,83.1-86.5
	c43.1,0,69.4,17.6,79,52.7h-37c-6.7-12.7-20.7-19-42-19c-18.6,0-31.6,4.8-39,14.4c-6,7.9-9.1,20.7-9.1,38.4c0,17.7,3,30.5,9.1,38.4
	c7.4,9.9,20.4,14.8,39,14.8c21.1,0,35.1-6.4,42-19.3L1173.2,286.9z"/>
<rect x="1194.1" y="142.2" class="st0" width="34" height="14.2"/>
<rect x="1194" y="162" class="st3" width="34" height="173.4"/>
<path class="st3" d="M1417.8,335.5H1337c-54.1,0-81.1-28.8-81.1-86.5c0-57.9,27-86.9,81.1-86.9c53.9,0,80.8,28.9,80.8,86.8v17
	h-126.9c3.5,24,18.9,36,46.1,36h80.8V335.5z M1382.8,232.1c-3.5-24.2-18.8-36.3-45.8-36.3c-27.3,0-42.6,12.1-46.1,36.3H1382.8z"/>
<path class="st3" d="M1545,535.9c-58,0-87-20.9-87-62.8V5.4h34v468c0,9,3.1,15.6,9.2,20c8.1,5.9,22.7,8.8,43.8,8.8L1545,535.9z"/>
<path class="st3" d="M972.9,213.4h-39.4c0-5.2-1.8-9-5.3-11.5c-6.1-4.4-18.2-6.5-36.4-6.5s-30.3,2.2-36.4,6.6
	c-3.5,2.4-5.3,6.3-5.3,11.6c0,6.6,2.5,11,7.4,13.2c4.9,2.2,16.9,3.9,35.8,5c23,1.3,40,4.3,51.2,8.8c18.9,8.3,28.4,22.6,28.4,43.1
	c0,34.6-27,51.9-81.1,51.9s-81.1-17.3-81.1-52h39.4c0,5.3,1.8,9.2,5.3,11.7c6.1,4.4,18.2,6.7,36.4,6.7c18.2,0,30.3-2.2,36.4-6.6
	c3.5-2.4,5.3-6.3,5.3-11.5c0-6.4-2.3-10.7-6.8-12.9c-5.3-2.4-17.3-4.2-36-5.3c-23.2-1.3-40.3-4.3-51.2-8.8
	c-19.2-8-28.8-22.4-28.8-43.1c0-34.6,27-51.9,81.1-51.9C945.9,161.8,972.9,179,972.9,213.4"/>
<path class="st3" d="M1164.5,282.5c-9.6,35.3-36,53-79,53c-55.4,0-83.1-29-83.1-86.9c0-57.7,27.7-86.5,83.1-86.5
	c43.1,0,69.4,17.6,79,52.7h-37c-6.7-12.7-20.7-19-42-19c-18.6,0-31.6,4.8-39,14.4c-6.1,7.9-9.1,20.7-9.1,38.4s3,30.5,9.1,38.4
	c7.4,9.9,20.4,14.8,39,14.8c21.1,0,35.1-6.4,42-19.3L1164.5,282.5z"/>
<path class="st2" d="M1535.6,530.5c-58,0-87-20.9-87-62.8V0h34v468c0,9,3.1,15.6,9.2,20c8.1,5.9,22.7,8.8,43.8,8.8L1535.6,530.5z"/>
<path class="st1" d="M527,246.8c0,57.7-27,86.5-81.1,86.5c-53.9,0-80.8-28.8-80.8-86.5V160h34v87c0,17.7,2.9,30.4,8.8,38.3
	c7.2,9.6,19.9,14.4,38,14.4c18.1,0,30.8-4.8,38-14.4c5.9-7.8,8.8-20.6,8.8-38.3v-87H527V246.8z"/>
<path class="st1" d="M718.7,333.4h-34v-86.7c0-17.7-2.9-30.4-8.8-38.3c-7.2-9.8-19.8-14.7-38-14.7c-18.1,0-30.9,4.9-38.3,14.7
	c-5.9,7.9-8.8,20.6-8.8,38.3v86.7h-34v-86.5c0-57.9,27.1-86.9,81.2-86.9c53.9,0,80.8,29,80.8,86.9L718.7,333.4z"/>
<rect x="748.4" y="139.7" class="st1" width="34" height="14.2"/>
<rect x="748.5" y="160" class="st1" width="34" height="173.4"/>
<g id="layer1">
	<g id="g4170">
		<path id="path4176" class="st1" d="M162.2,274.1c-3,19.4-8.1,33.9-16,45.4c-3.3,4.8-10,11.5-14.3,14.4
			c-17.3,11.4-42.6,10.7-68-1.9c-28.1-14-49.9-39.1-57.4-66.2c-0.6-2.2-1.3-4.6-1.5-5.4c-0.8-2.8-1.1-5.2-0.6-5.2
			c0.3,0,0.5,0.6,0.5,1.3c0,2,5.4,12.8,8.9,17.6c12.1,17,35.4,31.9,60.5,38.8c25.3,6.9,47.8,5,63.4-5.3
			c11.4-7.6,19.5-19.8,23.6-35.7C162.9,265.4,163.3,266.5,162.2,274.1L162.2,274.1z M162.5,218.4c-0.6-1.5-1.1-3.1-1.5-4.7
			c-7-25.9-24-41.1-49.3-43.9c-33.9-3.8-78.1,15.3-97.8,42.2c-4.3,5.9-9,15.3-9,17.9c0,0.6-0.2,1.2-0.5,1.2c-0.6,0-0.6-0.1,0-2.7
			c4.2-19.7,13.8-37.1,28.7-52c15.8-15.8,34.8-26.3,55.3-30.7c4.3-0.9,6.6-1.1,14.4-1.1c8.5,0,9.8,0.1,14,1.3
			c20.9,5.6,34.9,22.2,41.9,49.8C161.1,204.7,163.6,220.3,162.5,218.4L162.5,218.4z M134.2,271.7c-1.2,5.6-3.1,11.1-5.7,16.2
			c-7.8,15.8-21.4,22.9-39,20.2c-24.6-3.8-48.4-23.9-56.2-47.5c-1.5-4.5-1.1-5.7,0.7-2.3c2.6,4.8,6,9.1,10,12.8
			c17.9,17,48,25.4,67.4,18.7c10.1-3.4,18-11.5,22-22.3c0.5-1.5,1.1-2.9,1.7-4.3C135.8,262.6,135.2,267.3,134.2,271.7L134.2,271.7z
			 M135,222.6c-0.3-0.5-1.1-2.6-1.9-4.6c-3.2-8.8-9.8-16-18.3-20c-5.9-2.8-11.6-3.7-20.6-3.4c-14.5,0.5-28.1,4.9-41,13.4
			c-6.8,4.5-14.8,12.6-18.3,18.5c-3,5-3.3,4.4-1.1-2c6.8-19.4,24.8-36.8,45.3-43.6c27.4-9.2,46.8,1.9,54.4,31.1
			C134.9,217.7,135.9,224.6,135,222.6L135,222.6z M109.7,261.9c-2.3,7.3-6,12-11,14.3c-5.4,2.5-13.4,2-20.5-1.1
			c-6.4-3-12-7.6-16.2-13.3c-2.3-3.3-4.8-8.3-4.5-9.1c0.1-0.3,1.2,0.8,2.5,2.5c4.2,5.4,11.8,10.1,20.1,12.5
			c13.3,3.8,23.7,0.8,28.9-8.4c0.5-0.9,1-1.8,1.7-2.6C111.2,256.7,110.8,258.6,109.7,261.9L109.7,261.9z M110.3,229
			c-4.9-7.7-7.6-10-13.9-11.4c-11.8-2.6-28.9,3.8-36.6,13.8c-1.1,1.5-2.1,2.4-2.2,2.2c0.2-1.1,0.5-2.2,1-3.1
			c4-8.8,12.3-16.4,22.2-20.2c3.1-1.2,4.1-1.4,9.6-1.4c5.8,0,6.3,0,8.8,1.4c3.5,2,6.4,4.9,8.3,8.5C109.6,223,112.1,232.1,110.3,229
			L110.3,229z"/>
		<path id="path4174" class="st0" d="M330,264.6c-7.7,28-29.3,53.2-57.7,67.3c-7.7,3.8-15.9,6.8-24.3,8.6
			c-6.9,1.5-18.1,1.8-24.4,0.8c-23-3.8-38.6-20.7-46.5-50.4c-1.8-6.6-4-19.3-3.9-22.2l0-2l0.7,2.5c3.4,12,6.4,18.7,11,25.3
			c13.1,18.5,36.3,25.8,65.4,20.8c19.1-3.4,37.2-11.2,52.9-22.6c12.2-9,21.3-20.1,26.1-31.7c1.5-3.5,1.7-3.8,1.7-2.3
			C331,260.7,330.6,262.7,330,264.6L330,264.6z M330.4,227.3c-0.5-1-1.5-3.3-2.5-5.3c-10.5-22.9-41.8-44-74.7-50.4
			c-31.4-6.1-55.4,1.3-69.1,21.6c-4,5.9-6.9,12.7-10.1,24l-0.7,2.5l0-1.8c-0.1-5.2,2.9-20.1,6.1-29.8c4.1-12.4,9.5-21.6,17.1-29.3
			c6.3-6.5,14.3-11,23.1-13.1c3.7-0.9,5.6-1.1,13.7-1.1s10.1,0.2,14.7,1.1c38.6,8.3,72.9,40.4,82.3,77.1c0.5,1.6,0.8,3.3,1,5
			C331.2,228.8,331.1,228.8,330.4,227.3L330.4,227.3z M303.3,258.6c-1.2,4.6-5.1,12.8-8.7,18.1c-7.4,11.1-21.1,22.2-33.6,27.3
			c-8.2,3.3-12.9,4.3-21.2,4.3c-6.7,0-7.7-0.1-11.3-1.3c-11.6-3.8-19.6-12.9-24.5-27.4c-1.9-5.5-3.7-14.1-3.7-16.7
			c0-1.3,0.4-0.7,1.7,3c4.5,12.4,12.3,20.5,22.8,23.8c19.2,6.1,46.6-1.1,65.3-17c4.5-3.9,9.5-9.9,11.6-14.3c0.5-1.2,1.2-2.4,2.1-3.5
			c0.3-0.2,0.5-0.2,0.5-0.1S303.8,256.7,303.3,258.6L303.3,258.6z M304,231.7c-0.8-1.2-1.5-2.4-2.1-3.6c-5.5-10-14.9-18.5-27.7-24.9
			c-12.5-6.3-24.9-9.1-37.1-8.6c-6.7,0.3-10.8,1.2-15.6,3.3c-9.2,4.1-15.4,11.3-19.5,22.7c-1.3,3.6-1.6,4.1-1.6,2.8
			c0-2.6,1.9-11.2,3.7-16.6c4.4-13.2,10.9-21.4,20.5-25.9c17-8,42.8-0.4,61.2,18c6.6,6.4,11.8,14.1,15.4,22.6
			C302.5,225,304.5,231.7,304,231.7L304,231.7z M277,256.9c-8,15.9-27.8,25.3-40.3,19.2c-3.4-1.7-6.8-5.5-8.8-9.8
			c-1.3-2.8-2.3-5.7-2.9-8.7c-0.5-2.2,0.4-1.6,1.7,1.1c1.8,3.5,4.6,6.3,8,8.2c7.3,3.6,17.8,3,27.8-1.6c6-2.8,12.3-7.9,15.4-12.5
			C279.4,250.5,278.9,253.3,277,256.9L277,256.9z M277.9,233.6c-1.7-2.5-8.4-8.7-11.4-10.4c-7.8-4.5-17.6-6.9-24.6-5.9
			s-12.5,4.8-15.1,10.3c-1.3,2.7-2.2,3.4-1.7,1.2c2.3-10.2,6.8-16.8,13.3-19.3c4.1-1.6,10.3-1.5,15.6,0.2
			c9.9,3.2,19.3,11.4,23.5,20.5c0.6,1.1,1,2.4,1.2,3.6C278.7,234.8,278.6,234.7,277.9,233.6L277.9,233.6z"/>
	</g>
</g>
<g class="st4">
	<path class="st5" d="M30.1,365.5v111.9H16.6V365.5H30.1z"/>
	<path class="st5" d="M83,399.2c4.6,0,8.9,0.8,12.8,2.3c3.9,1.5,7.3,3.8,10.1,6.7c2.8,2.9,5.1,6.5,6.6,10.8
		c1.6,4.3,2.4,9.2,2.4,14.6c0,2.1-0.2,3.5-0.7,4.3c-0.5,0.7-1.3,1.1-2.6,1.1H60.4c0.1,4.9,0.8,9.1,2,12.7c1.2,3.6,2.9,6.6,5,9
		c2.1,2.4,4.7,4.2,7.6,5.4c2.9,1.2,6.2,1.8,9.9,1.8c3.4,0,6.3-0.4,8.8-1.2c2.5-0.8,4.6-1.6,6.3-2.5c1.8-0.9,3.3-1.8,4.4-2.5
		c1.2-0.8,2.2-1.2,3.1-1.2c1.1,0,2,0.4,2.6,1.3l3.8,4.9c-1.7,2-3.7,3.8-6,5.3c-2.3,1.5-4.8,2.7-7.5,3.7c-2.7,1-5.4,1.7-8.2,2.2
		c-2.8,0.5-5.7,0.7-8.4,0.7c-5.3,0-10.2-0.9-14.7-2.7s-8.4-4.4-11.6-7.9c-3.3-3.5-5.8-7.8-7.6-12.9c-1.8-5.1-2.7-11-2.7-17.6
		c0-5.4,0.8-10.4,2.5-15c1.6-4.7,4-8.7,7.1-12.1c3.1-3.4,6.9-6.1,11.3-8.1C72.4,400.2,77.4,399.2,83,399.2z M83.3,409.2
		c-6.5,0-11.7,1.9-15.4,5.7c-3.8,3.8-6.1,9-7,15.7h41.9c0-3.1-0.4-6-1.3-8.6c-0.9-2.6-2.1-4.9-3.8-6.8c-1.7-1.9-3.7-3.4-6.1-4.4
		C89.1,409.7,86.4,409.2,83.3,409.2z"/>
	<path class="st5" d="M174.7,413.2c-0.6,1.1-1.5,1.7-2.8,1.7c-0.8,0-1.6-0.3-2.6-0.8c-1-0.6-2.1-1.2-3.5-1.9c-1.4-0.7-3.1-1.3-5-1.9
		c-1.9-0.6-4.2-0.9-6.8-0.9c-2.3,0-4.3,0.3-6.2,0.9c-1.8,0.6-3.4,1.4-4.7,2.4c-1.3,1-2.3,2.2-3,3.5c-0.7,1.3-1,2.8-1,4.4
		c0,2,0.6,3.6,1.7,4.9c1.1,1.3,2.6,2.5,4.5,3.4c1.9,1,4,1.8,6.4,2.5c2.4,0.7,4.8,1.5,7.3,2.4c2.5,0.8,5,1.8,7.3,2.8
		c2.4,1,4.5,2.3,6.4,3.8c1.9,1.5,3.4,3.4,4.5,5.6c1.1,2.2,1.7,4.9,1.7,7.9c0,3.5-0.6,6.8-1.9,9.8c-1.3,3-3.1,5.6-5.6,7.8
		c-2.5,2.2-5.5,3.9-9.1,5.2c-3.6,1.3-7.8,1.9-12.5,1.9c-5.4,0-10.2-0.9-14.6-2.6c-4.4-1.7-8.1-4-11.1-6.7l3.2-5.2
		c0.4-0.7,0.9-1.2,1.4-1.5c0.6-0.4,1.3-0.5,2.2-0.5c0.9,0,1.9,0.4,2.9,1.1c1,0.7,2.2,1.5,3.7,2.4s3.2,1.6,5.2,2.4
		c2.1,0.7,4.6,1.1,7.7,1.1c2.6,0,4.9-0.3,6.9-1c2-0.7,3.6-1.6,4.9-2.8c1.3-1.2,2.3-2.5,2.9-4c0.6-1.5,1-3.1,1-4.9
		c0-2.1-0.6-3.9-1.7-5.3c-1.1-1.4-2.6-2.6-4.5-3.6c-1.9-1-4-1.8-6.4-2.6c-2.4-0.7-4.9-1.5-7.4-2.3c-2.5-0.8-5-1.7-7.4-2.8
		c-2.4-1-4.5-2.3-6.4-3.9c-1.9-1.6-3.4-3.5-4.5-5.8c-1.1-2.3-1.7-5.1-1.7-8.4c0-2.9,0.6-5.8,1.8-8.5c1.2-2.7,3-5.1,5.3-7.1
		c2.3-2.1,5.2-3.7,8.6-4.9c3.4-1.2,7.3-1.8,11.6-1.8c5.1,0,9.6,0.8,13.6,2.4c4,1.6,7.5,3.8,10.5,6.6L174.7,413.2z"/>
	<path class="st5" d="M267,413.2c-0.6,1.1-1.5,1.7-2.8,1.7c-0.8,0-1.6-0.3-2.6-0.8c-1-0.6-2.1-1.2-3.5-1.9c-1.4-0.7-3.1-1.3-5-1.9
		c-1.9-0.6-4.2-0.9-6.8-0.9c-2.3,0-4.3,0.3-6.2,0.9c-1.8,0.6-3.4,1.4-4.7,2.4c-1.3,1-2.3,2.2-3,3.5c-0.7,1.3-1,2.8-1,4.4
		c0,2,0.6,3.6,1.7,4.9c1.1,1.3,2.6,2.5,4.5,3.4c1.9,1,4,1.8,6.4,2.5c2.4,0.7,4.8,1.5,7.3,2.4c2.5,0.8,5,1.8,7.3,2.8
		c2.4,1,4.5,2.3,6.4,3.8c1.9,1.5,3.4,3.4,4.5,5.6c1.1,2.2,1.7,4.9,1.7,7.9c0,3.5-0.6,6.8-1.9,9.8c-1.3,3-3.1,5.6-5.6,7.8
		c-2.5,2.2-5.5,3.9-9.1,5.2c-3.6,1.3-7.8,1.9-12.5,1.9c-5.4,0-10.2-0.9-14.6-2.6s-8.1-4-11.1-6.7l3.2-5.2c0.4-0.7,0.9-1.2,1.4-1.5
		c0.6-0.4,1.3-0.5,2.2-0.5s1.9,0.4,2.9,1.1c1,0.7,2.2,1.5,3.7,2.4s3.2,1.6,5.2,2.4c2.1,0.7,4.6,1.1,7.7,1.1c2.6,0,4.9-0.3,6.9-1
		c2-0.7,3.6-1.6,4.9-2.8c1.3-1.2,2.3-2.5,2.9-4c0.6-1.5,1-3.1,1-4.9c0-2.1-0.6-3.9-1.7-5.3c-1.1-1.4-2.6-2.6-4.5-3.6
		c-1.9-1-4-1.8-6.4-2.6c-2.4-0.7-4.9-1.5-7.4-2.3c-2.5-0.8-5-1.7-7.4-2.8c-2.4-1-4.5-2.3-6.4-3.9c-1.9-1.6-3.4-3.5-4.5-5.8
		c-1.1-2.3-1.7-5.1-1.7-8.4c0-2.9,0.6-5.8,1.8-8.5c1.2-2.7,3-5.1,5.3-7.1c2.3-2.1,5.2-3.7,8.6-4.9c3.4-1.2,7.3-1.8,11.6-1.8
		c5.1,0,9.6,0.8,13.6,2.4c4,1.6,7.5,3.8,10.5,6.6L267,413.2z"/>
	<path class="st5" d="M339.8,414.1c-0.4,0.6-0.8,1-1.2,1.3c-0.4,0.3-1,0.5-1.7,0.5c-0.8,0-1.6-0.3-2.5-1c-0.9-0.6-2-1.3-3.4-2.1
		c-1.4-0.8-3-1.5-5-2.1c-2-0.6-4.3-0.9-7.2-0.9c-3.8,0-7.1,0.7-10,2c-2.9,1.3-5.3,3.3-7.3,5.8c-2,2.5-3.4,5.6-4.4,9.2
		c-1,3.6-1.5,7.6-1.5,12.1c0,4.7,0.5,8.8,1.6,12.4c1.1,3.6,2.6,6.7,4.5,9.1c1.9,2.5,4.3,4.3,7,5.6s5.9,1.9,9.3,1.9
		c3.3,0,6-0.4,8.1-1.2c2.1-0.8,3.9-1.7,5.3-2.6c1.4-1,2.6-1.8,3.5-2.6c0.9-0.8,1.8-1.2,2.7-1.2c1.2,0,2,0.4,2.6,1.3l3.8,4.9
		c-3.3,4.1-7.5,7.1-12.5,9c-5,1.9-10.3,2.9-15.9,2.9c-4.8,0-9.3-0.9-13.4-2.7c-4.1-1.8-7.7-4.3-10.8-7.7c-3-3.4-5.4-7.5-7.2-12.4
		c-1.7-4.9-2.6-10.5-2.6-16.8c0-5.7,0.8-11,2.4-15.9c1.6-4.9,3.9-9.1,7-12.6c3.1-3.5,6.9-6.3,11.4-8.2c4.5-2,9.7-3,15.5-3
		c5.4,0,10.1,0.9,14.3,2.6c4.2,1.7,7.8,4.2,11,7.4L339.8,414.1z"/>
	<path class="st5" d="M374.9,376.3c0,1.3-0.3,2.5-0.8,3.7c-0.5,1.1-1.2,2.2-2.1,3c-0.9,0.9-1.9,1.6-3.1,2.1
		c-1.2,0.5-2.4,0.8-3.7,0.8c-1.3,0-2.5-0.3-3.7-0.8c-1.1-0.5-2.2-1.2-3-2.1c-0.9-0.9-1.6-1.9-2.1-3c-0.5-1.1-0.8-2.4-0.8-3.7
		c0-1.3,0.3-2.6,0.8-3.8c0.5-1.2,1.2-2.2,2.1-3.1c0.9-0.9,1.9-1.6,3-2.1c1.1-0.5,2.4-0.8,3.7-0.8c1.3,0,2.6,0.3,3.7,0.8
		c1.2,0.5,2.2,1.2,3.1,2.1c0.9,0.9,1.6,1.9,2.1,3.1C374.6,373.7,374.9,375,374.9,376.3z M371.8,400.5v77h-13.5v-77H371.8z"/>
	<path class="st5" d="M424.7,399.2c4.6,0,8.9,0.8,12.8,2.3c3.9,1.5,7.3,3.8,10.1,6.7c2.8,2.9,5.1,6.5,6.6,10.8
		c1.6,4.3,2.4,9.2,2.4,14.6c0,2.1-0.2,3.5-0.7,4.3c-0.5,0.7-1.3,1.1-2.6,1.1h-51.2c0.1,4.9,0.8,9.1,2,12.7c1.2,3.6,2.9,6.6,5,9
		c2.1,2.4,4.7,4.2,7.6,5.4c2.9,1.2,6.2,1.8,9.9,1.8c3.4,0,6.3-0.4,8.8-1.2c2.5-0.8,4.6-1.6,6.3-2.5s3.3-1.8,4.4-2.5
		c1.2-0.8,2.2-1.2,3.1-1.2c1.1,0,2,0.4,2.6,1.3l3.8,4.9c-1.7,2-3.7,3.8-6,5.3c-2.3,1.5-4.8,2.7-7.5,3.7c-2.7,1-5.4,1.7-8.2,2.2
		c-2.8,0.5-5.6,0.7-8.4,0.7c-5.3,0-10.2-0.9-14.7-2.7s-8.4-4.4-11.6-7.9c-3.3-3.5-5.8-7.8-7.6-12.9c-1.8-5.1-2.7-11-2.7-17.6
		c0-5.4,0.8-10.4,2.5-15c1.6-4.7,4-8.7,7.1-12.1c3.1-3.4,6.9-6.1,11.3-8.1C414.1,400.2,419.1,399.2,424.7,399.2z M425,409.2
		c-6.5,0-11.7,1.9-15.4,5.7c-3.8,3.8-6.1,9-7,15.7h41.9c0-3.1-0.4-6-1.3-8.6c-0.9-2.6-2.1-4.9-3.8-6.8c-1.7-1.9-3.7-3.4-6.1-4.4
		C430.8,409.7,428,409.2,425,409.2z"/>
	<path class="st5" d="M472.3,477.5v-77h8.1c1.9,0,3.1,0.9,3.6,2.8l1.1,8.4c3.3-3.7,7.1-6.7,11.2-9c4.1-2.3,8.9-3.4,14.3-3.4
		c4.2,0,7.9,0.7,11.1,2.1c3.2,1.4,5.9,3.4,8.1,5.9c2.2,2.6,3.8,5.6,4.9,9.2c1.1,3.6,1.7,7.6,1.7,11.9v49h-13.5v-49
		c0-5.8-1.3-10.3-4-13.6c-2.7-3.2-6.7-4.8-12.2-4.8c-4,0-7.7,1-11.2,2.9c-3.5,1.9-6.7,4.5-9.6,7.8v56.7H472.3z"/>
	<path class="st5" d="M607.8,414.1c-0.4,0.6-0.8,1-1.2,1.3c-0.4,0.3-1,0.5-1.7,0.5c-0.8,0-1.6-0.3-2.5-1c-0.9-0.6-2-1.3-3.4-2.1
		c-1.4-0.8-3-1.5-5-2.1c-2-0.6-4.3-0.9-7.2-0.9c-3.8,0-7.1,0.7-10,2c-2.9,1.3-5.3,3.3-7.3,5.8c-2,2.5-3.4,5.6-4.4,9.2
		c-1,3.6-1.5,7.6-1.5,12.1c0,4.7,0.5,8.8,1.6,12.4c1.1,3.6,2.6,6.7,4.5,9.1c1.9,2.5,4.3,4.3,7,5.6s5.9,1.9,9.3,1.9
		c3.3,0,6-0.4,8.1-1.2c2.1-0.8,3.9-1.7,5.3-2.6c1.4-1,2.6-1.8,3.5-2.6c0.9-0.8,1.8-1.2,2.7-1.2c1.2,0,2,0.4,2.6,1.3l3.8,4.9
		c-3.3,4.1-7.5,7.1-12.5,9c-5,1.9-10.3,2.9-15.9,2.9c-4.8,0-9.3-0.9-13.4-2.7c-4.1-1.8-7.7-4.3-10.8-7.7c-3-3.4-5.4-7.5-7.2-12.4
		c-1.7-4.9-2.6-10.5-2.6-16.8c0-5.7,0.8-11,2.4-15.9c1.6-4.9,3.9-9.1,7-12.6c3.1-3.5,6.9-6.3,11.4-8.2c4.5-2,9.7-3,15.5-3
		c5.4,0,10.1,0.9,14.3,2.6c4.2,1.7,7.8,4.2,11,7.4L607.8,414.1z"/>
	<path class="st5" d="M655.2,399.2c4.6,0,8.9,0.8,12.8,2.3c3.9,1.5,7.3,3.8,10.1,6.7c2.8,2.9,5.1,6.5,6.6,10.8
		c1.6,4.3,2.4,9.2,2.4,14.6c0,2.1-0.2,3.5-0.7,4.3c-0.5,0.7-1.3,1.1-2.6,1.1h-51.2c0.1,4.9,0.8,9.1,2,12.7c1.2,3.6,2.9,6.6,5,9
		c2.1,2.4,4.7,4.2,7.6,5.4c2.9,1.2,6.2,1.8,9.9,1.8c3.4,0,6.3-0.4,8.8-1.2c2.5-0.8,4.6-1.6,6.3-2.5s3.3-1.8,4.4-2.5
		c1.2-0.8,2.2-1.2,3.1-1.2c1.1,0,2,0.4,2.6,1.3l3.8,4.9c-1.7,2-3.7,3.8-6,5.3c-2.3,1.5-4.8,2.7-7.5,3.7c-2.7,1-5.4,1.7-8.2,2.2
		c-2.8,0.5-5.6,0.7-8.4,0.7c-5.3,0-10.2-0.9-14.7-2.7s-8.4-4.4-11.6-7.9c-3.3-3.5-5.8-7.8-7.6-12.9c-1.8-5.1-2.7-11-2.7-17.6
		c0-5.4,0.8-10.4,2.5-15c1.6-4.7,4-8.7,7.1-12.1c3.1-3.4,6.9-6.1,11.3-8.1C644.6,400.2,649.7,399.2,655.2,399.2z M655.5,409.2
		c-6.5,0-11.7,1.9-15.4,5.7c-3.8,3.8-6.1,9-7,15.7H675c0-3.1-0.4-6-1.3-8.6c-0.9-2.6-2.1-4.9-3.8-6.8c-1.7-1.9-3.7-3.4-6.1-4.4
		C661.4,409.7,658.6,409.2,655.5,409.2z"/>
	<path class="st5" d="M747,413.2c-0.6,1.1-1.5,1.7-2.8,1.7c-0.8,0-1.6-0.3-2.6-0.8c-1-0.6-2.1-1.2-3.5-1.9c-1.4-0.7-3.1-1.3-5-1.9
		c-1.9-0.6-4.2-0.9-6.8-0.9c-2.3,0-4.3,0.3-6.2,0.9c-1.8,0.6-3.4,1.4-4.7,2.4c-1.3,1-2.3,2.2-3,3.5c-0.7,1.3-1,2.8-1,4.4
		c0,2,0.6,3.6,1.7,4.9c1.1,1.3,2.6,2.5,4.5,3.4c1.9,1,4,1.8,6.4,2.5c2.4,0.7,4.8,1.5,7.3,2.4c2.5,0.8,5,1.8,7.3,2.8
		c2.4,1,4.5,2.3,6.4,3.8c1.9,1.5,3.4,3.4,4.5,5.6c1.1,2.2,1.7,4.9,1.7,7.9c0,3.5-0.6,6.8-1.9,9.8c-1.3,3-3.1,5.6-5.6,7.8
		c-2.5,2.2-5.5,3.9-9.1,5.2c-3.6,1.3-7.8,1.9-12.5,1.9c-5.4,0-10.2-0.9-14.6-2.6s-8.1-4-11.1-6.7l3.2-5.2c0.4-0.7,0.9-1.2,1.4-1.5
		c0.6-0.4,1.3-0.5,2.2-0.5s1.9,0.4,2.9,1.1c1,0.7,2.2,1.5,3.7,2.4s3.2,1.6,5.2,2.4c2.1,0.7,4.6,1.1,7.7,1.1c2.6,0,4.9-0.3,6.9-1
		c2-0.7,3.6-1.6,4.9-2.8c1.3-1.2,2.3-2.5,2.9-4c0.6-1.5,1-3.1,1-4.9c0-2.1-0.6-3.9-1.7-5.3c-1.1-1.4-2.6-2.6-4.5-3.6
		c-1.9-1-4-1.8-6.4-2.6c-2.4-0.7-4.9-1.5-7.4-2.3c-2.5-0.8-5-1.7-7.4-2.8c-2.4-1-4.5-2.3-6.4-3.9c-1.9-1.6-3.4-3.5-4.5-5.8
		c-1.1-2.3-1.7-5.1-1.7-8.4c0-2.9,0.6-5.8,1.8-8.5c1.2-2.7,3-5.1,5.3-7.1c2.3-2.1,5.2-3.7,8.6-4.9c3.4-1.2,7.3-1.8,11.6-1.8
		c5.1,0,9.6,0.8,13.6,2.4c4,1.6,7.5,3.8,10.5,6.6L747,413.2z"/>
	<path class="st5" d="M763.4,468.1c0-1.2,0.2-2.3,0.6-3.3c0.4-1,1-1.9,1.8-2.7c0.8-0.8,1.7-1.4,2.8-1.9c1.1-0.5,2.3-0.7,3.6-0.7
		c1.5,0,2.9,0.3,4.1,0.8s2.2,1.3,3,2.3c0.8,1,1.4,2.1,1.8,3.4c0.4,1.3,0.6,2.7,0.6,4.2c0,2.3-0.3,4.6-1,7.1
		c-0.7,2.5-1.6,4.9-2.8,7.3c-1.2,2.4-2.7,4.8-4.5,7c-1.8,2.3-3.8,4.4-6.1,6.3l-2.3-2.2c-0.7-0.6-1-1.3-1-2.1c0-0.7,0.4-1.3,1.1-2.1
		c0.5-0.6,1.2-1.3,1.9-2.2c0.8-0.9,1.6-2,2.4-3.2s1.6-2.6,2.2-4c0.7-1.5,1.2-3,1.5-4.7h-1c-1.3,0-2.5-0.2-3.6-0.7
		c-1.1-0.5-2-1.1-2.8-1.9c-0.8-0.8-1.4-1.8-1.8-3C763.6,470.7,763.4,469.5,763.4,468.1z"/>
	<path class="st5" d="M840.9,365.5v111.9h-13.5V365.5H840.9z"/>
</g>
<g class="st4">
	<path class="st5" d="M884.1,362.8c1.5,2.4,2.5,4.9,3.2,7.3c0.7,2.4,1,4.9,1,7.3c0,4.6-1.1,9-3.4,13.2c-2.3,4.2-5.4,8-9.4,11.5
		l-4.2-2.6c-0.4-0.3-0.7-0.5-0.8-0.8c-0.1-0.3-0.2-0.6-0.2-0.9c0-0.7,0.3-1.3,0.8-1.8c0.8-1,1.6-2,2.4-3.2c0.8-1.1,1.4-2.3,2.1-3.6
		c0.6-1.2,1.1-2.5,1.4-3.9c0.4-1.4,0.5-2.8,0.5-4.3c0-1.6-0.2-3.3-0.7-5c-0.5-1.7-1.3-3.5-2.5-5.5c-0.4-0.6-0.5-1.1-0.5-1.7
		c0-1.2,0.7-2.1,2.1-2.7L884.1,362.8z"/>
</g>
<g class="st4">
	<path class="st5" d="M929.6,399.2c4.6,0,8.9,0.8,12.8,2.3c3.9,1.5,7.3,3.8,10.1,6.7c2.8,2.9,5.1,6.5,6.6,10.8
		c1.6,4.3,2.4,9.2,2.4,14.6c0,2.1-0.2,3.5-0.7,4.3c-0.5,0.7-1.3,1.1-2.6,1.1H907c0.1,4.9,0.8,9.1,2,12.7c1.2,3.6,2.9,6.6,5,9
		c2.1,2.4,4.7,4.2,7.6,5.4c2.9,1.2,6.2,1.8,9.9,1.8c3.4,0,6.3-0.4,8.8-1.2c2.5-0.8,4.6-1.6,6.3-2.5c1.8-0.9,3.3-1.8,4.4-2.5
		c1.2-0.8,2.2-1.2,3.1-1.2c1.1,0,2,0.4,2.6,1.3l3.8,4.9c-1.7,2-3.7,3.8-6,5.3c-2.3,1.5-4.8,2.7-7.5,3.7c-2.7,1-5.4,1.7-8.2,2.2
		c-2.8,0.5-5.7,0.7-8.4,0.7c-5.3,0-10.2-0.9-14.7-2.7c-4.5-1.8-8.4-4.4-11.6-7.9c-3.3-3.5-5.8-7.8-7.6-12.9
		c-1.8-5.1-2.7-11-2.7-17.6c0-5.4,0.8-10.4,2.5-15c1.6-4.7,4-8.7,7.1-12.1c3.1-3.4,6.9-6.1,11.3-8.1
		C919,400.2,924,399.2,929.6,399.2z M929.9,409.2c-6.5,0-11.7,1.9-15.4,5.7c-3.8,3.8-6.1,9-7,15.7h41.9c0-3.1-0.4-6-1.3-8.6
		c-0.9-2.6-2.1-4.9-3.8-6.8c-1.7-1.9-3.7-3.4-6.1-4.4C935.7,409.7,933,409.2,929.9,409.2z"/>
	<path class="st5" d="M1021.3,413.2c-0.6,1.1-1.5,1.7-2.8,1.7c-0.8,0-1.6-0.3-2.6-0.8c-1-0.6-2.1-1.2-3.5-1.9
		c-1.4-0.7-3.1-1.3-5-1.9c-1.9-0.6-4.2-0.9-6.8-0.9c-2.3,0-4.3,0.3-6.2,0.9c-1.8,0.6-3.4,1.4-4.7,2.4c-1.3,1-2.3,2.2-3,3.5
		c-0.7,1.3-1,2.8-1,4.4c0,2,0.6,3.6,1.7,4.9c1.1,1.3,2.6,2.5,4.5,3.4c1.9,1,4,1.8,6.4,2.5c2.4,0.7,4.8,1.5,7.3,2.4
		c2.5,0.8,5,1.8,7.3,2.8c2.4,1,4.5,2.3,6.4,3.8c1.9,1.5,3.4,3.4,4.5,5.6c1.1,2.2,1.7,4.9,1.7,7.9c0,3.5-0.6,6.8-1.9,9.8
		c-1.3,3-3.1,5.6-5.6,7.8c-2.5,2.2-5.5,3.9-9.1,5.2c-3.6,1.3-7.8,1.9-12.5,1.9c-5.4,0-10.2-0.9-14.6-2.6c-4.4-1.7-8.1-4-11.1-6.7
		l3.2-5.2c0.4-0.7,0.9-1.2,1.4-1.5c0.6-0.4,1.3-0.5,2.2-0.5c0.9,0,1.9,0.4,2.9,1.1c1,0.7,2.2,1.5,3.7,2.4c1.4,0.9,3.2,1.6,5.2,2.4
		c2.1,0.7,4.6,1.1,7.7,1.1c2.6,0,4.9-0.3,6.9-1c2-0.7,3.6-1.6,4.9-2.8c1.3-1.2,2.3-2.5,2.9-4c0.6-1.5,1-3.1,1-4.9
		c0-2.1-0.6-3.9-1.7-5.3c-1.1-1.4-2.6-2.6-4.5-3.6c-1.9-1-4-1.8-6.4-2.6c-2.4-0.7-4.9-1.5-7.4-2.3c-2.5-0.8-5-1.7-7.4-2.8
		c-2.4-1-4.5-2.3-6.4-3.9c-1.9-1.6-3.4-3.5-4.5-5.8c-1.1-2.3-1.7-5.1-1.7-8.4c0-2.9,0.6-5.8,1.8-8.5c1.2-2.7,3-5.1,5.3-7.1
		c2.3-2.1,5.2-3.7,8.6-4.9c3.4-1.2,7.3-1.8,11.6-1.8c5.1,0,9.6,0.8,13.6,2.4c4,1.6,7.5,3.8,10.4,6.6L1021.3,413.2z"/>
	<path class="st5" d="M1085.8,413.2c-0.6,1.1-1.5,1.7-2.8,1.7c-0.8,0-1.6-0.3-2.6-0.8c-1-0.6-2.1-1.2-3.5-1.9
		c-1.4-0.7-3.1-1.3-5-1.9c-1.9-0.6-4.2-0.9-6.8-0.9c-2.3,0-4.3,0.3-6.2,0.9c-1.8,0.6-3.4,1.4-4.7,2.4c-1.3,1-2.3,2.2-3,3.5
		c-0.7,1.3-1,2.8-1,4.4c0,2,0.6,3.6,1.7,4.9c1.1,1.3,2.6,2.5,4.5,3.4c1.9,1,4,1.8,6.4,2.5c2.4,0.7,4.8,1.5,7.3,2.4s5,1.8,7.3,2.8
		c2.4,1,4.5,2.3,6.4,3.8c1.9,1.5,3.4,3.4,4.5,5.6s1.7,4.9,1.7,7.9c0,3.5-0.6,6.8-1.9,9.8c-1.3,3-3.1,5.6-5.6,7.8s-5.5,3.9-9.1,5.2
		c-3.6,1.3-7.8,1.9-12.5,1.9c-5.4,0-10.2-0.9-14.6-2.6s-8.1-4-11.1-6.7l3.2-5.2c0.4-0.7,0.9-1.2,1.4-1.5c0.6-0.4,1.3-0.5,2.2-0.5
		s1.9,0.4,2.9,1.1c1,0.7,2.2,1.5,3.7,2.4c1.4,0.9,3.2,1.6,5.2,2.4c2.1,0.7,4.6,1.1,7.7,1.1c2.6,0,4.9-0.3,6.9-1
		c2-0.7,3.6-1.6,4.9-2.8c1.3-1.2,2.3-2.5,2.9-4c0.6-1.5,0.9-3.1,0.9-4.9c0-2.1-0.6-3.9-1.7-5.3c-1.1-1.4-2.6-2.6-4.5-3.6
		c-1.9-1-4-1.8-6.4-2.6s-4.9-1.5-7.4-2.3c-2.5-0.8-5-1.7-7.4-2.8c-2.4-1-4.5-2.3-6.4-3.9c-1.9-1.6-3.4-3.5-4.5-5.8
		c-1.1-2.3-1.7-5.1-1.7-8.4c0-2.9,0.6-5.8,1.8-8.5c1.2-2.7,3-5.1,5.3-7.1c2.3-2.1,5.2-3.7,8.6-4.9s7.3-1.8,11.6-1.8
		c5.1,0,9.6,0.8,13.6,2.4c4,1.6,7.5,3.8,10.5,6.6L1085.8,413.2z"/>
	<path class="st5" d="M1136.6,399.2c4.6,0,8.9,0.8,12.8,2.3c3.9,1.5,7.3,3.8,10.1,6.7c2.8,2.9,5.1,6.5,6.6,10.8
		c1.6,4.3,2.4,9.2,2.4,14.6c0,2.1-0.2,3.5-0.7,4.3c-0.5,0.7-1.3,1.1-2.6,1.1H1114c0.1,4.9,0.8,9.1,2,12.7s2.9,6.6,5,9
		c2.1,2.4,4.7,4.2,7.6,5.4c2.9,1.2,6.2,1.8,9.9,1.8c3.4,0,6.3-0.4,8.8-1.2c2.5-0.8,4.6-1.6,6.3-2.5s3.3-1.8,4.4-2.5
		c1.2-0.8,2.2-1.2,3.1-1.2c1.1,0,2,0.4,2.6,1.3l3.8,4.9c-1.7,2-3.7,3.8-6,5.3c-2.3,1.5-4.8,2.7-7.5,3.7c-2.7,1-5.4,1.7-8.2,2.2
		c-2.8,0.5-5.6,0.7-8.4,0.7c-5.3,0-10.2-0.9-14.7-2.7s-8.4-4.4-11.6-7.9c-3.3-3.5-5.8-7.8-7.6-12.9c-1.8-5.1-2.7-11-2.7-17.6
		c0-5.4,0.8-10.4,2.5-15c1.6-4.7,4-8.7,7.1-12.1c3.1-3.4,6.9-6.1,11.3-8.1C1126,400.2,1131,399.2,1136.6,399.2z M1136.9,409.2
		c-6.5,0-11.7,1.9-15.4,5.7c-3.8,3.8-6.1,9-7,15.7h41.9c0-3.1-0.4-6-1.3-8.6c-0.9-2.6-2.1-4.9-3.8-6.8c-1.7-1.9-3.7-3.4-6.1-4.4
		C1142.8,409.7,1140,409.2,1136.9,409.2z"/>
	<path class="st5" d="M1184.3,477.5v-77h8.1c1.9,0,3.1,0.9,3.6,2.8l1.1,8.4c3.3-3.7,7.1-6.7,11.2-9c4.1-2.3,8.9-3.4,14.3-3.4
		c4.2,0,7.9,0.7,11.1,2.1c3.2,1.4,5.9,3.4,8.1,5.9c2.2,2.6,3.8,5.6,4.9,9.2c1.1,3.6,1.7,7.6,1.7,11.9v49h-13.5v-49
		c0-5.8-1.3-10.3-4-13.6c-2.7-3.2-6.7-4.8-12.2-4.8c-4,0-7.7,1-11.2,2.9c-3.5,1.9-6.7,4.5-9.6,7.8v56.7H1184.3z"/>
	<path class="st5" d="M1290.6,478.7c-6.1,0-10.8-1.7-14-5.1c-3.3-3.4-4.9-8.3-4.9-14.7v-47.1h-9.3c-0.8,0-1.5-0.2-2.1-0.7
		c-0.6-0.5-0.8-1.2-0.8-2.2v-5.4l12.6-1.6l3.1-23.8c0.1-0.8,0.4-1.4,1-1.9c0.6-0.5,1.3-0.7,2.1-0.7h6.8V402h22v9.8h-22V458
		c0,3.2,0.8,5.7,2.4,7.2c1.6,1.6,3.6,2.4,6.1,2.4c1.4,0,2.6-0.2,3.7-0.6c1-0.4,1.9-0.8,2.7-1.3c0.8-0.5,1.4-0.9,1.9-1.3
		c0.5-0.4,1-0.6,1.4-0.6c0.7,0,1.3,0.4,1.9,1.3l4,6.5c-2.3,2.2-5.1,3.9-8.4,5.1C1297.5,478,1294.1,478.7,1290.6,478.7z"/>
	<path class="st5" d="M1340.5,376.3c0,1.3-0.3,2.5-0.8,3.7c-0.5,1.1-1.2,2.2-2.1,3c-0.9,0.9-1.9,1.6-3.1,2.1
		c-1.2,0.5-2.4,0.8-3.7,0.8c-1.3,0-2.5-0.3-3.7-0.8c-1.1-0.5-2.2-1.2-3-2.1c-0.9-0.9-1.6-1.9-2.1-3c-0.5-1.1-0.8-2.4-0.8-3.7
		c0-1.3,0.3-2.6,0.8-3.8c0.5-1.2,1.2-2.2,2.1-3.1c0.9-0.9,1.9-1.6,3-2.1c1.1-0.5,2.4-0.8,3.7-0.8c1.3,0,2.6,0.3,3.7,0.8
		c1.2,0.5,2.2,1.2,3.1,2.1c0.9,0.9,1.6,1.9,2.1,3.1C1340.2,373.7,1340.5,375,1340.5,376.3z M1337.5,400.5v77h-13.5v-77H1337.5z"/>
	<path class="st5" d="M1390.3,399.2c4.6,0,8.9,0.8,12.8,2.3c3.9,1.5,7.3,3.8,10.1,6.7c2.8,2.9,5.1,6.5,6.7,10.8
		c1.6,4.3,2.4,9.2,2.4,14.6c0,2.1-0.2,3.5-0.7,4.3c-0.5,0.7-1.3,1.1-2.6,1.1h-51.2c0.1,4.9,0.8,9.1,2,12.7c1.2,3.6,2.9,6.6,5,9
		c2.1,2.4,4.7,4.2,7.6,5.4c2.9,1.2,6.2,1.8,9.9,1.8c3.4,0,6.3-0.4,8.8-1.2c2.5-0.8,4.6-1.6,6.3-2.5s3.3-1.8,4.4-2.5
		c1.2-0.8,2.2-1.2,3.1-1.2c1.1,0,2,0.4,2.6,1.3l3.8,4.9c-1.7,2-3.7,3.8-6,5.3c-2.3,1.5-4.8,2.7-7.5,3.7c-2.7,1-5.4,1.7-8.2,2.2
		c-2.8,0.5-5.7,0.7-8.4,0.7c-5.3,0-10.2-0.9-14.7-2.7s-8.4-4.4-11.6-7.9c-3.3-3.5-5.8-7.8-7.6-12.9c-1.8-5.1-2.7-11-2.7-17.6
		c0-5.4,0.8-10.4,2.5-15c1.6-4.7,4-8.7,7.1-12.1s6.9-6.1,11.3-8.1C1379.7,400.2,1384.7,399.2,1390.3,399.2z M1390.6,409.2
		c-6.5,0-11.7,1.9-15.4,5.7c-3.8,3.8-6.1,9-7,15.7h41.9c0-3.1-0.4-6-1.3-8.6s-2.1-4.9-3.8-6.8c-1.7-1.9-3.7-3.4-6.1-4.4
		C1396.4,409.7,1393.7,409.2,1390.6,409.2z"/>
</g>
<g class="st4">
	<path class="st6" d="M26.1,360.5v111.9H12.6V360.5H26.1z"/>
	<path class="st6" d="M79,394.2c4.6,0,8.9,0.8,12.8,2.3c3.9,1.5,7.3,3.8,10.1,6.7c2.8,2.9,5.1,6.5,6.6,10.8
		c1.6,4.3,2.4,9.2,2.4,14.6c0,2.1-0.2,3.5-0.7,4.3c-0.5,0.7-1.3,1.1-2.6,1.1H56.4c0.1,4.9,0.8,9.1,2,12.7c1.2,3.6,2.9,6.6,5,9
		c2.1,2.4,4.7,4.2,7.6,5.4c2.9,1.2,6.2,1.8,9.9,1.8c3.4,0,6.3-0.4,8.8-1.2c2.5-0.8,4.6-1.6,6.3-2.5c1.8-0.9,3.3-1.8,4.4-2.5
		c1.2-0.8,2.2-1.2,3.1-1.2c1.1,0,2,0.4,2.6,1.3l3.8,4.9c-1.7,2-3.7,3.8-6,5.3c-2.3,1.5-4.8,2.7-7.5,3.7c-2.7,1-5.4,1.7-8.2,2.2
		c-2.8,0.5-5.7,0.7-8.4,0.7c-5.3,0-10.2-0.9-14.7-2.7s-8.4-4.4-11.6-7.9c-3.3-3.5-5.8-7.8-7.6-12.9c-1.8-5.1-2.7-11-2.7-17.6
		c0-5.4,0.8-10.4,2.5-15c1.6-4.7,4-8.7,7.1-12.1c3.1-3.4,6.9-6.1,11.3-8.1C68.4,395.2,73.4,394.2,79,394.2z M79.3,404.2
		c-6.5,0-11.7,1.9-15.4,5.7c-3.8,3.8-6.1,9-7,15.7h41.9c0-3.1-0.4-6-1.3-8.6c-0.9-2.6-2.1-4.9-3.8-6.8c-1.7-1.9-3.7-3.4-6.1-4.4
		C85.1,404.7,82.4,404.2,79.3,404.2z"/>
	<path class="st6" d="M170.7,408.2c-0.6,1.1-1.5,1.7-2.8,1.7c-0.8,0-1.6-0.3-2.6-0.8c-1-0.6-2.1-1.2-3.5-1.9c-1.4-0.7-3.1-1.3-5-1.9
		c-1.9-0.6-4.2-0.9-6.8-0.9c-2.3,0-4.3,0.3-6.2,0.9c-1.8,0.6-3.4,1.4-4.7,2.4c-1.3,1-2.3,2.2-3,3.5c-0.7,1.3-1,2.8-1,4.4
		c0,2,0.6,3.6,1.7,4.9c1.1,1.3,2.6,2.5,4.5,3.4c1.9,1,4,1.8,6.4,2.5c2.4,0.7,4.8,1.5,7.3,2.4c2.5,0.8,5,1.8,7.3,2.8
		c2.4,1,4.5,2.3,6.4,3.8c1.9,1.5,3.4,3.4,4.5,5.6c1.1,2.2,1.7,4.9,1.7,7.9c0,3.5-0.6,6.8-1.9,9.8c-1.3,3-3.1,5.6-5.6,7.8
		c-2.5,2.2-5.5,3.9-9.1,5.2c-3.6,1.3-7.8,1.9-12.5,1.9c-5.4,0-10.2-0.9-14.6-2.6c-4.4-1.7-8.1-4-11.1-6.7l3.2-5.2
		c0.4-0.7,0.9-1.2,1.4-1.5c0.6-0.4,1.3-0.5,2.2-0.5c0.9,0,1.9,0.4,2.9,1.1c1,0.7,2.2,1.5,3.7,2.4s3.2,1.6,5.2,2.4
		c2.1,0.7,4.6,1.1,7.7,1.1c2.6,0,4.9-0.3,6.9-1c2-0.7,3.6-1.6,4.9-2.8c1.3-1.2,2.3-2.5,2.9-4c0.6-1.5,1-3.1,1-4.9
		c0-2.1-0.6-3.9-1.7-5.3c-1.1-1.4-2.6-2.6-4.5-3.6c-1.9-1-4-1.8-6.4-2.6c-2.4-0.7-4.9-1.5-7.4-2.3c-2.5-0.8-5-1.7-7.4-2.8
		c-2.4-1-4.5-2.3-6.4-3.9c-1.9-1.6-3.4-3.5-4.5-5.8c-1.1-2.3-1.7-5.1-1.7-8.4c0-2.9,0.6-5.8,1.8-8.5c1.2-2.7,3-5.1,5.3-7.1
		c2.3-2.1,5.2-3.7,8.6-4.9c3.4-1.2,7.3-1.8,11.6-1.8c5.1,0,9.6,0.8,13.6,2.4c4,1.6,7.5,3.8,10.5,6.6L170.7,408.2z"/>
	<path class="st6" d="M263,408.2c-0.6,1.1-1.5,1.7-2.8,1.7c-0.8,0-1.6-0.3-2.6-0.8c-1-0.6-2.1-1.2-3.5-1.9c-1.4-0.7-3.1-1.3-5-1.9
		c-1.9-0.6-4.2-0.9-6.8-0.9c-2.3,0-4.3,0.3-6.2,0.9c-1.8,0.6-3.4,1.4-4.7,2.4c-1.3,1-2.3,2.2-3,3.5c-0.7,1.3-1,2.8-1,4.4
		c0,2,0.6,3.6,1.7,4.9c1.1,1.3,2.6,2.5,4.5,3.4c1.9,1,4,1.8,6.4,2.5c2.4,0.7,4.8,1.5,7.3,2.4c2.5,0.8,5,1.8,7.3,2.8
		c2.4,1,4.5,2.3,6.4,3.8c1.9,1.5,3.4,3.4,4.5,5.6c1.1,2.2,1.7,4.9,1.7,7.9c0,3.5-0.6,6.8-1.9,9.8c-1.3,3-3.1,5.6-5.6,7.8
		c-2.5,2.2-5.5,3.9-9.1,5.2c-3.6,1.3-7.8,1.9-12.5,1.9c-5.4,0-10.2-0.9-14.6-2.6s-8.1-4-11.1-6.7l3.2-5.2c0.4-0.7,0.9-1.2,1.4-1.5
		c0.6-0.4,1.3-0.5,2.2-0.5s1.9,0.4,2.9,1.1c1,0.7,2.2,1.5,3.7,2.4s3.2,1.6,5.2,2.4c2.1,0.7,4.6,1.1,7.7,1.1c2.6,0,4.9-0.3,6.9-1
		c2-0.7,3.6-1.6,4.9-2.8c1.3-1.2,2.3-2.5,2.9-4c0.6-1.5,1-3.1,1-4.9c0-2.1-0.6-3.9-1.7-5.3c-1.1-1.4-2.6-2.6-4.5-3.6
		c-1.9-1-4-1.8-6.4-2.6c-2.4-0.7-4.9-1.5-7.4-2.3c-2.5-0.8-5-1.7-7.4-2.8c-2.4-1-4.5-2.3-6.4-3.9c-1.9-1.6-3.4-3.5-4.5-5.8
		c-1.1-2.3-1.7-5.1-1.7-8.4c0-2.9,0.6-5.8,1.8-8.5c1.2-2.7,3-5.1,5.3-7.1c2.3-2.1,5.2-3.7,8.6-4.9c3.4-1.2,7.3-1.8,11.6-1.8
		c5.1,0,9.6,0.8,13.6,2.4c4,1.6,7.5,3.8,10.5,6.6L263,408.2z"/>
	<path class="st6" d="M335.8,409.1c-0.4,0.6-0.8,1-1.2,1.3c-0.4,0.3-1,0.5-1.7,0.5c-0.8,0-1.6-0.3-2.5-1c-0.9-0.6-2-1.3-3.4-2.1
		c-1.4-0.8-3-1.5-5-2.1c-2-0.6-4.3-0.9-7.2-0.9c-3.8,0-7.1,0.7-10,2c-2.9,1.3-5.3,3.3-7.3,5.8c-2,2.5-3.4,5.6-4.4,9.2
		c-1,3.6-1.5,7.6-1.5,12.1c0,4.7,0.5,8.8,1.6,12.4c1.1,3.6,2.6,6.7,4.5,9.1c1.9,2.5,4.3,4.3,7,5.6s5.9,1.9,9.3,1.9
		c3.3,0,6-0.4,8.1-1.2c2.1-0.8,3.9-1.7,5.3-2.6c1.4-1,2.6-1.8,3.5-2.6c0.9-0.8,1.8-1.2,2.7-1.2c1.2,0,2,0.4,2.6,1.3l3.8,4.9
		c-3.3,4.1-7.5,7.1-12.5,9c-5,1.9-10.3,2.9-15.9,2.9c-4.8,0-9.3-0.9-13.4-2.7c-4.1-1.8-7.7-4.3-10.8-7.7c-3-3.4-5.4-7.5-7.2-12.4
		c-1.7-4.9-2.6-10.5-2.6-16.8c0-5.7,0.8-11,2.4-15.9c1.6-4.9,3.9-9.1,7-12.6c3.1-3.5,6.9-6.3,11.4-8.2c4.5-2,9.7-3,15.5-3
		c5.4,0,10.1,0.9,14.3,2.6c4.2,1.7,7.8,4.2,11,7.4L335.8,409.1z"/>
	<path class="st6" d="M370.9,371.3c0,1.3-0.3,2.5-0.8,3.7c-0.5,1.1-1.2,2.2-2.1,3c-0.9,0.9-1.9,1.6-3.1,2.1
		c-1.2,0.5-2.4,0.8-3.7,0.8c-1.3,0-2.5-0.3-3.7-0.8c-1.1-0.5-2.2-1.2-3-2.1c-0.9-0.9-1.6-1.9-2.1-3c-0.5-1.1-0.8-2.4-0.8-3.7
		c0-1.3,0.3-2.6,0.8-3.8c0.5-1.2,1.2-2.2,2.1-3.1c0.9-0.9,1.9-1.6,3-2.1c1.1-0.5,2.4-0.8,3.7-0.8c1.3,0,2.6,0.3,3.7,0.8
		c1.2,0.5,2.2,1.2,3.1,2.1c0.9,0.9,1.6,1.9,2.1,3.1C370.6,368.7,370.9,370,370.9,371.3z M367.8,395.5v77h-13.5v-77H367.8z"/>
	<path class="st6" d="M420.7,394.2c4.6,0,8.9,0.8,12.8,2.3c3.9,1.5,7.3,3.8,10.1,6.7c2.8,2.9,5.1,6.5,6.6,10.8
		c1.6,4.3,2.4,9.2,2.4,14.6c0,2.1-0.2,3.5-0.7,4.3c-0.5,0.7-1.3,1.1-2.6,1.1h-51.2c0.1,4.9,0.8,9.1,2,12.7c1.2,3.6,2.9,6.6,5,9
		c2.1,2.4,4.7,4.2,7.6,5.4c2.9,1.2,6.2,1.8,9.9,1.8c3.4,0,6.3-0.4,8.8-1.2c2.5-0.8,4.6-1.6,6.3-2.5s3.3-1.8,4.4-2.5
		c1.2-0.8,2.2-1.2,3.1-1.2c1.1,0,2,0.4,2.6,1.3l3.8,4.9c-1.7,2-3.7,3.8-6,5.3c-2.3,1.5-4.8,2.7-7.5,3.7c-2.7,1-5.4,1.7-8.2,2.2
		c-2.8,0.5-5.6,0.7-8.4,0.7c-5.3,0-10.2-0.9-14.7-2.7s-8.4-4.4-11.6-7.9c-3.3-3.5-5.8-7.8-7.6-12.9c-1.8-5.1-2.7-11-2.7-17.6
		c0-5.4,0.8-10.4,2.5-15c1.6-4.7,4-8.7,7.1-12.1c3.1-3.4,6.9-6.1,11.3-8.1C410.1,395.2,415.1,394.2,420.7,394.2z M421,404.2
		c-6.5,0-11.7,1.9-15.4,5.7c-3.8,3.8-6.1,9-7,15.7h41.9c0-3.1-0.4-6-1.3-8.6c-0.9-2.6-2.1-4.9-3.8-6.8c-1.7-1.9-3.7-3.4-6.1-4.4
		C426.8,404.7,424,404.2,421,404.2z"/>
	<path class="st6" d="M468.3,472.5v-77h8.1c1.9,0,3.1,0.9,3.6,2.8l1.1,8.4c3.3-3.7,7.1-6.7,11.2-9c4.1-2.3,8.9-3.4,14.3-3.4
		c4.2,0,7.9,0.7,11.1,2.1c3.2,1.4,5.9,3.4,8.1,5.9c2.2,2.6,3.8,5.6,4.9,9.2c1.1,3.6,1.7,7.6,1.7,11.9v49h-13.5v-49
		c0-5.8-1.3-10.3-4-13.6c-2.7-3.2-6.7-4.8-12.2-4.8c-4,0-7.7,1-11.2,2.9c-3.5,1.9-6.7,4.5-9.6,7.8v56.7H468.3z"/>
	<path class="st6" d="M603.8,409.1c-0.4,0.6-0.8,1-1.2,1.3c-0.4,0.3-1,0.5-1.7,0.5c-0.8,0-1.6-0.3-2.5-1c-0.9-0.6-2-1.3-3.4-2.1
		c-1.4-0.8-3-1.5-5-2.1c-2-0.6-4.3-0.9-7.2-0.9c-3.8,0-7.1,0.7-10,2c-2.9,1.3-5.3,3.3-7.3,5.8c-2,2.5-3.4,5.6-4.4,9.2
		c-1,3.6-1.5,7.6-1.5,12.1c0,4.7,0.5,8.8,1.6,12.4c1.1,3.6,2.6,6.7,4.5,9.1c1.9,2.5,4.3,4.3,7,5.6s5.9,1.9,9.3,1.9
		c3.3,0,6-0.4,8.1-1.2c2.1-0.8,3.9-1.7,5.3-2.6c1.4-1,2.6-1.8,3.5-2.6c0.9-0.8,1.8-1.2,2.7-1.2c1.2,0,2,0.4,2.6,1.3l3.8,4.9
		c-3.3,4.1-7.5,7.1-12.5,9c-5,1.9-10.3,2.9-15.9,2.9c-4.8,0-9.3-0.9-13.4-2.7c-4.1-1.8-7.7-4.3-10.8-7.7c-3-3.4-5.4-7.5-7.2-12.4
		c-1.7-4.9-2.6-10.5-2.6-16.8c0-5.7,0.8-11,2.4-15.9c1.6-4.9,3.9-9.1,7-12.6c3.1-3.5,6.9-6.3,11.4-8.2c4.5-2,9.7-3,15.5-3
		c5.4,0,10.1,0.9,14.3,2.6c4.2,1.7,7.8,4.2,11,7.4L603.8,409.1z"/>
	<path class="st6" d="M651.2,394.2c4.6,0,8.9,0.8,12.8,2.3c3.9,1.5,7.3,3.8,10.1,6.7c2.8,2.9,5.1,6.5,6.6,10.8
		c1.6,4.3,2.4,9.2,2.4,14.6c0,2.1-0.2,3.5-0.7,4.3c-0.5,0.7-1.3,1.1-2.6,1.1h-51.2c0.1,4.9,0.8,9.1,2,12.7c1.2,3.6,2.9,6.6,5,9
		c2.1,2.4,4.7,4.2,7.6,5.4c2.9,1.2,6.2,1.8,9.9,1.8c3.4,0,6.3-0.4,8.8-1.2c2.5-0.8,4.6-1.6,6.3-2.5s3.3-1.8,4.4-2.5
		c1.2-0.8,2.2-1.2,3.1-1.2c1.1,0,2,0.4,2.6,1.3l3.8,4.9c-1.7,2-3.7,3.8-6,5.3c-2.3,1.5-4.8,2.7-7.5,3.7c-2.7,1-5.4,1.7-8.2,2.2
		c-2.8,0.5-5.6,0.7-8.4,0.7c-5.3,0-10.2-0.9-14.7-2.7s-8.4-4.4-11.6-7.9c-3.3-3.5-5.8-7.8-7.6-12.9c-1.8-5.1-2.7-11-2.7-17.6
		c0-5.4,0.8-10.4,2.5-15c1.6-4.7,4-8.7,7.1-12.1c3.1-3.4,6.9-6.1,11.3-8.1C640.6,395.2,645.7,394.2,651.2,394.2z M651.5,404.2
		c-6.5,0-11.7,1.9-15.4,5.7c-3.8,3.8-6.1,9-7,15.7H671c0-3.1-0.4-6-1.3-8.6c-0.9-2.6-2.1-4.9-3.8-6.8c-1.7-1.9-3.7-3.4-6.1-4.4
		C657.4,404.7,654.6,404.2,651.5,404.2z"/>
	<path class="st6" d="M743,408.2c-0.6,1.1-1.5,1.7-2.8,1.7c-0.8,0-1.6-0.3-2.6-0.8c-1-0.6-2.1-1.2-3.5-1.9c-1.4-0.7-3.1-1.3-5-1.9
		c-1.9-0.6-4.2-0.9-6.8-0.9c-2.3,0-4.3,0.3-6.2,0.9c-1.8,0.6-3.4,1.4-4.7,2.4c-1.3,1-2.3,2.2-3,3.5c-0.7,1.3-1,2.8-1,4.4
		c0,2,0.6,3.6,1.7,4.9c1.1,1.3,2.6,2.5,4.5,3.4c1.9,1,4,1.8,6.4,2.5c2.4,0.7,4.8,1.5,7.3,2.4c2.5,0.8,5,1.8,7.3,2.8
		c2.4,1,4.5,2.3,6.4,3.8c1.9,1.5,3.4,3.4,4.5,5.6c1.1,2.2,1.7,4.9,1.7,7.9c0,3.5-0.6,6.8-1.9,9.8c-1.3,3-3.1,5.6-5.6,7.8
		c-2.5,2.2-5.5,3.9-9.1,5.2c-3.6,1.3-7.8,1.9-12.5,1.9c-5.4,0-10.2-0.9-14.6-2.6s-8.1-4-11.1-6.7l3.2-5.2c0.4-0.7,0.9-1.2,1.4-1.5
		c0.6-0.4,1.3-0.5,2.2-0.5s1.9,0.4,2.9,1.1c1,0.7,2.2,1.5,3.7,2.4s3.2,1.6,5.2,2.4c2.1,0.7,4.6,1.1,7.7,1.1c2.6,0,4.9-0.3,6.9-1
		c2-0.7,3.6-1.6,4.9-2.8c1.3-1.2,2.3-2.5,2.9-4c0.6-1.5,1-3.1,1-4.9c0-2.1-0.6-3.9-1.7-5.3c-1.1-1.4-2.6-2.6-4.5-3.6
		c-1.9-1-4-1.8-6.4-2.6c-2.4-0.7-4.9-1.5-7.4-2.3c-2.5-0.8-5-1.7-7.4-2.8c-2.4-1-4.5-2.3-6.4-3.9c-1.9-1.6-3.4-3.5-4.5-5.8
		c-1.1-2.3-1.7-5.1-1.7-8.4c0-2.9,0.6-5.8,1.8-8.5c1.2-2.7,3-5.1,5.3-7.1c2.3-2.1,5.2-3.7,8.6-4.9c3.4-1.2,7.3-1.8,11.6-1.8
		c5.1,0,9.6,0.8,13.6,2.4c4,1.6,7.5,3.8,10.5,6.6L743,408.2z"/>
	<path class="st6" d="M759.4,463.1c0-1.2,0.2-2.3,0.6-3.3c0.4-1,1-1.9,1.8-2.7c0.8-0.8,1.7-1.4,2.8-1.9c1.1-0.5,2.3-0.7,3.6-0.7
		c1.5,0,2.9,0.3,4.1,0.8s2.2,1.3,3,2.3c0.8,1,1.4,2.1,1.8,3.4c0.4,1.3,0.6,2.7,0.6,4.2c0,2.3-0.3,4.6-1,7.1
		c-0.7,2.5-1.6,4.9-2.8,7.3c-1.2,2.4-2.7,4.8-4.5,7c-1.8,2.3-3.8,4.4-6.1,6.3l-2.3-2.2c-0.7-0.6-1-1.3-1-2.1c0-0.7,0.4-1.3,1.1-2.1
		c0.5-0.6,1.2-1.3,1.9-2.2c0.8-0.9,1.6-2,2.4-3.2s1.6-2.6,2.2-4c0.7-1.5,1.2-3,1.5-4.7h-1c-1.3,0-2.5-0.2-3.6-0.7
		c-1.1-0.5-2-1.1-2.8-1.9c-0.8-0.8-1.4-1.8-1.8-3C759.6,465.7,759.4,464.5,759.4,463.1z"/>
	<path class="st6" d="M836.9,360.5v111.9h-13.5V360.5H836.9z"/>
</g>
<g class="st4">
	<path class="st6" d="M880.1,357.8c1.5,2.4,2.5,4.9,3.2,7.3c0.7,2.4,1,4.9,1,7.3c0,4.6-1.1,9-3.4,13.2c-2.3,4.2-5.4,8-9.4,11.5
		l-4.2-2.6c-0.4-0.3-0.7-0.5-0.8-0.8c-0.1-0.3-0.2-0.6-0.2-0.9c0-0.7,0.3-1.3,0.8-1.8c0.8-1,1.6-2,2.4-3.2c0.8-1.1,1.4-2.3,2.1-3.6
		c0.6-1.2,1.1-2.5,1.4-3.9c0.4-1.4,0.5-2.8,0.5-4.3c0-1.6-0.2-3.3-0.7-5c-0.5-1.7-1.3-3.5-2.5-5.5c-0.4-0.6-0.5-1.1-0.5-1.7
		c0-1.2,0.7-2.1,2.1-2.7L880.1,357.8z"/>
</g>
<g class="st4">
	<path class="st6" d="M925.6,394.2c4.6,0,8.9,0.8,12.8,2.3c3.9,1.5,7.3,3.8,10.1,6.7c2.8,2.9,5.1,6.5,6.6,10.8
		c1.6,4.3,2.4,9.2,2.4,14.6c0,2.1-0.2,3.5-0.7,4.3c-0.5,0.7-1.3,1.1-2.6,1.1H903c0.1,4.9,0.8,9.1,2,12.7c1.2,3.6,2.9,6.6,5,9
		c2.1,2.4,4.7,4.2,7.6,5.4c2.9,1.2,6.2,1.8,9.9,1.8c3.4,0,6.3-0.4,8.8-1.2c2.5-0.8,4.6-1.6,6.3-2.5c1.8-0.9,3.3-1.8,4.4-2.5
		c1.2-0.8,2.2-1.2,3.1-1.2c1.1,0,2,0.4,2.6,1.3l3.8,4.9c-1.7,2-3.7,3.8-6,5.3c-2.3,1.5-4.8,2.7-7.5,3.7c-2.7,1-5.4,1.7-8.2,2.2
		c-2.8,0.5-5.7,0.7-8.4,0.7c-5.3,0-10.2-0.9-14.7-2.7c-4.5-1.8-8.4-4.4-11.6-7.9c-3.3-3.5-5.8-7.8-7.6-12.9
		c-1.8-5.1-2.7-11-2.7-17.6c0-5.4,0.8-10.4,2.5-15c1.6-4.7,4-8.7,7.1-12.1c3.1-3.4,6.9-6.1,11.3-8.1
		C915,395.2,920,394.2,925.6,394.2z M925.9,404.2c-6.5,0-11.7,1.9-15.4,5.7c-3.8,3.8-6.1,9-7,15.7h41.9c0-3.1-0.4-6-1.3-8.6
		c-0.9-2.6-2.1-4.9-3.8-6.8c-1.7-1.9-3.7-3.4-6.1-4.4C931.7,404.7,929,404.2,925.9,404.2z"/>
	<path class="st6" d="M1017.3,408.2c-0.6,1.1-1.5,1.7-2.8,1.7c-0.8,0-1.6-0.3-2.6-0.8c-1-0.6-2.1-1.2-3.5-1.9
		c-1.4-0.7-3.1-1.3-5-1.9c-1.9-0.6-4.2-0.9-6.8-0.9c-2.3,0-4.3,0.3-6.2,0.9c-1.8,0.6-3.4,1.4-4.7,2.4c-1.3,1-2.3,2.2-3,3.5
		c-0.7,1.3-1,2.8-1,4.4c0,2,0.6,3.6,1.7,4.9c1.1,1.3,2.6,2.5,4.5,3.4c1.9,1,4,1.8,6.4,2.5c2.4,0.7,4.8,1.5,7.3,2.4
		c2.5,0.8,5,1.8,7.3,2.8c2.4,1,4.5,2.3,6.4,3.8c1.9,1.5,3.4,3.4,4.5,5.6c1.1,2.2,1.7,4.9,1.7,7.9c0,3.5-0.6,6.8-1.9,9.8
		c-1.3,3-3.1,5.6-5.6,7.8c-2.5,2.2-5.5,3.9-9.1,5.2c-3.6,1.3-7.8,1.9-12.5,1.9c-5.4,0-10.2-0.9-14.6-2.6c-4.4-1.7-8.1-4-11.1-6.7
		l3.2-5.2c0.4-0.7,0.9-1.2,1.4-1.5c0.6-0.4,1.3-0.5,2.2-0.5c0.9,0,1.9,0.4,2.9,1.1c1,0.7,2.2,1.5,3.7,2.4c1.4,0.9,3.2,1.6,5.2,2.4
		c2.1,0.7,4.6,1.1,7.7,1.1c2.6,0,4.9-0.3,6.9-1c2-0.7,3.6-1.6,4.9-2.8c1.3-1.2,2.3-2.5,2.9-4c0.6-1.5,1-3.1,1-4.9
		c0-2.1-0.6-3.9-1.7-5.3c-1.1-1.4-2.6-2.6-4.5-3.6c-1.9-1-4-1.8-6.4-2.6c-2.4-0.7-4.9-1.5-7.4-2.3c-2.5-0.8-5-1.7-7.4-2.8
		c-2.4-1-4.5-2.3-6.4-3.9c-1.9-1.6-3.4-3.5-4.5-5.8c-1.1-2.3-1.7-5.1-1.7-8.4c0-2.9,0.6-5.8,1.8-8.5c1.2-2.7,3-5.1,5.3-7.1
		c2.3-2.1,5.2-3.7,8.6-4.9c3.4-1.2,7.3-1.8,11.6-1.8c5.1,0,9.6,0.8,13.6,2.4c4,1.6,7.5,3.8,10.4,6.6L1017.3,408.2z"/>
	<path class="st6" d="M1081.8,408.2c-0.6,1.1-1.5,1.7-2.8,1.7c-0.8,0-1.6-0.3-2.6-0.8c-1-0.6-2.1-1.2-3.5-1.9
		c-1.4-0.7-3.1-1.3-5-1.9c-1.9-0.6-4.2-0.9-6.8-0.9c-2.3,0-4.3,0.3-6.2,0.9c-1.8,0.6-3.4,1.4-4.7,2.4c-1.3,1-2.3,2.2-3,3.5
		c-0.7,1.3-1,2.8-1,4.4c0,2,0.6,3.6,1.7,4.9c1.1,1.3,2.6,2.5,4.5,3.4c1.9,1,4,1.8,6.4,2.5c2.4,0.7,4.8,1.5,7.3,2.4s5,1.8,7.3,2.8
		c2.4,1,4.5,2.3,6.4,3.8c1.9,1.5,3.4,3.4,4.5,5.6s1.7,4.9,1.7,7.9c0,3.5-0.6,6.8-1.9,9.8c-1.3,3-3.1,5.6-5.6,7.8s-5.5,3.9-9.1,5.2
		c-3.6,1.3-7.8,1.9-12.5,1.9c-5.4,0-10.2-0.9-14.6-2.6s-8.1-4-11.1-6.7l3.2-5.2c0.4-0.7,0.9-1.2,1.4-1.5c0.6-0.4,1.3-0.5,2.2-0.5
		s1.9,0.4,2.9,1.1c1,0.7,2.2,1.5,3.7,2.4c1.4,0.9,3.2,1.6,5.2,2.4c2.1,0.7,4.6,1.1,7.7,1.1c2.6,0,4.9-0.3,6.9-1
		c2-0.7,3.6-1.6,4.9-2.8c1.3-1.2,2.3-2.5,2.9-4c0.6-1.5,0.9-3.1,0.9-4.9c0-2.1-0.6-3.9-1.7-5.3c-1.1-1.4-2.6-2.6-4.5-3.6
		c-1.9-1-4-1.8-6.4-2.6s-4.9-1.5-7.4-2.3c-2.5-0.8-5-1.7-7.4-2.8c-2.4-1-4.5-2.3-6.4-3.9c-1.9-1.6-3.4-3.5-4.5-5.8
		c-1.1-2.3-1.7-5.1-1.7-8.4c0-2.9,0.6-5.8,1.8-8.5c1.2-2.7,3-5.1,5.3-7.1c2.3-2.1,5.2-3.7,8.6-4.9s7.3-1.8,11.6-1.8
		c5.1,0,9.6,0.8,13.6,2.4c4,1.6,7.5,3.8,10.5,6.6L1081.8,408.2z"/>
	<path class="st6" d="M1132.6,394.2c4.6,0,8.9,0.8,12.8,2.3c3.9,1.5,7.3,3.8,10.1,6.7c2.8,2.9,5.1,6.5,6.6,10.8
		c1.6,4.3,2.4,9.2,2.4,14.6c0,2.1-0.2,3.5-0.7,4.3c-0.5,0.7-1.3,1.1-2.6,1.1H1110c0.1,4.9,0.8,9.1,2,12.7s2.9,6.6,5,9
		c2.1,2.4,4.7,4.2,7.6,5.4c2.9,1.2,6.2,1.8,9.9,1.8c3.4,0,6.3-0.4,8.8-1.2c2.5-0.8,4.6-1.6,6.3-2.5s3.3-1.8,4.4-2.5
		c1.2-0.8,2.2-1.2,3.1-1.2c1.1,0,2,0.4,2.6,1.3l3.8,4.9c-1.7,2-3.7,3.8-6,5.3c-2.3,1.5-4.8,2.7-7.5,3.7c-2.7,1-5.4,1.7-8.2,2.2
		c-2.8,0.5-5.6,0.7-8.4,0.7c-5.3,0-10.2-0.9-14.7-2.7s-8.4-4.4-11.6-7.9c-3.3-3.5-5.8-7.8-7.6-12.9c-1.8-5.1-2.7-11-2.7-17.6
		c0-5.4,0.8-10.4,2.5-15c1.6-4.7,4-8.7,7.1-12.1c3.1-3.4,6.9-6.1,11.3-8.1C1122,395.2,1127,394.2,1132.6,394.2z M1132.9,404.2
		c-6.5,0-11.7,1.9-15.4,5.7c-3.8,3.8-6.1,9-7,15.7h41.9c0-3.1-0.4-6-1.3-8.6c-0.9-2.6-2.1-4.9-3.8-6.8c-1.7-1.9-3.7-3.4-6.1-4.4
		C1138.8,404.7,1136,404.2,1132.9,404.2z"/>
	<path class="st6" d="M1180.3,472.5v-77h8.1c1.9,0,3.1,0.9,3.6,2.8l1.1,8.4c3.3-3.7,7.1-6.7,11.2-9c4.1-2.3,8.9-3.4,14.3-3.4
		c4.2,0,7.9,0.7,11.1,2.1c3.2,1.4,5.9,3.4,8.1,5.9c2.2,2.6,3.8,5.6,4.9,9.2c1.1,3.6,1.7,7.6,1.7,11.9v49h-13.5v-49
		c0-5.8-1.3-10.3-4-13.6c-2.7-3.2-6.7-4.8-12.2-4.8c-4,0-7.7,1-11.2,2.9c-3.5,1.9-6.7,4.5-9.6,7.8v56.7H1180.3z"/>
	<path class="st6" d="M1286.6,473.7c-6.1,0-10.8-1.7-14-5.1c-3.3-3.4-4.9-8.3-4.9-14.7v-47.1h-9.3c-0.8,0-1.5-0.2-2.1-0.7
		c-0.6-0.5-0.8-1.2-0.8-2.2v-5.4l12.6-1.6l3.1-23.8c0.1-0.8,0.4-1.4,1-1.9c0.6-0.5,1.3-0.7,2.1-0.7h6.8V397h22v9.8h-22V453
		c0,3.2,0.8,5.7,2.4,7.2c1.6,1.6,3.6,2.4,6.1,2.4c1.4,0,2.6-0.2,3.7-0.6c1-0.4,1.9-0.8,2.7-1.3c0.8-0.5,1.4-0.9,1.9-1.3
		c0.5-0.4,1-0.6,1.4-0.6c0.7,0,1.3,0.4,1.9,1.3l4,6.5c-2.3,2.2-5.1,3.9-8.4,5.1C1293.5,473,1290.1,473.7,1286.6,473.7z"/>
	<path class="st6" d="M1336.5,371.3c0,1.3-0.3,2.5-0.8,3.7c-0.5,1.1-1.2,2.2-2.1,3c-0.9,0.9-1.9,1.6-3.1,2.1
		c-1.2,0.5-2.4,0.8-3.7,0.8c-1.3,0-2.5-0.3-3.7-0.8c-1.1-0.5-2.2-1.2-3-2.1c-0.9-0.9-1.6-1.9-2.1-3c-0.5-1.1-0.8-2.4-0.8-3.7
		c0-1.3,0.3-2.6,0.8-3.8c0.5-1.2,1.2-2.2,2.1-3.1c0.9-0.9,1.9-1.6,3-2.1c1.1-0.5,2.4-0.8,3.7-0.8c1.3,0,2.6,0.3,3.7,0.8
		c1.2,0.5,2.2,1.2,3.1,2.1c0.9,0.9,1.6,1.9,2.1,3.1C1336.2,368.7,1336.5,370,1336.5,371.3z M1333.5,395.5v77h-13.5v-77H1333.5z"/>
	<path class="st6" d="M1386.3,394.2c4.6,0,8.9,0.8,12.8,2.3c3.9,1.5,7.3,3.8,10.1,6.7c2.8,2.9,5.1,6.5,6.7,10.8
		c1.6,4.3,2.4,9.2,2.4,14.6c0,2.1-0.2,3.5-0.7,4.3c-0.5,0.7-1.3,1.1-2.6,1.1h-51.2c0.1,4.9,0.8,9.1,2,12.7c1.2,3.6,2.9,6.6,5,9
		c2.1,2.4,4.7,4.2,7.6,5.4c2.9,1.2,6.2,1.8,9.9,1.8c3.4,0,6.3-0.4,8.8-1.2c2.5-0.8,4.6-1.6,6.3-2.5s3.3-1.8,4.4-2.5
		c1.2-0.8,2.2-1.2,3.1-1.2c1.1,0,2,0.4,2.6,1.3l3.8,4.9c-1.7,2-3.7,3.8-6,5.3c-2.3,1.5-4.8,2.7-7.5,3.7c-2.7,1-5.4,1.7-8.2,2.2
		c-2.8,0.5-5.7,0.7-8.4,0.7c-5.3,0-10.2-0.9-14.7-2.7s-8.4-4.4-11.6-7.9c-3.3-3.5-5.8-7.8-7.6-12.9c-1.8-5.1-2.7-11-2.7-17.6
		c0-5.4,0.8-10.4,2.5-15c1.6-4.7,4-8.7,7.1-12.1s6.9-6.1,11.3-8.1C1375.7,395.2,1380.7,394.2,1386.3,394.2z M1386.6,404.2
		c-6.5,0-11.7,1.9-15.4,5.7c-3.8,3.8-6.1,9-7,15.7h41.9c0-3.1-0.4-6-1.3-8.6s-2.1-4.9-3.8-6.8c-1.7-1.9-3.7-3.4-6.1-4.4
		C1392.4,404.7,1389.7,404.2,1386.6,404.2z"/>
</g>
</svg>
