<svg xmlns="http://www.w3.org/2000/svg" xmlns:xlink="http://www.w3.org/1999/xlink" viewBox="0 0 263 54.99"><defs><style>.cls-1{fill:url(#Dégradé_sans_nom_22);}.cls-2{opacity:0.8;}.cls-3{fill:#fff;}.cls-4{fill:none;stroke:#fff;stroke-miterlimit:10;stroke-width:0.27px;}</style><linearGradient id="Dégradé_sans_nom_22" x1="118.18" y1="-205.05" x2="30.78" y2="-53.67" gradientTransform="translate(216.8 -93.12) rotate(180)" gradientUnits="userSpaceOnUse"><stop offset="0" stop-color="#e6215a"/><stop offset="0.01" stop-color="#dc215b"/><stop offset="0.07" stop-color="#b0235f"/><stop offset="0.13" stop-color="#8b2462"/><stop offset="0.19" stop-color="#6c2565"/><stop offset="0.26" stop-color="#542667"/><stop offset="0.33" stop-color="#432769"/><stop offset="0.41" stop-color="#39276a"/><stop offset="0.5" stop-color="#36276a"/><stop offset="0.62" stop-color="#352a6d"/><stop offset="0.71" stop-color="#303474"/><stop offset="0.8" stop-color="#294582"/><stop offset="0.88" stop-color="#1e5d95"/><stop offset="0.95" stop-color="#117bad"/><stop offset="1" stop-color="#0792bf"/></linearGradient></defs><g id="Calque_2" data-name="Calque 2"><g id="V2_Pieds" data-name="V2 Pieds"><path class="cls-1" d="M263,55V5C158-14,152.32,27.86,100.82,21.2,45,14,15.45,43.51,0,55Z"/><g class="cls-2"><path class="cls-3" d="M68.83,24.38a.7.7,0,0,0-.23-.08,1,1,0,0,0-.53-.35,1.24,1.24,0,0,0-1.1.32c-.72.65-.66,1.79-.69,2.67a48.25,48.25,0,0,0,.35,6.13c.21,2,.44,4.07.49,6.12a26.9,26.9,0,0,1-.06,3,8.81,8.81,0,0,1-.44,2.55,2.12,2.12,0,0,1-.63.93,1.17,1.17,0,0,1-.46.23.82.82,0,0,0,.22-.56.78.78,0,0,0-1-.79,1,1,0,0,0-.75,1.14,1.21,1.21,0,0,0,1.21.91,2.26,2.26,0,0,0,2-1.77,7.59,7.59,0,0,0,.28-1.42c.08-.61.13-1.22.16-1.84a34.21,34.21,0,0,0,0-3.65c-.14-2.46-.46-4.91-.63-7.37-.08-1.23-.13-2.46-.12-3.7a5.35,5.35,0,0,1,.18-1.74c.13-.38.49-.78.93-.68h0a.83.83,0,0,0-.29.37.94.94,0,0,0-.06.55c0,.22.21.5.46.48h.06a.7.7,0,0,0,.32.06.82.82,0,0,0,.78-.56A.83.83,0,0,0,68.83,24.38ZM65,45.3h0C64.87,45.24,65,45.29,65,45.3Z"/><path class="cls-3" d="M72.26,37c-.28-.23-.61-.42-.89-.67s-.38-.33-.55-.5a7.17,7.17,0,0,0,.47-.86c.06-.12.44-1,.12-1-.15,0-.24.17-.31.28s-.21.33-.31.49-.26.4-.4.59c-.19-.2-.37-.42-.55-.64s-.23-.3-.35-.44-.24-.27-.38-.15,0,.33,0,.47a4.82,4.82,0,0,0,.27.5,7.06,7.06,0,0,0,.57.78,8,8,0,0,1-.55.61q-.21.21-.42.39a3.79,3.79,0,0,0-.38.32.2.2,0,0,0-.06.09h0c-.1.21,0,.55.34.47a1.44,1.44,0,0,0,.53-.38l.44-.42a7.84,7.84,0,0,0,.54-.61c.15.15.31.3.48.44a4.89,4.89,0,0,0,.94.7.35.35,0,0,0,.43-.07A.33.33,0,0,0,72.26,37Z"/><path class="cls-3" d="M73.7,31.06c-.2-.21-.61-.15-.88-.12a1.23,1.23,0,0,0-.57.16c0-.06-.16-.09-.2,0a2,2,0,0,0-.11.54l-.06.6c0,.21.25.28.39.17a.32.32,0,0,1,.54.21.3.3,0,0,1-.18.29.25.25,0,0,1-.17,0l-.08,0a.37.37,0,0,0-.18,0c-.2,0-.22.28-.11.41s.62.12.83,0a.76.76,0,0,0,.34-.75.78.78,0,0,0-.93-.66v-.2a1.62,1.62,0,0,1,0-.22,2.27,2.27,0,0,0,.52,0,2.17,2.17,0,0,1,.36,0,.66.66,0,0,0,.44,0A.26.26,0,0,0,73.7,31.06Z"/><path class="cls-3" d="M75.88,33.35l-.06-1.86c0-.61,0-1.22-.12-1.83,0-.15-.25-.1-.26,0-.06.62-.06,1.24-.07,1.86s0,1.21,0,1.82v1l-.14-.11a1.49,1.49,0,0,0-.79-.26,1.64,1.64,0,0,0-1.49.88,2,2,0,0,0,0,1.85,1.77,1.77,0,0,0,1.49,1,1.68,1.68,0,0,0,1-.28,1.1,1.1,0,0,0,.18-.14.27.27,0,0,0,.44-.22C76,35.83,75.92,34.59,75.88,33.35ZM75,36.81a1.13,1.13,0,0,1-.49.2,1,1,0,0,1-.94-.49,1.39,1.39,0,0,1-.14-1.21,1.1,1.1,0,0,1,.85-.75,1,1,0,0,1,.56.09,2.44,2.44,0,0,1,.5.4c0,.46,0,.93,0,1.39C75.23,36.54,75.15,36.7,75,36.81Z"/><path class="cls-3" d="M79.45,36.57a6.3,6.3,0,0,0-.84-.48l-.43-.31A3.86,3.86,0,0,0,78.81,34a.07.07,0,0,0-.13,0c-.33.48-.58,1-.93,1.5-.18-.17-.35-.35-.52-.53s-.21-.24-.32-.35a1.48,1.48,0,0,0-.33-.33.13.13,0,0,0-.2.11,1.06,1.06,0,0,0,.13.45,3.7,3.7,0,0,0,.25.43,5.21,5.21,0,0,0,.6.72l-.2.24c-.21.24-.47.44-.68.67a.31.31,0,0,0,0,.4.29.29,0,0,0,.39.09,3.67,3.67,0,0,0,.72-.7,3.76,3.76,0,0,0,.25-.31,4.37,4.37,0,0,0,.44.31,2.37,2.37,0,0,0,1,.47A.32.32,0,0,0,79.45,36.57Z"/><path class="cls-3" d="M82,34.67a5,5,0,0,0-1.08-.12c-.25,0-.79,0-.93.24a.14.14,0,0,0,0,.15.56.56,0,0,0,.41.15l.49,0c.33,0,.66.09,1,.13S82.28,34.75,82,34.67Z"/><path class="cls-3" d="M82.23,35.72a.28.28,0,0,0-.31-.14l-.06,0c-.25,0-.51,0-.77,0a2.15,2.15,0,0,0-.83.1.2.2,0,0,0,0,.34,2.08,2.08,0,0,0,.82.18l.86.07a.34.34,0,0,0,.34-.32A.59.59,0,0,0,82.23,35.72Z"/><path class="cls-3" d="M89.11,33.69a1.68,1.68,0,0,1-.65-.62l-.71-1-.23-.29c.12-.2.23-.41.34-.62l.24-.55a1.48,1.48,0,0,0,.18-.61.14.14,0,0,0-.23-.1,1.69,1.69,0,0,0-.32.51l-.3.5c-.08.14-.17.28-.26.42L87,31.2c-.12-.15-.24-.31-.37-.46a2,2,0,0,0-.42-.44.18.18,0,0,0-.27.2,2.1,2.1,0,0,0,.29.53l.36.52.22.32-.08.11a11.22,11.22,0,0,1-.73.94c-.14.15-.27.3-.41.44s-.39.31-.38.55a.27.27,0,0,0,.26.26c.24,0,.39-.21.53-.37a6.27,6.27,0,0,0,.42-.48,9.83,9.83,0,0,0,.73-1l.16.22.73,1a1.5,1.5,0,0,0,.79.68.31.31,0,0,0,.37-.17A.3.3,0,0,0,89.11,33.69Z"/><path class="cls-3" d="M90.7,28.31a1,1,0,0,0-1,.24l-.13.17a1.08,1.08,0,0,1,0-.18,1,1,0,0,1,.33-.59,1.61,1.61,0,0,1,.3-.21c.11,0,.23-.06.34-.12a.13.13,0,0,0,0-.22,1,1,0,0,0-.81.12,1.44,1.44,0,0,0-.22,2.31,1.17,1.17,0,0,0,1.63,0A1,1,0,0,0,90.7,28.31Zm0,1.13a.5.5,0,0,1-.5.11.68.68,0,0,1-.27-.13c.06-.17.1-.37.25-.47a.38.38,0,0,1,.5.05A.36.36,0,0,1,90.72,29.44Z"/><path class="cls-3" d="M91.87,35.1c-.22-.18-.53-.12-.81-.11l-.83,0-1.66,0c-1.12,0-2.24.05-3.35.09l-.93,0a2.77,2.77,0,0,0-.91.17.15.15,0,0,0,0,.27,2.75,2.75,0,0,0,1,.12c.35,0,.71,0,1.06,0l2.13,0,2.12,0,1.07,0h.53a.71.71,0,0,0,.51-.14A.26.26,0,0,0,91.87,35.1Z"/><path class="cls-3" d="M88.58,38.13a1.72,1.72,0,0,0-1.61.28,1.3,1.3,0,0,0-.45,1,.83.83,0,0,1-.11-.15,1.48,1.48,0,0,1,.06-1.67,1.75,1.75,0,0,1,1.92-.43.12.12,0,0,0,.12-.2.83.83,0,0,0-.23-.19,1.08,1.08,0,0,0-.3-.11,2,2,0,0,0-1.82.47,2,2,0,0,0,2.25,3.18,1.48,1.48,0,0,0,.91-1A1,1,0,0,0,88.58,38.13Zm.1,1.11a1,1,0,0,1-.65.56,1.71,1.71,0,0,1-.87,0,.29.29,0,0,0,0-.09c0-.32-.08-.62.21-.85a1.11,1.11,0,0,1,.92-.17C88.56,38.78,88.78,39,88.68,39.24Z"/><path class="cls-3" d="M96.42,35.34l-1.55,0c0-.24-.05-.48-.07-.73s0-.57-.22-.7h0a.37.37,0,0,0-.14.33c0,.14,0,.29,0,.43s0,.46,0,.69c-.32,0-.63,0-.94,0-.15,0-.79,0-.69.3s.55.22.78.23.57,0,.85,0l0,1.25c0,.39.63.4.61,0S95,36.41,94.93,36c.49,0,1,0,1.48,0A.32.32,0,0,0,96.42,35.34Z"/><path class="cls-3" d="M102.67,36.59a.36.36,0,0,0-.49.12,2.26,2.26,0,0,1-1.74,1.11A2.31,2.31,0,0,1,98.55,37,2.46,2.46,0,0,1,98,34.9,2.77,2.77,0,0,1,99.42,33a3.33,3.33,0,0,1,1.23-.38,1.32,1.32,0,0,1,1.09.29.18.18,0,0,0,.3-.17c-.29-.93-1.72-.75-2.42-.5a3.45,3.45,0,0,0-2.12,2,3.18,3.18,0,0,0,.26,2.86,3.08,3.08,0,0,0,2.35,1.42,2.88,2.88,0,0,0,2.68-1.47A.36.36,0,0,0,102.67,36.59Z"/></g><path class="cls-4" d="M117.52,33.78l5.93,12.43a.92.92,0,0,0,1.53.21l24.15-27.75a.36.36,0,0,0-.43-.57L117.86,32.82A.72.72,0,0,0,117.52,33.78Zm5.71.65a.27.27,0,0,1,.13-.35l11.15-5.32a.14.14,0,0,1,.16.21l-8.74,10a.33.33,0,0,1-.55-.07Z"/><rect class="cls-3" x="146.07" y="19.42" width="0.18" height="1.82" transform="translate(286.81 -24.28) rotate(154.49)"/><rect class="cls-3" x="144.13" y="20.34" width="0.18" height="1.82" transform="translate(283.52 -21.69) rotate(154.48)"/><rect class="cls-3" x="144.92" y="19.92" width="0.18" height="1.02" transform="translate(284.67 -23.59) rotate(154.48)"/><rect class="cls-3" x="143.02" y="20.83" width="0.18" height="1.02" transform="translate(281.45 -21.06) rotate(154.48)"/><rect class="cls-3" x="142.2" y="21.26" width="0.18" height="1.82" transform="translate(280.25 -19.1) rotate(154.49)"/><rect class="cls-3" x="140.26" y="22.19" width="0.18" height="1.82" transform="translate(276.96 -16.51) rotate(154.48)"/><rect class="cls-3" x="141.05" y="21.77" width="0.18" height="1.02" transform="translate(278.1 -18.41) rotate(154.48)"/><rect class="cls-3" x="139.16" y="22.67" width="0.18" height="1.02" transform="translate(274.89 -15.88) rotate(154.48)"/><rect class="cls-3" x="138.38" y="23.09" width="0.18" height="1.82" transform="translate(273.76 -13.98) rotate(154.49)"/><rect class="cls-3" x="136.44" y="24.01" width="0.18" height="1.82" transform="translate(270.47 -11.4) rotate(154.48)"/><rect class="cls-3" x="137.23" y="23.59" width="0.18" height="1.02" transform="translate(271.62 -13.3) rotate(154.48)"/><rect class="cls-3" x="135.33" y="24.5" width="0.18" height="1.02" transform="translate(268.41 -10.76) rotate(154.48)"/><rect class="cls-3" x="134.51" y="24.93" width="0.18" height="1.82" transform="translate(267.2 -8.81) rotate(154.48)"/><rect class="cls-3" x="132.57" y="25.86" width="0.18" height="1.82" transform="translate(263.91 -6.22) rotate(154.48)"/><rect class="cls-3" x="133.36" y="25.44" width="0.18" height="1.02" transform="translate(265.06 -8.12) rotate(154.48)"/><rect class="cls-3" x="131.47" y="26.34" width="0.18" height="1.02" transform="translate(261.84 -5.59) rotate(154.48)"/><rect class="cls-3" x="130.64" y="26.78" width="0.18" height="1.82" transform="translate(260.63 -3.63) rotate(154.48)"/><rect class="cls-3" x="128.7" y="27.71" width="0.18" height="1.82" transform="translate(257.34 -1.03) rotate(154.49)"/><rect class="cls-3" x="129.49" y="27.29" width="0.18" height="1.02" transform="translate(258.49 -2.93) rotate(154.49)"/><rect class="cls-3" x="127.6" y="28.19" width="0.18" height="1.02" transform="translate(255.28 -0.4) rotate(154.49)"/><rect class="cls-3" x="126.77" y="28.63" width="0.18" height="1.82" transform="translate(254.07 1.55) rotate(154.48)"/><rect class="cls-3" x="124.83" y="29.55" width="0.18" height="1.82" transform="translate(250.78 4.15) rotate(154.49)"/><rect class="cls-3" x="125.62" y="29.13" width="0.18" height="1.02" transform="translate(251.93 2.24) rotate(154.49)"/><rect class="cls-3" x="123.73" y="30.04" width="0.18" height="1.02" transform="translate(248.72 4.78) rotate(154.49)"/><rect class="cls-3" x="122.88" y="30.49" width="0.18" height="1.82" transform="translate(247.46 6.77) rotate(154.49)"/><rect class="cls-3" x="121.77" y="30.97" width="0.18" height="1.02" transform="translate(245.39 7.4) rotate(154.49)"/><rect class="cls-3" x="120.95" y="31.41" width="0.18" height="1.82" transform="translate(244.19 9.35) rotate(154.49)"/><rect class="cls-3" x="119.01" y="32.33" width="0.18" height="1.82" transform="translate(240.9 11.94) rotate(154.48)"/><rect class="cls-3" x="119.8" y="31.91" width="0.18" height="1.02" transform="translate(242.05 10.04) rotate(154.48)"/><rect class="cls-3" x="117.9" y="32.82" width="0.18" height="1.02" transform="translate(238.83 12.57) rotate(154.48)"/></g></g></svg>