<svg xmlns="http://www.w3.org/2000/svg" xmlns:xlink="http://www.w3.org/1999/xlink" viewBox="0 0 256 78.31"><defs><style>.cls-1{fill:url(#Degrade_sans_nom_22);}.cls-2,.cls-4{opacity:0.8;}.cls-3,.cls-4,.cls-5{fill:#fff;}.cls-5{opacity:0.5;}</style><linearGradient id="Degrade_sans_nom_22" x1="90.06" y1="-26.71" x2="151.16" y2="79.11" gradientUnits="userSpaceOnUse"><stop offset="0" stop-color="#e6215a"/><stop offset="0.01" stop-color="#dc215b"/><stop offset="0.07" stop-color="#b0235f"/><stop offset="0.13" stop-color="#8b2462"/><stop offset="0.19" stop-color="#6c2565"/><stop offset="0.26" stop-color="#542667"/><stop offset="0.33" stop-color="#432769"/><stop offset="0.41" stop-color="#39276a"/><stop offset="0.5" stop-color="#36276a"/><stop offset="0.62" stop-color="#352a6d"/><stop offset="0.71" stop-color="#303474"/><stop offset="0.8" stop-color="#294582"/><stop offset="0.88" stop-color="#1e5d95"/><stop offset="0.95" stop-color="#117bad"/><stop offset="1" stop-color="#0792bf"/></linearGradient></defs><g id="Calque_2" data-name="Calque 2"><g id="V2_Entête" data-name="V2 Entête"><path class="cls-1" d="M0,0V78l14.46.31c44.05.37,58.75-25,109.56-25.76C176.54,51.8,242.74,43.18,252.9,14L256,0Z"/><g class="cls-2"><path class="cls-3" d="M26.59,72.93l-.4.32s-2.71-1.62-3.08-3.79,1-5.89.51-7.73-2.48-2.33-5.16-1.54-3.72.43-4.79-.39a12.88,12.88,0,0,1-2.05-2.12l.56-.46s1.58,2.4,2.8,2.63c2.4.34,4.28-1.24,6.74-.58s2.87,2.14,2.61,4.72-1,3.69-.35,5.88A5.35,5.35,0,0,0,26.59,72.93Z"/><path class="cls-4" d="M29.47,70.59l.39-.32s-1-3-3.08-3.79-6-.18-7.68-1.07-1.78-2.9-.46-5.37,1.17-3.55.58-4.77a12.73,12.73,0,0,0-1.66-2.43l-.55.45s2,2,2,3.27c-.16,2.43-2.08,3.94-1.94,6.49s1.52,3.25,4.09,3.51,3.84-.27,5.84.86A5.34,5.34,0,0,1,29.47,70.59Z"/><path class="cls-5" d="M29.32,70.13l-3.15,2.56a4.14,4.14,0,0,0,.42.24l3.17-2.58h0l-.29.24A3.44,3.44,0,0,0,29.32,70.13Z"/><path class="cls-5" d="M28.77,69.07l-3.53,2.87.34.31L29,69.46A4,4,0,0,0,28.77,69.07Z"/><path class="cls-5" d="M28.12,68.27l-3.53,2.87c.09.13.17.25.26.36l3.57-2.9Z"/><path class="cls-5" d="M27.27,67.58l-3.18,2.59c.06.15.12.29.19.43l3.37-2.75Z"/><path class="cls-5" d="M26.24,67.05l-2.46,2c0,.16.07.32.11.49l2.81-2.28Z"/><path class="cls-5" d="M23.73,63.05l-3.36,2.74.61.08,2.71-2.2C23.71,63.45,23.72,63.25,23.73,63.05Z"/><path class="cls-5" d="M19.81,59.89l-1.74,1.42c-.09.26-.16.51-.22.75l2.75-2.23A5.46,5.46,0,0,0,19.81,59.89Z"/><path class="cls-5" d="M18.79,57.75l-2.61,2.12a6.44,6.44,0,0,0,.88-.13l1.42-1.16A7.46,7.46,0,0,0,18.79,57.75Z"/><path class="cls-5" d="M19,56.56a1.37,1.37,0,0,0,0-.28L14.7,59.77a1,1,0,0,0,.28.08,1.36,1.36,0,0,0,.29,0l3.71-3A1.53,1.53,0,0,0,19,56.56Z"/><path class="cls-5" d="M18.58,55.3l-4.76,3.87.36.29,4.61-3.76A3.84,3.84,0,0,0,18.58,55.3Z"/><path class="cls-5" d="M18,54.45l-4.9,4c.09.11.2.22.3.33l4.86-4Z"/><path class="cls-5" d="M17.53,53.87l-4.9,4,.28.35,4.91-4Z"/><path class="cls-5" d="M12.44,57.59l4.87-4c-.18-.21-.3-.33-.3-.33l.12-.1h0l-5,4.1h0l.08-.07A4.26,4.26,0,0,0,12.44,57.59Z"/><path class="cls-5" d="M23.65,61.87l-4.42,3.6a3.12,3.12,0,0,0,.49.18l4-3.27A3.89,3.89,0,0,0,23.65,61.87Z"/><path class="cls-5" d="M21.34,59.87l-3.6,2.93a3.57,3.57,0,0,0,0,.57L21.9,60A5.05,5.05,0,0,0,21.34,59.87Z"/><path class="cls-5" d="M23.22,60.9l-4.85,3.95a2.43,2.43,0,0,0,.34.3l4.74-3.85A3.81,3.81,0,0,0,23.22,60.9Z"/><path class="cls-5" d="M22.44,60.22,17.86,64a2.77,2.77,0,0,0,.18.43l4.79-3.89A2.7,2.7,0,0,0,22.44,60.22Z"/><path class="cls-5" d="M23.62,64.22l-2.08,1.69.67,0,1.31-1.07C23.56,64.66,23.59,64.44,23.62,64.22Z"/><path class="cls-5" d="M25,66.73l-1.3,1.06a3.85,3.85,0,0,0,0,.59l1.88-1.54A5.72,5.72,0,0,0,25,66.73Z"/></g><circle class="cls-3" cx="155.57" cy="19.48" r="0.53"/><circle class="cls-3" cx="161.61" cy="19.59" r="0.53"/><circle class="cls-3" cx="164.19" cy="26.24" r="0.53"/><circle class="cls-3" cx="167.27" cy="32.52" r="0.53"/><circle class="cls-3" cx="178.21" cy="39.33" r="0.53"/><circle class="cls-3" cx="172.69" cy="43.9" r="0.53"/><circle class="cls-3" cx="165.1" cy="38.61" r="0.53"/><polygon class="cls-3" points="165.02 38.64 167.14 32.6 167.26 32.64 165.18 38.59 172.69 43.81 178.09 39.34 167.22 32.57 164.13 26.26 161.57 19.66 155.57 19.54 155.57 19.41 161.66 19.53 161.67 19.57 164.25 26.21 167.32 32.48 178.32 39.33 172.69 43.98 165.02 38.64"/><path class="cls-3" d="M189.29,33.77a.26.26,0,0,1-.36,0,.25.25,0,0,1,.31-.39A.25.25,0,0,1,189.29,33.77Z"/><path class="cls-3" d="M179.27,27.59a.26.26,0,0,1-.35.05.25.25,0,1,1,.31-.4A.25.25,0,0,1,179.27,27.59Z"/><path class="cls-3" d="M178.11,26.34a.25.25,0,1,1,0-.35A.24.24,0,0,1,178.11,26.34Z"/><path class="cls-3" d="M175.84,28.87a.26.26,0,0,1-.36,0,.25.25,0,0,1,0-.35.24.24,0,0,1,.35,0A.25.25,0,0,1,175.84,28.87Z"/><path class="cls-3" d="M177.85,35.49a.25.25,0,0,1-.39-.31.25.25,0,0,1,.35,0A.26.26,0,0,1,177.85,35.49Z"/><path class="cls-3" d="M172.39,27.72a.25.25,0,1,1,0-.35A.24.24,0,0,1,172.39,27.72Z"/><path class="cls-3" d="M171.17,30.1a.25.25,0,0,1-.4-.31.25.25,0,1,1,.4.31Z"/><path class="cls-3" d="M171.31,21.77a.25.25,0,1,1,0-.35A.24.24,0,0,1,171.31,21.77Z"/><path class="cls-3" d="M191.88,35.48a.26.26,0,0,1-.36,0,.25.25,0,0,1,.31-.39A.25.25,0,0,1,191.88,35.48Z"/><path class="cls-3" d="M190,36.79a.25.25,0,1,1,0-.37A.26.26,0,0,1,190,36.79Z"/><path class="cls-3" d="M188.8,35.83a.27.27,0,0,1-.37.07.28.28,0,0,1,0-.38.27.27,0,0,1,.37-.06A.27.27,0,0,1,188.8,35.83Z"/><path class="cls-3" d="M185.4,37a.26.26,0,0,1-.36.07.28.28,0,0,1,.34-.44A.26.26,0,0,1,185.4,37Z"/><path class="cls-3" d="M182.68,38.51a.25.25,0,1,1,0-.37A.26.26,0,0,1,182.68,38.51Z"/><path class="cls-3" d="M184.82,41.52a.27.27,0,0,1-.37.07.28.28,0,0,1,0-.38.27.27,0,0,1,.37-.06A.27.27,0,0,1,184.82,41.52Z"/><path class="cls-3" d="M186.15,32.33a.25.25,0,1,1,0-.38A.27.27,0,0,1,186.15,32.33Z"/><path class="cls-3" d="M184.9,32.78a.26.26,0,0,1-.37.06.27.27,0,1,1,.37-.06Z"/><polygon class="cls-3" points="185.2 36.92 185.19 36.91 175.59 28.72 177.79 26.21 177.83 26.25 175.68 28.71 185.21 36.85 188.6 35.64 189.82 36.6 191.62 35.33 189.07 33.64 186.04 32.1 184.7 32.66 179.1 27.6 177.9 26.21 171.1 21.64 171.13 21.59 177.94 26.16 179.15 27.56 184.71 32.59 186.04 32.03 189.1 33.59 191.73 35.32 189.82 36.67 188.59 35.72 185.2 36.92"/><polygon class="cls-3" points="184.59 41.37 185.18 36.89 184.67 32.63 184.73 32.62 185.24 36.89 185.24 36.89 184.65 41.37 184.59 41.37"/><rect class="cls-3" x="182.29" y="37.59" width="3.1" height="0.06" transform="translate(4.12 91.6) rotate(-28.28)"/><polygon class="cls-3" points="177.63 35.34 175.61 28.74 172.21 27.6 171 29.95 170.94 29.93 172.18 27.52 175.66 28.69 175.67 28.71 177.69 35.32 177.63 35.34"/><g class="cls-2"><path class="cls-3" d="M211.54,32.29a3.92,3.92,0,0,0-.29-.74c-.11-.24-.18-.55-.41-.7a.33.33,0,0,0-.49.28.72.72,0,0,0,.12.4l.16.34a.25.25,0,0,1,0,.07h-7c.32-.28.61-.6.9-.89L206,29.69l1.36-1.37.67-.69.3-.34a1.83,1.83,0,0,0,.21-.42.12.12,0,0,0,0-.14.24.24,0,0,0-.07-.28c-.88-.94-1.8-1.85-2.71-2.75l-1.36-1.37c-.17-.17-.34-.34-.52-.5h0l1,0h4a11.8,11.8,0,0,0,1.57,0l-.12.25a1.13,1.13,0,0,0-.19.69.31.31,0,0,0,.45.18c.21-.13.27-.39.36-.61l.24-.63a.3.3,0,0,0-.28-.38.05.05,0,0,0,0,0,7,7,0,0,0-2-.13h-2c-.66,0-1.33,0-2,0l-1,0a1.51,1.51,0,0,0-1,.19.18.18,0,0,0,0,.23.24.24,0,0,0,.06.09h0l.13.11a1.37,1.37,0,0,0,.34.45c.2.22.42.43.63.65l1.32,1.32c.87.88,1.74,1.76,2.65,2.61l-.07.05a3.27,3.27,0,0,0-.35.3l-.69.67-1.37,1.35c-.45.46-.91.91-1.37,1.36A9.21,9.21,0,0,0,202.84,32a.15.15,0,0,0,0,.11.22.22,0,0,0,0,.34,1.2,1.2,0,0,0,.36.13,3.39,3.39,0,0,0,.45,0h6.92l.11,0,.26,0H211A.31.31,0,0,0,211.54,32.29Z"/><path class="cls-3" d="M206.11,34.29c-.11-.38-.38-.79-.83-.73a1,1,0,0,0-.7.55.2.2,0,0,0-.37.08,4.29,4.29,0,0,0,0,.8v.11a2.38,2.38,0,0,0,.06.75c.06.24.46.19.44-.06l-.05-.54a2,2,0,0,1,.09-.49c.07-.23.26-.69.54-.74s.31.37.34.54a5.93,5.93,0,0,1,0,1.19.25.25,0,0,0,.19.25H206a.24.24,0,0,0,.24-.19A3.59,3.59,0,0,0,206.11,34.29Z"/><path class="cls-3" d="M208.25,34.44a1.68,1.68,0,0,0-.74,0c-.19,0-.49.1-.58.29s0,.18.06.22a1.22,1.22,0,0,0,.57,0,4.09,4.09,0,0,1,.61,0C208.49,35,208.53,34.52,208.25,34.44Z"/><path class="cls-3" d="M210.77,35.81c-.06-.78-.16-1.56-.24-2.34,0-.21-.3-.39-.46-.19s-.35.41-.51.62a2.86,2.86,0,0,0-.22.3.42.42,0,0,0-.05.34c0,.05.06.08.1.08a.4.4,0,0,0,.28-.08,1.92,1.92,0,0,0,.28-.29l.1-.12c.06.56.11,1.12.19,1.68a.27.27,0,0,0,.26.27A.26.26,0,0,0,210.77,35.81Z"/><path class="cls-3" d="M209.79,19a1.18,1.18,0,0,0-.87-.8,2.24,2.24,0,0,0-1.95.66l-.23-.12a5.32,5.32,0,0,0-.69-.3,1.48,1.48,0,0,0-1.25.07,1,1,0,0,0-.5,1,1,1,0,0,0,.79.78,2.07,2.07,0,0,0,1.79-.7,2,2,0,0,0,.41.2A5.83,5.83,0,0,0,208,20a2.18,2.18,0,0,0,1.36,0A.91.91,0,0,0,209.79,19Zm-5,.29c.06-.4.6-.45.91-.38a4,4,0,0,1,.79.35,2,2,0,0,1-1,.55C205.2,19.82,204.73,19.64,204.78,19.27Zm3.58.26a4.94,4.94,0,0,1-.78-.19l-.18-.06a.23.23,0,0,0,0-.14l0,0a2,2,0,0,1,1.12-.49c.34,0,.78.16.81.56S208.68,19.59,208.36,19.53Z"/><path class="cls-3" d="M218.86,28.39c-.05-.32-.56-.23-.57.08a.9.9,0,0,1-.94.8,2.47,2.47,0,0,1-1.6-.92c-.28-.27-.55-.56-.86-.81l0-.1a23.32,23.32,0,0,0,.76-2.46c.1-.43.2-.86.27-1.3a7.94,7.94,0,0,0,.13-1.29.12.12,0,0,0-.23,0c-.11.36-.17.72-.25,1.08s-.17.72-.26,1.08c-.18.7-.39,1.39-.62,2.07l-.24.67a1.51,1.51,0,0,0-.28-.15,2,2,0,0,0-1.77,0,1.47,1.47,0,0,0-.84,1.39,1.52,1.52,0,0,0,.93,1.29,1.4,1.4,0,0,0,1.52-.54,4.8,4.8,0,0,0,.65-1.2c.43.39.81.88,1.21,1.2a2.17,2.17,0,0,0,1.93.52A1.34,1.34,0,0,0,218.86,28.39Zm-4.93.11c-.21.4-.58.93-1.1.86a.92.92,0,0,1-.71-.95,1.08,1.08,0,0,1,.9-.93,1.48,1.48,0,0,1,1.26.28A7.12,7.12,0,0,1,213.93,28.5Z"/><path class="cls-3" d="M221.11,29.12a1,1,0,0,0-.76-.67.72.72,0,0,0-.67.25.54.54,0,0,0-.05-.11.15.15,0,0,0-.27,0,2.09,2.09,0,0,0,0,.75c0,.11,0,.21,0,.32a2.14,2.14,0,0,0,0,.52c.06.27.53.21.49-.07,0-.08,0-.16,0-.23a1.43,1.43,0,0,1,.1-.68c.07-.16.18-.34.38-.27a.53.53,0,0,1,.32.45,2.41,2.41,0,0,1,0,.38c0,.18-.06.3.07.45a.21.21,0,0,0,.27,0c.2-.12.19-.38.19-.59A1.57,1.57,0,0,0,221.11,29.12Z"/></g></g></g></svg>