<?xml version="1.0" encoding="utf-8"?>
<!-- Generator: Adobe Illustrator 22.0.1, SVG Export Plug-In . SVG Version: 6.00 Build 0)  -->
<svg version="1.1" id="Calque_1" xmlns="http://www.w3.org/2000/svg" xmlns:xlink="http://www.w3.org/1999/xlink" x="0px" y="0px"
	 viewBox="0 0 252 40.8" style="enable-background:new 0 0 252 40.8;" xml:space="preserve">
<style type="text/css">
	.st0{clip-path:url(#SVGID_2_);}
	.st1{fill:#FFFFFF;}
	.st2{fill:none;stroke:#36276A;stroke-width:0.27;stroke-miterlimit:10;}
	.st3{fill:#36276A;}
</style>
<g>
	<defs>
		<rect id="SVGID_1_" width="252" height="40.8"/>
	</defs>
	<clipPath id="SVGID_2_">
		<use xlink:href="#SVGID_1_"  style="overflow:visible;"/>
	</clipPath>
	<g id="Calque_2_1_" class="st0">
		<g id="V2_Pieds">
			<path class="st1" d="M263,55V5C158-14,152.3,27.9,100.8,21.2C45,14,15.4,43.5,0,55H263z"/>
			<path class="st2" d="M117.5,34l5.9,12.4c0.2,0.5,0.8,0.7,1.2,0.4c0.1-0.1,0.2-0.1,0.3-0.2L149,18.8c0.1-0.1,0.1-0.4,0-0.5
				s-0.3-0.1-0.4-0.1L117.8,33C117.5,33.2,117.4,33.6,117.5,34z M123.2,34.7c-0.1-0.1,0-0.3,0.1-0.3l0,0l11.1-5.3
				c0.1,0,0.2,0,0.2,0.1v0.1l-8.7,10c-0.1,0.1-0.3,0.2-0.5,0l-0.1-0.1L123.2,34.7z"/>
			
				<rect x="146.1" y="19.7" transform="matrix(0.9025 -0.4307 0.4307 0.9025 5.3958 64.9766)" class="st3" width="0.2" height="1.8"/>
			
				<rect x="144.1" y="20.6" transform="matrix(0.9024 -0.4308 0.4308 0.9024 4.7998 64.219)" class="st3" width="0.2" height="1.8"/>
			<rect x="144.9" y="20.2" transform="matrix(0.9024 -0.4308 0.4308 0.9024 5.2284 64.4891)" class="st3" width="0.2" height="1"/>
			<rect x="143" y="21.1" transform="matrix(0.9024 -0.4308 0.4308 0.9024 4.6516 63.7582)" class="st3" width="0.2" height="1"/>
			
				<rect x="142.2" y="21.5" transform="matrix(0.9025 -0.4307 0.4307 0.9025 4.2311 63.4695)" class="st3" width="0.2" height="1.8"/>
			
				<rect x="140.3" y="22.4" transform="matrix(0.9024 -0.4308 0.4308 0.9024 3.6625 62.7442)" class="st3" width="0.2" height="1.8"/>
			<rect x="141" y="22" transform="matrix(0.9024 -0.4308 0.4308 0.9024 4.0611 62.9787)" class="st3" width="0.2" height="1"/>
			<rect x="139.2" y="22.9" transform="matrix(0.9024 -0.4308 0.4308 0.9024 3.5144 62.2822)" class="st3" width="0.2" height="1"/>
			
				<rect x="138.4" y="23.3" transform="matrix(0.9025 -0.4307 0.4307 0.9025 3.0872 62.0005)" class="st3" width="0.2" height="1.8"/>
			
				<rect x="136.4" y="24.3" transform="matrix(0.9024 -0.4308 0.4308 0.9024 2.4561 61.2696)" class="st3" width="0.2" height="1.8"/>
			<rect x="137.2" y="23.8" transform="matrix(0.9024 -0.4308 0.4308 0.9024 2.9168 61.5115)" class="st3" width="0.2" height="1"/>
			<rect x="135.3" y="24.8" transform="matrix(0.9024 -0.4308 0.4308 0.9024 2.3092 60.8073)" class="st3" width="0.2" height="1"/>
			
				<rect x="134.5" y="25.2" transform="matrix(0.9024 -0.4308 0.4308 0.9024 1.8858 60.5336)" class="st3" width="0.2" height="1.8"/>
			
				<rect x="132.6" y="26.1" transform="matrix(0.9024 -0.4308 0.4308 0.9024 1.3162 59.7939)" class="st3" width="0.2" height="1.8"/>
			<rect x="133.4" y="25.7" transform="matrix(0.9024 -0.4308 0.4308 0.9024 1.7431 60.0649)" class="st3" width="0.2" height="1"/>
			<rect x="131.5" y="26.6" transform="matrix(0.9024 -0.4308 0.4308 0.9024 1.1707 59.3328)" class="st3" width="0.2" height="1"/>
			<rect x="130.6" y="27" transform="matrix(0.9024 -0.4308 0.4308 0.9024 0.7203 59.0223)" class="st3" width="0.2" height="1.8"/>
			
				<rect x="128.7" y="27.9" transform="matrix(0.9025 -0.4307 0.4307 0.9025 0.1544 58.2716)" class="st3" width="0.2" height="1.8"/>
			<rect x="129.5" y="27.5" transform="matrix(0.9025 -0.4307 0.4307 0.9025 0.5804 58.5408)" class="st3" width="0.2" height="1"/>
			
				<rect x="127.6" y="28.4" transform="matrix(0.9025 -0.4307 0.4307 0.9025 4.890352e-03 57.8085)" class="st3" width="0.2" height="1"/>
			
				<rect x="126.8" y="28.9" transform="matrix(0.9024 -0.4308 0.4308 0.9024 -0.4527 57.5751)" class="st3" width="0.2" height="1.8"/>
			
				<rect x="124.8" y="29.8" transform="matrix(0.9025 -0.4307 0.4307 0.9025 -1.0445 56.7886)" class="st3" width="0.2" height="1.8"/>
			
				<rect x="125.6" y="29.4" transform="matrix(0.9025 -0.4307 0.4307 0.9025 -0.6198 57.0593)" class="st3" width="0.2" height="1"/>
			<rect x="123.7" y="30.3" transform="matrix(0.9025 -0.4307 0.4307 0.9025 -1.1927 56.328)" class="st3" width="0.2" height="1"/>
			
				<rect x="122.9" y="30.7" transform="matrix(0.9025 -0.4307 0.4307 0.9025 -1.6114 56.0473)" class="st3" width="0.2" height="1.8"/>
			
				<rect x="121.8" y="31.2" transform="matrix(0.9025 -0.4307 0.4307 0.9025 -1.7596 55.5867)" class="st3" width="0.2" height="1"/>
			
				<rect x="120.9" y="31.6" transform="matrix(0.9025 -0.4307 0.4307 0.9025 -2.209 55.2768)" class="st3" width="0.2" height="1.8"/>
			
				<rect x="119" y="32.6" transform="matrix(0.9024 -0.4308 0.4308 0.9024 -2.8135 54.5789)" class="st3" width="0.2" height="1.8"/>
			
				<rect x="119.8" y="32.2" transform="matrix(0.9024 -0.4308 0.4308 0.9024 -2.3858 54.8473)" class="st3" width="0.2" height="1"/>
			
				<rect x="117.9" y="33.1" transform="matrix(0.9024 -0.4308 0.4308 0.9024 -2.9605 54.1166)" class="st3" width="0.2" height="1"/>
		</g>
	</g>
</g>
</svg>
