<?xml version="1.0" encoding="utf-8"?>
<!-- Generator: Adobe Illustrator 22.0.1, SVG Export Plug-In . SVG Version: 6.00 Build 0)  -->
<svg version="1.1" id="Calque_1" xmlns="http://www.w3.org/2000/svg" xmlns:xlink="http://www.w3.org/1999/xlink" x="0px" y="0px"
	 viewBox="0 0 228.3 40.5" style="enable-background:new 0 0 228.3 40.5;" xml:space="preserve">
<style type="text/css">
	.st0{clip-path:url(#SVGID_2_);}
	.st1{fill:url(#SVGID_3_);}
	.st2{opacity:0.8;}
	.st3{fill:#FFFFFF;}
	.st4{fill:none;stroke:#FFFFFF;stroke-width:0.27;stroke-miterlimit:10;}
</style>
<g>
	<defs>
		<rect id="SVGID_1_" width="228.3" height="40.5"/>
	</defs>
	<clipPath id="SVGID_2_">
		<use xlink:href="#SVGID_1_"  style="overflow:visible;"/>
	</clipPath>
	<g id="Calque_2_1_" class="st0">
		<g id="V2_Pieds">
			
				<linearGradient id="SVGID_3_" gradientUnits="userSpaceOnUse" x1="-1795.5746" y1="4045.0615" x2="-1882.9761" y2="3893.6787" gradientTransform="matrix(-1 0 0 1 -1714.7 -3933.1201)">
				<stop  offset="0" style="stop-color:#E6215A"/>
				<stop  offset="1.000000e-02" style="stop-color:#DC215B"/>
				<stop  offset="7.000000e-02" style="stop-color:#B0235F"/>
				<stop  offset="0.13" style="stop-color:#8B2462"/>
				<stop  offset="0.19" style="stop-color:#6C2565"/>
				<stop  offset="0.26" style="stop-color:#542667"/>
				<stop  offset="0.33" style="stop-color:#432769"/>
				<stop  offset="0.41" style="stop-color:#39276A"/>
				<stop  offset="0.5" style="stop-color:#36276A"/>
				<stop  offset="0.62" style="stop-color:#352A6D"/>
				<stop  offset="0.71" style="stop-color:#303474"/>
				<stop  offset="0.8" style="stop-color:#294582"/>
				<stop  offset="0.88" style="stop-color:#1E5D95"/>
				<stop  offset="0.95" style="stop-color:#117BAD"/>
				<stop  offset="1" style="stop-color:#0792BF"/>
			</linearGradient>
			<path class="st1" d="M245.3,55V5c-105-19-110.7,22.9-162.2,16.2C27.3,14-2.3,43.5-17.8,55H245.3z"/>
			<g class="st2">
				<path class="st3" d="M51.1,24.4c-0.1,0-0.1-0.1-0.2-0.1c-0.1-0.2-0.3-0.3-0.5-0.4c-0.4-0.1-0.8,0-1.1,0.3
					c-0.7,0.6-0.7,1.8-0.7,2.7c0,2,0.1,4.1,0.3,6.1c0.2,2,0.4,4.1,0.5,6.1c0,1,0,2-0.1,3c0,0.9-0.2,1.7-0.4,2.5
					c-0.1,0.4-0.3,0.7-0.6,0.9c-0.1,0.1-0.3,0.2-0.5,0.2c0.1-0.2,0.2-0.4,0.2-0.6c0-0.4-0.3-0.8-0.7-0.8c-0.1,0-0.2,0-0.3,0
					c-0.5,0.1-0.8,0.6-0.8,1.1c0.1,0.5,0.6,0.9,1.2,0.9c1-0.1,1.8-0.8,2-1.8c0.1-0.5,0.2-0.9,0.3-1.4c0.1-0.6,0.1-1.2,0.2-1.8
					c0.1-1.2,0.1-2.4,0-3.7c-0.1-2.5-0.5-4.9-0.6-7.4c-0.1-1.2-0.1-2.5-0.1-3.7c0-0.6,0-1.2,0.2-1.7c0.1-0.4,0.5-0.8,0.9-0.7l0,0
					c-0.1,0.1-0.2,0.2-0.3,0.4c-0.1,0.2-0.1,0.4-0.1,0.5c0,0.2,0.2,0.5,0.5,0.5h0.1c0.1,0,0.2,0.1,0.3,0.1c0.4,0,0.7-0.2,0.8-0.6
					C51.6,24.9,51.4,24.5,51.1,24.4z M47.3,45.3L47.3,45.3C47.1,45.2,47.3,45.3,47.3,45.3z"/>
				<path class="st3" d="M54.5,37c-0.3-0.2-0.6-0.4-0.9-0.7s-0.4-0.3-0.6-0.5c0.2-0.3,0.3-0.6,0.5-0.9c0.1-0.1,0.4-1,0.1-1
					c-0.2,0-0.2,0.2-0.3,0.3s-0.2,0.3-0.3,0.5s-0.3,0.4-0.4,0.6c-0.2-0.2-0.4-0.4-0.6-0.6s-0.2-0.3-0.3-0.4s-0.2-0.3-0.4-0.2
					s0,0.3,0,0.5c0.1,0.2,0.2,0.3,0.3,0.5c0.2,0.3,0.4,0.5,0.6,0.8c-0.2,0.2-0.4,0.4-0.6,0.6c-0.1,0.1-0.3,0.3-0.4,0.4
					c-0.1,0.1-0.3,0.2-0.4,0.3c0,0,0,0.1-0.1,0.1l0,0c-0.1,0.2,0,0.5,0.3,0.5c0.2-0.1,0.4-0.2,0.5-0.4l0.4-0.4
					c0.2-0.2,0.4-0.4,0.5-0.6c0.2,0.2,0.3,0.3,0.5,0.4c0.3,0.3,0.6,0.5,0.9,0.7c0.1,0.1,0.3,0.1,0.4-0.1
					C54.6,37.3,54.6,37.1,54.5,37z"/>
				<path class="st3" d="M55.9,31.1c-0.2-0.2-0.6-0.1-0.9-0.1c-0.2,0-0.4,0.1-0.6,0.2c0-0.1-0.2-0.1-0.2,0c-0.1,0.2-0.1,0.4-0.1,0.5
					l-0.1,0.6c0,0.2,0.3,0.3,0.4,0.2c0.1-0.1,0.3-0.1,0.5,0c0.1,0.1,0.1,0.1,0.1,0.2c0,0.1-0.1,0.2-0.2,0.3c-0.1,0-0.1,0-0.2,0h-0.1
					c-0.1,0-0.1,0-0.2,0c-0.2,0-0.2,0.3-0.1,0.4s0.6,0.1,0.8,0c0.3-0.2,0.4-0.5,0.3-0.8c-0.1-0.4-0.5-0.7-0.9-0.7c0,0,0,0-0.1,0
					v-0.2c0-0.1,0-0.1,0-0.2c0.2,0,0.3,0,0.5,0c0.1,0,0.2,0,0.4,0c0.1,0.1,0.3,0.1,0.4,0C56,31.4,56.1,31.3,55.9,31.1
					C56,31.1,56,31.1,55.9,31.1z"/>
				<path class="st3" d="M58.1,33.3l-0.1-1.9c0-0.6,0-1.2-0.1-1.8c0-0.1-0.3-0.1-0.3,0c-0.1,0.6-0.1,1.2-0.1,1.9s0,1.2,0,1.8v1
					l-0.1-0.1C57.2,34.1,57,34,56.7,34c-0.6,0-1.2,0.3-1.5,0.9c-0.3,0.6-0.3,1.3,0,1.8c0.3,0.6,0.8,1,1.5,1c0.4,0,0.7-0.1,1-0.3
					c0.1,0,0.1-0.1,0.2-0.1c0.1,0.1,0.3,0.1,0.4,0c0-0.1,0.1-0.1,0.1-0.2C58.3,35.8,58.2,34.6,58.1,33.3z M57.3,36.8
					c-0.1,0.1-0.3,0.2-0.5,0.2c-0.4,0-0.7-0.2-0.9-0.5c-0.2-0.4-0.3-0.8-0.1-1.2c0.1-0.4,0.4-0.7,0.8-0.8c0.2,0,0.4,0,0.6,0.1
					c0.2,0.1,0.4,0.2,0.5,0.4c0,0.5,0,0.9,0,1.4C57.5,36.5,57.4,36.7,57.3,36.8z"/>
				<path class="st3" d="M61.7,36.6c-0.3-0.2-0.5-0.3-0.8-0.5l-0.4-0.3c0.4-0.5,0.6-1.1,0.6-1.8c0,0-0.1-0.1-0.1,0c0,0,0,0,0,0
					c-0.3,0.5-0.6,1-0.9,1.5c-0.2-0.2-0.3-0.3-0.5-0.5s-0.2-0.2-0.3-0.3c-0.1-0.1-0.2-0.2-0.3-0.3c-0.1,0-0.1,0-0.2,0c0,0,0,0,0,0.1
					c0,0.2,0.1,0.3,0.1,0.5c0.1,0.1,0.2,0.3,0.3,0.4c0.2,0.3,0.4,0.5,0.6,0.7l-0.2,0.2c-0.2,0.2-0.5,0.4-0.7,0.7
					c-0.1,0.1-0.1,0.3,0,0.4c0.1,0.1,0.3,0.2,0.4,0.1c0.3-0.2,0.5-0.4,0.7-0.7c0.1-0.1,0.2-0.2,0.3-0.3c0.1,0.1,0.3,0.2,0.4,0.3
					c0.3,0.2,0.6,0.4,1,0.5c0.2,0,0.3-0.1,0.3-0.3C61.9,36.7,61.8,36.6,61.7,36.6z"/>
				<path class="st3" d="M64.3,34.7c-0.4-0.1-0.7-0.1-1.1-0.1c-0.3,0-0.8,0-0.9,0.2c0,0,0,0.1,0,0.2c0.1,0.1,0.3,0.2,0.4,0.2h0.5
					c0.3,0,0.7,0.1,1,0.1S64.5,34.8,64.3,34.7z"/>
				<path class="st3" d="M64.5,35.7c-0.1-0.1-0.2-0.2-0.3-0.1h-0.1c-0.3,0-0.5,0-0.8,0c-0.3,0-0.6,0-0.8,0.1
					c-0.1,0.1-0.1,0.2-0.1,0.3c0,0,0,0,0.1,0.1c0.3,0.1,0.5,0.2,0.8,0.2l0.9,0.1c0.2,0,0.3-0.1,0.3-0.3
					C64.5,35.9,64.5,35.8,64.5,35.7z"/>
				<path class="st3" d="M71.4,33.7c-0.3-0.1-0.5-0.4-0.7-0.6l-0.7-1l-0.2-0.3c0.1-0.2,0.2-0.4,0.3-0.6l0.2-0.5
					c0.1-0.2,0.2-0.4,0.2-0.6c0-0.1-0.1-0.1-0.1-0.1c0,0-0.1,0-0.1,0c-0.1,0.1-0.2,0.3-0.3,0.5l-0.3,0.5c-0.1,0.1-0.2,0.3-0.3,0.4
					l-0.2-0.1c-0.1-0.1-0.2-0.3-0.4-0.5c-0.1-0.2-0.3-0.3-0.4-0.4c-0.1-0.1-0.2,0-0.2,0.1c0,0,0,0.1,0,0.1c0.1,0.2,0.2,0.4,0.3,0.5
					l0.4,0.5l0.2,0.3L69,32c-0.2,0.3-0.5,0.6-0.7,0.9c-0.1,0.2-0.3,0.3-0.4,0.4s-0.4,0.3-0.4,0.5c0,0.1,0.1,0.3,0.3,0.3
					c0.2,0,0.4-0.2,0.5-0.4c0.1-0.2,0.3-0.3,0.4-0.5c0.3-0.3,0.5-0.7,0.7-1l0.2,0.2l0.7,1c0.2,0.3,0.5,0.6,0.8,0.7
					c0.1,0,0.3,0,0.4-0.2C71.5,33.9,71.5,33.8,71.4,33.7z"/>
				<path class="st3" d="M72.9,28.3c-0.4-0.1-0.7,0-1,0.2l-0.1,0.2c0-0.1,0-0.1,0-0.2c0-0.2,0.2-0.4,0.3-0.6
					c0.1-0.1,0.2-0.2,0.3-0.2c0.1,0,0.2-0.1,0.3-0.1c0.1,0,0.1-0.1,0-0.2c0,0,0,0,0,0c-0.3-0.1-0.6,0-0.8,0.1
					c-0.7,0.4-0.9,1.3-0.5,2c0.1,0.1,0.2,0.2,0.3,0.3c0.5,0.4,1.2,0.4,1.6,0c0.3-0.4,0.2-1.1-0.2-1.4C73.1,28.4,73,28.3,72.9,28.3z
					 M72.9,29.4c-0.1,0.1-0.3,0.2-0.5,0.1c-0.1,0-0.2-0.1-0.3-0.1c0.1-0.2,0.1-0.4,0.3-0.5c0.2-0.1,0.4-0.1,0.5,0
					C73,29.1,73.1,29.3,72.9,29.4L72.9,29.4z"/>
				<path class="st3" d="M74.1,35.1c-0.2-0.2-0.5-0.1-0.8-0.1h-0.8h-1.7c-1.1,0-2.2,0-3.3,0.1h-0.9c-0.3,0-0.6,0.1-0.9,0.2
					c-0.1,0-0.1,0.1-0.1,0.2c0,0,0,0.1,0.1,0.1c0.3,0.1,0.7,0.1,1,0.1c0.3,0,0.7,0,1.1,0h2.1h2.1H73h0.5c0.2,0,0.4,0,0.5-0.1
					C74.2,35.4,74.2,35.3,74.1,35.1C74.1,35.1,74.1,35.1,74.1,35.1z"/>
				<path class="st3" d="M70.8,38.1c-0.5-0.2-1.2-0.1-1.6,0.3c-0.3,0.3-0.5,0.6-0.4,1c0,0-0.1-0.1-0.1-0.2c-0.3-0.5-0.3-1.2,0.1-1.7
					c0.5-0.5,1.3-0.7,1.9-0.4c0.1,0,0.1,0,0.2-0.1c0,0,0-0.1,0-0.1c-0.1-0.1-0.1-0.1-0.2-0.2c-0.1-0.1-0.2-0.1-0.3-0.1
					c-0.6-0.2-1.3,0-1.8,0.5c-0.7,0.8-0.7,2.1,0.2,2.8c0.6,0.5,1.4,0.6,2.1,0.4c0.4-0.2,0.8-0.5,0.9-1
					C71.7,38.8,71.4,38.3,70.8,38.1z M70.9,39.2c-0.1,0.3-0.4,0.5-0.7,0.6c-0.3,0.1-0.6,0.1-0.9,0c0,0,0-0.1,0-0.1
					c0-0.3-0.1-0.6,0.2-0.8c0.3-0.2,0.6-0.3,0.9-0.2C70.8,38.8,71,39,70.9,39.2z"/>
				<path class="st3" d="M78.7,35.3h-1.6c0-0.2-0.1-0.5-0.1-0.7s0-0.6-0.2-0.7l0,0c-0.1,0.1-0.2,0.2-0.1,0.3c0,0.1,0,0.3,0,0.4
					s0,0.5,0,0.7c-0.3,0-0.6,0-0.9,0c-0.2,0-0.8,0-0.7,0.3s0.6,0.2,0.8,0.2s0.6,0,0.8,0v1.3c0,0.4,0.6,0.4,0.6,0s0-0.7-0.1-1.1
					c0.5,0,1,0,1.5,0c0.2,0,0.3-0.1,0.3-0.3C79,35.5,78.9,35.3,78.7,35.3L78.7,35.3z"/>
				<path class="st3" d="M84.9,36.6c-0.2-0.1-0.4,0-0.5,0.1c-0.4,0.6-1,1-1.7,1.1c-0.7,0-1.4-0.3-1.9-0.8c-0.5-0.6-0.7-1.4-0.6-2.1
					c0.2-0.8,0.7-1.5,1.4-1.9c0.4-0.2,0.8-0.3,1.2-0.4c0.4-0.1,0.8,0,1.1,0.3c0.1,0.1,0.2,0.1,0.3,0c0,0,0.1-0.1,0-0.2
					c-0.3-0.9-1.7-0.8-2.4-0.5c-1,0.3-1.7,1.1-2.1,2c-0.4,0.9-0.3,2,0.3,2.9c0.5,0.8,1.4,1.3,2.3,1.4c1.1,0.1,2.1-0.5,2.7-1.5
					C85.1,36.9,85.1,36.7,84.9,36.6z"/>
			</g>
			<path class="st4" d="M99.8,33.8l5.9,12.4c0.2,0.5,0.8,0.7,1.2,0.4c0.1-0.1,0.2-0.1,0.3-0.2l24.1-27.8c0.1-0.1,0.1-0.4,0-0.5
				c-0.1-0.1-0.3-0.1-0.4-0.1l-30.8,14.7C99.8,33,99.6,33.4,99.8,33.8C99.8,33.8,99.8,33.8,99.8,33.8z M105.5,34.4
				c-0.1-0.1,0-0.3,0.1-0.3l11.2-5.3c0.1,0,0.2,0,0.2,0.1c0,0,0,0.1,0,0.1l-8.7,10c-0.1,0.1-0.3,0.2-0.5,0c0,0-0.1-0.1-0.1-0.1
				L105.5,34.4z"/>
			
				<rect x="128.3" y="19.4" transform="matrix(0.9025 -0.4307 0.4307 0.9025 3.7665 57.2759)" class="st3" width="0.2" height="1.8"/>
			
				<rect x="126.4" y="20.4" transform="matrix(0.9024 -0.4308 0.4308 0.9024 3.1763 56.5597)" class="st3" width="0.2" height="1.8"/>
			<rect x="127.2" y="19.9" transform="matrix(0.9024 -0.4308 0.4308 0.9024 3.6065 56.8202)" class="st3" width="0.2" height="1"/>
			<rect x="125.3" y="20.8" transform="matrix(0.9024 -0.4308 0.4308 0.9024 3.0378 56.0896)" class="st3" width="0.2" height="1"/>
			
				<rect x="124.4" y="21.3" transform="matrix(0.9025 -0.4307 0.4307 0.9025 2.5924 55.7943)" class="st3" width="0.2" height="1.8"/>
			
				<rect x="122.5" y="22.2" transform="matrix(0.9024 -0.4308 0.4308 0.9024 2.0051 55.0745)" class="st3" width="0.2" height="1.8"/>
			<rect x="123.3" y="21.8" transform="matrix(0.9024 -0.4308 0.4308 0.9024 2.4344 55.3308)" class="st3" width="0.2" height="1"/>
			<rect x="121.4" y="22.7" transform="matrix(0.9024 -0.4308 0.4308 0.9024 1.8605 54.6037)" class="st3" width="0.2" height="1"/>
			
				<rect x="120.6" y="23.1" transform="matrix(0.9025 -0.4307 0.4307 0.9025 1.4337 54.3224)" class="st3" width="0.2" height="1.8"/>
			<rect x="118.7" y="24" transform="matrix(0.9024 -0.4308 0.4308 0.9024 0.8469 53.6036)" class="st3" width="0.2" height="1.8"/>
			<rect x="119.5" y="23.6" transform="matrix(0.9024 -0.4308 0.4308 0.9024 1.2771 53.8641)" class="st3" width="0.2" height="1"/>
			<rect x="117.6" y="24.5" transform="matrix(0.9024 -0.4308 0.4308 0.9024 0.7051 53.1388)" class="st3" width="0.2" height="1"/>
			<rect x="116.8" y="25" transform="matrix(0.9024 -0.4308 0.4308 0.9024 0.2592 52.865)" class="st3" width="0.2" height="1.8"/>
			
				<rect x="114.8" y="25.9" transform="matrix(0.9024 -0.4308 0.4308 0.9024 -0.3243 52.1185)" class="st3" width="0.2" height="1.8"/>
			<rect x="115.6" y="25.4" transform="matrix(0.9024 -0.4308 0.4308 0.9024 0.106 52.379)" class="st3" width="0.2" height="1"/>
			
				<rect x="113.7" y="26.3" transform="matrix(0.9024 -0.4308 0.4308 0.9024 -0.4689 51.6477)" class="st3" width="0.2" height="1"/>
			
				<rect x="112.9" y="26.8" transform="matrix(0.9024 -0.4308 0.4308 0.9024 -0.913 51.3755)" class="st3" width="0.2" height="1.8"/>
			
				<rect x="110.9" y="27.7" transform="matrix(0.9025 -0.4307 0.4307 0.9025 -1.4954 50.6059)" class="st3" width="0.2" height="1.8"/>
			
				<rect x="111.7" y="27.3" transform="matrix(0.9025 -0.4307 0.4307 0.9025 -1.0653 50.8663)" class="st3" width="0.2" height="1"/>
			<rect x="109.8" y="28.2" transform="matrix(0.9025 -0.4307 0.4307 0.9025 -1.639 50.1396)" class="st3" width="0.2" height="1"/>
			
				<rect x="109" y="28.6" transform="matrix(0.9024 -0.4308 0.4308 0.9024 -2.0841 49.8904)" class="st3" width="0.2" height="1.8"/>
			
				<rect x="107.1" y="29.5" transform="matrix(0.9025 -0.4307 0.4307 0.9025 -2.6696 49.1243)" class="st3" width="0.2" height="1.8"/>
			
				<rect x="107.9" y="29.1" transform="matrix(0.9025 -0.4307 0.4307 0.9025 -2.2352 49.3837)" class="st3" width="0.2" height="1"/>
			<rect x="106" y="30" transform="matrix(0.9025 -0.4307 0.4307 0.9025 -2.8097 48.6553)" class="st3" width="0.2" height="1"/>
			
				<rect x="105.1" y="30.5" transform="matrix(0.9025 -0.4307 0.4307 0.9025 -3.2624 48.3689)" class="st3" width="0.2" height="1.8"/>
			<rect x="104" y="31" transform="matrix(0.9025 -0.4307 0.4307 0.9025 -3.4043 47.9018)" class="st3" width="0.2" height="1"/>
			
				<rect x="103.2" y="31.4" transform="matrix(0.9025 -0.4307 0.4307 0.9025 -3.8456 47.6297)" class="st3" width="0.2" height="1.8"/>
			
				<rect x="101.3" y="32.3" transform="matrix(0.9024 -0.4308 0.4308 0.9024 -4.4387 46.9084)" class="st3" width="0.2" height="1.8"/>
			<rect x="102" y="31.9" transform="matrix(0.9024 -0.4308 0.4308 0.9024 -4.0085 47.169)" class="st3" width="0.2" height="1"/>
			
				<rect x="100.2" y="32.8" transform="matrix(0.9024 -0.4308 0.4308 0.9024 -4.5771 46.4384)" class="st3" width="0.2" height="1"/>
		</g>
	</g>
</g>
</svg>
