<?xml version="1.0" encoding="utf-8"?>
<!-- Generator: Adobe Illustrator 22.0.1, SVG Export Plug-In . SVG Version: 6.00 Build 0)  -->
<svg version="1.1" id="Calque_1" xmlns="http://www.w3.org/2000/svg" xmlns:xlink="http://www.w3.org/1999/xlink" x="0px" y="0px"
	 viewBox="0 0 263 55" style="enable-background:new 0 0 263 55;" xml:space="preserve">
<style type="text/css">
	.st0{fill:#FFFFFF;}
	.st1{fill:none;stroke:#36276A;stroke-width:0.27;stroke-miterlimit:10;}
	.st2{fill:#36276A;}
</style>
<g id="Calque_2_1_">
	<g id="V2_Pieds">
		<path class="st0" d="M263,54.5v-50c-105-19-110.7,22.9-162.2,16.2C45,13.5,15.4,43,0,54.5H263z"/>
		<path class="st1" d="M117.5,33.5l5.9,12.4c0.2,0.5,0.8,0.7,1.2,0.4c0.1-0.1,0.2-0.1,0.3-0.2l24.1-27.8c0.1-0.1,0.1-0.4,0-0.5
			c-0.1-0.1-0.3-0.1-0.4-0.1l-30.8,14.8C117.5,32.8,117.4,33.2,117.5,33.5z M123.2,34.2c-0.1-0.1,0-0.3,0.1-0.3c0,0,0,0,0,0
			l11.1-5.3c0.1,0,0.2,0,0.2,0.1c0,0,0,0.1,0,0.1l-8.7,10c-0.1,0.1-0.3,0.2-0.5,0c0,0-0.1-0.1-0.1-0.1L123.2,34.2z"/>
		
			<rect x="146.1" y="19.2" transform="matrix(0.9025 -0.4307 0.4307 0.9025 5.5937 64.9014)" class="st2" width="0.2" height="1.8"/>
		
			<rect x="144.1" y="20.1" transform="matrix(0.9024 -0.4308 0.4308 0.9024 5.0083 64.1852)" class="st2" width="0.2" height="1.8"/>
		<rect x="144.9" y="19.7" transform="matrix(0.9024 -0.4308 0.4308 0.9024 5.4418 64.4404)" class="st2" width="0.2" height="1"/>
		<rect x="143" y="20.6" transform="matrix(0.9024 -0.4308 0.4308 0.9024 4.8664 63.7179)" class="st2" width="0.2" height="1"/>
		<rect x="142.2" y="21" transform="matrix(0.9025 -0.4307 0.4307 0.9025 4.4273 63.4161)" class="st2" width="0.2" height="1.8"/>
		<rect x="140.3" y="22" transform="matrix(0.9024 -0.4308 0.4308 0.9024 3.837 62.6975)" class="st2" width="0.2" height="1.8"/>
		<rect x="141" y="21.5" transform="matrix(0.9024 -0.4308 0.4308 0.9024 4.2672 62.958)" class="st2" width="0.2" height="1"/>
		<rect x="139.2" y="22.5" transform="matrix(0.9024 -0.4308 0.4308 0.9024 3.6925 62.2292)" class="st2" width="0.2" height="1"/>
		
			<rect x="138.4" y="22.9" transform="matrix(0.9025 -0.4307 0.4307 0.9025 3.2652 61.9469)" class="st2" width="0.2" height="1.8"/>
		
			<rect x="136.4" y="23.8" transform="matrix(0.9024 -0.4308 0.4308 0.9024 2.6789 61.2291)" class="st2" width="0.2" height="1.8"/>
		<rect x="137.2" y="23.4" transform="matrix(0.9024 -0.4308 0.4308 0.9024 3.1091 61.4897)" class="st2" width="0.2" height="1"/>
		<rect x="135.3" y="24.3" transform="matrix(0.9024 -0.4308 0.4308 0.9024 2.5343 60.7583)" class="st2" width="0.2" height="1"/>
		
			<rect x="134.5" y="24.7" transform="matrix(0.9024 -0.4308 0.4308 0.9024 2.0955 60.4895)" class="st2" width="0.2" height="1.8"/>
		
			<rect x="132.6" y="25.6" transform="matrix(0.9024 -0.4308 0.4308 0.9024 1.5043 59.7467)" class="st2" width="0.2" height="1.8"/>
		<rect x="133.4" y="25.2" transform="matrix(0.9024 -0.4308 0.4308 0.9024 1.9388 60.0063)" class="st2" width="0.2" height="1"/>
		<rect x="131.5" y="26.1" transform="matrix(0.9024 -0.4308 0.4308 0.9024 1.3631 59.2732)" class="st2" width="0.2" height="1"/>
		
			<rect x="130.6" y="26.6" transform="matrix(0.9024 -0.4308 0.4308 0.9024 0.9199 59.0028)" class="st2" width="0.2" height="1.8"/>
		
			<rect x="128.7" y="27.5" transform="matrix(0.9025 -0.4307 0.4307 0.9025 0.3361 58.2304)" class="st2" width="0.2" height="1.8"/>
		<rect x="129.5" y="27" transform="matrix(0.9025 -0.4307 0.4307 0.9025 0.7662 58.4908)" class="st2" width="0.2" height="1"/>
		<rect x="127.6" y="28" transform="matrix(0.9025 -0.4307 0.4307 0.9025 0.1882 57.7651)" class="st2" width="0.2" height="1"/>
		
			<rect x="126.8" y="28.4" transform="matrix(0.9024 -0.4308 0.4308 0.9024 -0.2513 57.5176)" class="st2" width="0.2" height="1.8"/>
		
			<rect x="124.8" y="29.3" transform="matrix(0.9025 -0.4307 0.4307 0.9025 -0.8374 56.7426)" class="st2" width="0.2" height="1.8"/>
		<rect x="125.6" y="28.9" transform="matrix(0.9025 -0.4307 0.4307 0.9025 -0.4046 57.0064)" class="st2" width="0.2" height="1"/>
		<rect x="123.7" y="29.8" transform="matrix(0.9025 -0.4307 0.4307 0.9025 -0.9792 56.2755)" class="st2" width="0.2" height="1"/>
		
			<rect x="122.9" y="30.2" transform="matrix(0.9025 -0.4307 0.4307 0.9025 -1.431 55.9934)" class="st2" width="0.2" height="1.8"/>
		<rect x="121.8" y="30.7" transform="matrix(0.9025 -0.4307 0.4307 0.9025 -1.5728 55.5263)" class="st2" width="0.2" height="1"/>
		
			<rect x="120.9" y="31.2" transform="matrix(0.9025 -0.4307 0.4307 0.9025 -2.0141 55.2542)" class="st2" width="0.2" height="1.8"/>
		<rect x="119" y="32.1" transform="matrix(0.9024 -0.4308 0.4308 0.9024 -2.6024 54.5329)" class="st2" width="0.2" height="1.8"/>
		<rect x="119.8" y="31.7" transform="matrix(0.9024 -0.4308 0.4308 0.9024 -2.1732 54.7892)" class="st2" width="0.2" height="1"/>
		<rect x="117.9" y="32.6" transform="matrix(0.9024 -0.4308 0.4308 0.9024 -2.747 54.0621)" class="st2" width="0.2" height="1"/>
	</g>
</g>
</svg>
