<svg xmlns="http://www.w3.org/2000/svg" viewBox="0 0 263 54.99"><defs><style>.cls-1{fill:#fff;}.cls-2{fill:none;stroke:#36276a;stroke-miterlimit:10;stroke-width:0.27px;}.cls-3,.cls-4{fill:#36276a;}.cls-4{font-size:7px;font-family:AvantGarde-Book, ITC Avant Garde Gothic;}</style></defs><g id="Calque_2" data-name="Calque 2"><g id="V2_Pieds" data-name="V2 Pieds"><path class="cls-1" d="M263,55V5C158-14,152.32,27.86,100.82,21.2,45,14,15.45,43.51,0,55Z"/><path class="cls-2" d="M117.52,34l5.93,12.42a.92.92,0,0,0,1.53.21l24.15-27.75a.36.36,0,0,0-.43-.57L117.86,33.06A.73.73,0,0,0,117.52,34Zm5.72.65a.26.26,0,0,1,.12-.35L134.51,29a.14.14,0,0,1,.16.21l-8.74,10a.33.33,0,0,1-.55-.08Z"/><rect class="cls-3" x="146.07" y="19.66" width="0.18" height="1.82" transform="translate(286.92 -23.81) rotate(154.49)"/><rect class="cls-3" x="144.13" y="20.59" width="0.18" height="1.82" transform="translate(283.63 -21.22) rotate(154.48)"/><rect class="cls-3" x="144.92" y="20.17" width="0.18" height="1.02" transform="translate(284.77 -23.13) rotate(154.48)"/><rect class="cls-3" x="143.02" y="21.07" width="0.18" height="1.02" transform="translate(281.56 -20.59) rotate(154.48)"/><rect class="cls-3" x="142.2" y="21.51" width="0.18" height="1.82" transform="translate(280.36 -18.64) rotate(154.49)"/><rect class="cls-3" x="140.26" y="22.43" width="0.18" height="1.82" transform="translate(277.06 -16.05) rotate(154.48)"/><rect class="cls-3" x="141.05" y="22.01" width="0.18" height="1.02" transform="translate(278.21 -17.95) rotate(154.48)"/><rect class="cls-3" x="139.16" y="22.92" width="0.18" height="1.02" transform="translate(275 -15.41) rotate(154.48)"/><rect class="cls-3" x="138.38" y="23.33" width="0.18" height="1.82" transform="translate(273.87 -13.52) rotate(154.49)"/><rect class="cls-3" x="136.44" y="24.26" width="0.18" height="1.82" transform="translate(270.58 -10.93) rotate(154.48)"/><rect class="cls-3" x="137.23" y="23.84" width="0.18" height="1.02" transform="translate(271.73 -12.83) rotate(154.48)"/><rect class="cls-3" x="135.34" y="24.74" width="0.18" height="1.02" transform="translate(268.51 -10.3) rotate(154.48)"/><rect class="cls-3" x="134.51" y="25.18" width="0.18" height="1.82" transform="translate(267.31 -8.35) rotate(154.48)"/><rect class="cls-3" x="132.57" y="26.1" width="0.18" height="1.82" transform="translate(264.02 -5.75) rotate(154.48)"/><rect class="cls-3" x="133.36" y="25.68" width="0.18" height="1.02" transform="translate(265.17 -7.66) rotate(154.48)"/><rect class="cls-3" x="131.47" y="26.59" width="0.18" height="1.02" transform="translate(261.95 -5.12) rotate(154.48)"/><rect class="cls-3" x="130.64" y="27.02" width="0.18" height="1.82" transform="translate(260.74 -3.17) rotate(154.48)"/><rect class="cls-3" x="128.7" y="27.95" width="0.18" height="1.82" transform="translate(257.45 -0.57) rotate(154.49)"/><rect class="cls-3" x="129.49" y="27.53" width="0.18" height="1.02" transform="translate(258.6 -2.47) rotate(154.49)"/><rect class="cls-3" x="127.6" y="28.43" width="0.18" height="1.02" transform="translate(255.39 0.07) rotate(154.49)"/><rect class="cls-3" x="126.77" y="28.87" width="0.18" height="1.82" transform="translate(254.18 2.01) rotate(154.48)"/><rect class="cls-3" x="124.84" y="29.8" width="0.18" height="1.82" transform="translate(250.89 4.61) rotate(154.49)"/><rect class="cls-3" x="125.62" y="29.38" width="0.18" height="1.02" transform="translate(252.04 2.71) rotate(154.49)"/><rect class="cls-3" x="123.73" y="30.28" width="0.18" height="1.02" transform="translate(248.82 5.24) rotate(154.49)"/><rect class="cls-3" x="122.88" y="30.73" width="0.18" height="1.82" transform="translate(247.57 7.23) rotate(154.49)"/><rect class="cls-3" x="121.77" y="31.21" width="0.18" height="1.02" transform="translate(245.5 7.86) rotate(154.49)"/><rect class="cls-3" x="120.95" y="31.65" width="0.18" height="1.82" transform="translate(244.3 9.81) rotate(154.49)"/><rect class="cls-3" x="119.01" y="32.58" width="0.18" height="1.82" transform="translate(241.01 12.4) rotate(154.48)"/><rect class="cls-3" x="119.8" y="32.16" width="0.18" height="1.02" transform="translate(242.15 10.5) rotate(154.48)"/><rect class="cls-3" x="117.91" y="33.06" width="0.18" height="1.02" transform="translate(238.94 13.03) rotate(154.48)"/><text class="cls-4" transform="translate(60.95 31.82)">© unisciel</text></g></g></svg>