<?xml version="1.0" encoding="utf-8"?>
<!-- Generator: Adobe Illustrator 22.0.1, SVG Export Plug-In . SVG Version: 6.00 Build 0)  -->
<svg version="1.1" id="Calque_1" xmlns="http://www.w3.org/2000/svg" xmlns:xlink="http://www.w3.org/1999/xlink" x="0px" y="0px"
	 viewBox="0 0 239.8 64.3" style="enable-background:new 0 0 239.8 64.3;" xml:space="preserve">
<style type="text/css">
	.st0{clip-path:url(#SVGID_2_);}
	.st1{fill:url(#SVGID_3_);}
	.st2{opacity:0.8;}
	.st3{fill:#FFFFFF;}
	.st4{opacity:0.8;fill:#FFFFFF;enable-background:new    ;}
	.st5{opacity:0.5;fill:#FFFFFF;enable-background:new    ;}
</style>
<g>
	<defs>
		<rect id="SVGID_1_" width="239.8" height="64.3"/>
	</defs>
	<clipPath id="SVGID_2_">
		<use xlink:href="#SVGID_1_"  style="overflow:visible;"/>
	</clipPath>
	<g id="Calque_2_1_" class="st0">
		<g id="V2_Entête">
			
				<linearGradient id="SVGID_3_" gradientUnits="userSpaceOnUse" x1="76.9595" y1="92.7097" x2="138.0595" y2="-13.1103" gradientTransform="matrix(1 0 0 -1 0 52)">
				<stop  offset="0" style="stop-color:#E6215A"/>
				<stop  offset="1.000000e-02" style="stop-color:#DC215B"/>
				<stop  offset="7.000000e-02" style="stop-color:#B0235F"/>
				<stop  offset="0.13" style="stop-color:#8B2462"/>
				<stop  offset="0.19" style="stop-color:#6C2565"/>
				<stop  offset="0.26" style="stop-color:#542667"/>
				<stop  offset="0.33" style="stop-color:#432769"/>
				<stop  offset="0.41" style="stop-color:#39276A"/>
				<stop  offset="0.5" style="stop-color:#36276A"/>
				<stop  offset="0.62" style="stop-color:#352A6D"/>
				<stop  offset="0.71" style="stop-color:#303474"/>
				<stop  offset="0.8" style="stop-color:#294582"/>
				<stop  offset="0.88" style="stop-color:#1E5D95"/>
				<stop  offset="0.95" style="stop-color:#117BAD"/>
				<stop  offset="1" style="stop-color:#0792BF"/>
			</linearGradient>
			<path class="st1" d="M-13.1-14v78l14.5,0.3c44,0.4,58.8-25,109.6-25.8c52.5-0.7,118.7-9.4,128.9-38.5l3.1-14H-13.1z"/>
			<g class="st2">
				<path class="st3" d="M13.5,58.9l-0.4,0.3c0,0-2.7-1.6-3.1-3.8s1-5.9,0.5-7.7S8,45.4,5.4,46.2s-3.7,0.4-4.8-0.4
					c-0.8-0.6-1.5-1.3-2.1-2.1l0.6-0.5c0,0,1.6,2.4,2.8,2.6c2.4,0.3,4.3-1.2,6.7-0.6s2.9,2.1,2.6,4.7c-0.3,2.6-1,3.7-0.4,5.9
					C11.3,57.2,12.3,58.3,13.5,58.9z"/>
				<path class="st4" d="M16.4,56.6l0.4-0.3c0,0-1-3-3.1-3.8s-6-0.2-7.7-1.1S4.2,48.5,5.5,46s1.2-3.5,0.6-4.8
					c-0.5-0.9-1-1.7-1.7-2.4l-0.5,0.5c0,0,2,2,2,3.3C5.8,45,3.8,46.5,4,49c0.1,2.5,1.5,3.3,4.1,3.5s3.8-0.3,5.8,0.9
					C15.1,54.1,16,55.3,16.4,56.6z"/>
				<path class="st5" d="M16.2,56.1l-3.1,2.6c0.1,0.1,0.3,0.2,0.4,0.2l3.2-2.6l0,0l-0.3,0.2C16.3,56.4,16.3,56.3,16.2,56.1z"/>
				<path class="st5" d="M15.7,55.1l-3.5,2.9l0.3,0.3l3.4-2.8C15.8,55.3,15.8,55.2,15.7,55.1z"/>
				<path class="st5" d="M15,54.3l-3.5,2.9c0.1,0.1,0.2,0.3,0.3,0.4l3.6-2.9L15,54.3z"/>
				<path class="st5" d="M14.2,53.6L11,56.2c0.1,0.2,0.1,0.3,0.2,0.4l3.4-2.8L14.2,53.6z"/>
				<path class="st5" d="M13.1,53.1l-2.5,2c0,0.2,0.1,0.3,0.1,0.5l2.8-2.3L13.1,53.1z"/>
				<path class="st5" d="M10.6,49l-3.4,2.7l0.6,0.1l2.7-2.2C10.6,49.5,10.6,49.3,10.6,49z"/>
				<path class="st5" d="M6.7,45.9L5,47.3c-0.1,0.3-0.2,0.5-0.2,0.8l2.8-2.2C7.2,45.8,7,45.9,6.7,45.9z"/>
				<path class="st5" d="M5.7,43.8l-2.6,2.1c0.3,0,0.6-0.1,0.9-0.1l1.4-1.2C5.5,44.3,5.6,44,5.7,43.8z"/>
				<path class="st5" d="M5.9,42.6c0-0.1,0-0.2,0-0.3l-4.3,3.5c0.1,0,0.2,0.1,0.3,0.1c0.1,0,0.2,0,0.3,0l3.7-3
					C5.9,42.8,5.9,42.7,5.9,42.6z"/>
				<path class="st5" d="M5.5,41.3l-4.8,3.9l0.4,0.3l4.6-3.8C5.6,41.6,5.6,41.4,5.5,41.3z"/>
				<path class="st5" d="M4.9,40.5l-4.9,4c0.1,0.1,0.2,0.2,0.3,0.3l4.9-4L4.9,40.5z"/>
				<path class="st5" d="M4.4,39.9l-4.9,4l0.3,0.3l4.9-4L4.4,39.9z"/>
				<path class="st5" d="M-0.7,43.6l4.9-4c-0.2-0.2-0.3-0.3-0.3-0.3L4,39.2l0,0l-5,4.1l0,0l0.1-0.1C-0.8,43.3-0.7,43.5-0.7,43.6z"/>
				<path class="st5" d="M10.5,47.9l-4.4,3.6c0.2,0.1,0.3,0.1,0.5,0.2l4-3.3C10.6,48.2,10.6,48,10.5,47.9z"/>
				<path class="st5" d="M8.2,45.9l-3.6,2.9c0,0.2,0,0.4,0,0.6L8.8,46C8.6,45.9,8.4,45.9,8.2,45.9z"/>
				<path class="st5" d="M10.1,46.9l-4.9,3.9c0.1,0.1,0.2,0.2,0.3,0.3l4.7-3.8C10.3,47.2,10.2,47,10.1,46.9z"/>
				<path class="st5" d="M9.3,46.2L4.8,50c0,0.1,0.1,0.3,0.2,0.4l4.8-3.9C9.6,46.4,9.5,46.3,9.3,46.2z"/>
				<path class="st5" d="M10.5,50.2l-2.1,1.7h0.7l1.3-1.1C10.5,50.7,10.5,50.4,10.5,50.2z"/>
				<path class="st5" d="M11.9,52.7l-1.3,1.1c0,0.2,0,0.4,0,0.6l1.9-1.5C12.3,52.8,12.1,52.8,11.9,52.7z"/>
			</g>
			<circle class="st3" cx="142.5" cy="5.5" r="0.5"/>
			<circle class="st3" cx="148.5" cy="5.6" r="0.5"/>
			<circle class="st3" cx="151.1" cy="12.2" r="0.5"/>
			<circle class="st3" cx="154.2" cy="18.5" r="0.5"/>
			<circle class="st3" cx="165.1" cy="25.3" r="0.5"/>
			<circle class="st3" cx="159.6" cy="29.9" r="0.5"/>
			<circle class="st3" cx="152" cy="24.6" r="0.5"/>
			<polygon class="st3" points="151.9,24.6 154,18.6 154.2,18.6 152.1,24.6 159.6,29.8 165,25.3 154.1,18.6 151,12.3 148.5,5.7 
				142.5,5.5 142.5,5.4 148.6,5.5 148.6,5.6 151.1,12.2 154.2,18.5 165.2,25.3 159.6,30 			"/>
			<path class="st3" d="M176.2,19.8c-0.1,0.1-0.3,0.1-0.4,0c-0.1-0.1-0.1-0.3,0-0.4c0.1-0.1,0.2-0.1,0.3,0
				C176.3,19.5,176.3,19.6,176.2,19.8C176.2,19.7,176.2,19.8,176.2,19.8z"/>
			<path class="st3" d="M166.2,13.6c-0.1,0.1-0.2,0.1-0.4,0c-0.1-0.1-0.1-0.2,0-0.4c0.1-0.1,0.2-0.1,0.4,0l0,0
				C166.2,13.3,166.3,13.5,166.2,13.6z"/>
			<path class="st3" d="M165,12.3c-0.1,0.1-0.3,0.1-0.4,0c-0.1-0.1-0.1-0.3,0-0.4s0.3-0.1,0.4,0c0,0,0,0,0,0
				C165.1,12.1,165.1,12.2,165,12.3C165,12.3,165,12.3,165,12.3z"/>
			<path class="st3" d="M162.7,14.9c-0.1,0.1-0.3,0.1-0.4,0c-0.1-0.1-0.1-0.3,0-0.4c0.1-0.1,0.2-0.1,0.3,0c0,0,0,0,0,0
				C162.8,14.6,162.8,14.8,162.7,14.9z"/>
			<path class="st3" d="M164.8,21.5c-0.1,0.1-0.3,0.1-0.4,0c-0.1-0.1-0.1-0.2,0-0.3c0.1-0.1,0.3-0.1,0.4,0
				C164.8,21.3,164.8,21.4,164.8,21.5z"/>
			<path class="st3" d="M159.3,13.7c-0.1,0.1-0.3,0.1-0.4,0c-0.1-0.1-0.1-0.3,0-0.4s0.3-0.1,0.4,0c0,0,0,0,0,0
				C159.4,13.5,159.4,13.6,159.3,13.7C159.3,13.7,159.3,13.7,159.3,13.7z"/>
			<path class="st3" d="M158.1,16.1c-0.1,0.1-0.2,0.1-0.4,0c-0.1-0.1-0.1-0.2,0-0.4s0.2-0.1,0.4,0C158.1,15.8,158.2,16,158.1,16.1z"
				/>
			<path class="st3" d="M158.2,7.8c-0.1,0.1-0.3,0.1-0.4,0c-0.1-0.1-0.1-0.3,0-0.4s0.3-0.1,0.4,0c0,0,0,0,0,0
				C158.3,7.5,158.3,7.7,158.2,7.8C158.2,7.8,158.2,7.8,158.2,7.8z"/>
			<path class="st3" d="M178.8,21.5c-0.1,0.1-0.3,0.1-0.4,0c-0.1-0.1-0.1-0.3,0-0.4c0.1-0.1,0.2-0.1,0.3,0
				C178.8,21.2,178.9,21.3,178.8,21.5C178.8,21.4,178.8,21.5,178.8,21.5z"/>
			<path class="st3" d="M176.9,22.8c-0.1,0.1-0.3,0.1-0.4,0c-0.1-0.1-0.1-0.3,0-0.4c0.1-0.1,0.2-0.1,0.3,0
				C177,22.5,177,22.7,176.9,22.8C176.9,22.8,176.9,22.8,176.9,22.8z"/>
			<path class="st3" d="M175.7,21.8c-0.1,0.1-0.2,0.2-0.4,0.1c-0.1-0.1-0.1-0.3,0-0.4c0.1-0.1,0.3-0.1,0.4-0.1
				C175.8,21.6,175.8,21.7,175.7,21.8z"/>
			<path class="st3" d="M172.3,23c-0.1,0.1-0.2,0.1-0.4,0.1c-0.1-0.1-0.1-0.3,0-0.4c0.1-0.1,0.2-0.1,0.3,0
				C172.4,22.7,172.4,22.9,172.3,23C172.3,23,172.3,23,172.3,23z"/>
			<path class="st3" d="M169.6,24.5c-0.1,0.1-0.3,0.1-0.4,0c-0.1-0.1-0.1-0.3,0-0.4c0.1-0.1,0.2-0.1,0.3,0
				C169.7,24.2,169.7,24.4,169.6,24.5C169.6,24.5,169.6,24.5,169.6,24.5z"/>
			<path class="st3" d="M171.7,27.5c-0.1,0.1-0.2,0.2-0.4,0.1c-0.1-0.1-0.1-0.3,0-0.4c0.1-0.1,0.3-0.1,0.4-0.1
				C171.8,27.3,171.8,27.4,171.7,27.5z"/>
			<path class="st3" d="M173,18.3c-0.1,0.1-0.3,0.1-0.4,0s-0.1-0.3,0-0.4c0.1-0.1,0.2-0.1,0.3,0C173.2,18.1,173.2,18.2,173,18.3z"/>
			<path class="st3" d="M171.8,18.8c-0.1,0.1-0.2,0.1-0.4,0.1c0,0,0,0,0,0c-0.1-0.1-0.2-0.3-0.1-0.4c0.1-0.1,0.3-0.2,0.4-0.1
				C171.9,18.5,171.9,18.6,171.8,18.8C171.8,18.8,171.8,18.8,171.8,18.8z"/>
			<polygon class="st3" points="172.1,22.9 172.1,22.9 162.5,14.7 164.7,12.2 164.7,12.3 162.6,14.7 172.1,22.8 175.5,21.6 
				176.7,22.6 178.5,21.3 176,19.6 172.9,18.1 171.6,18.7 166,13.6 164.8,12.2 158,7.6 158,7.6 164.8,12.2 166,13.6 171.6,18.6 
				172.9,18 176,19.6 178.6,21.3 176.7,22.7 175.5,21.7 			"/>
			<polygon class="st3" points="171.5,27.4 172.1,22.9 171.6,18.6 171.6,18.6 172.1,22.9 172.1,22.9 171.5,27.4 			"/>
			
				<rect x="169.2" y="23.6" transform="matrix(0.8806 -0.4738 0.4738 0.8806 9.1838 83.7142)" class="st3" width="3.1" height="0.1"/>
			<polygon class="st3" points="164.5,21.3 162.5,14.7 159.1,13.6 157.9,16 157.8,15.9 159.1,13.5 162.6,14.7 162.6,14.7 
				164.6,21.3 			"/>
			<g class="st2">
				<path class="st3" d="M198.4,18.3c-0.1-0.3-0.2-0.5-0.3-0.7c-0.1-0.2-0.2-0.5-0.4-0.7c-0.2-0.1-0.4,0-0.4,0.1c0,0,0,0.1,0,0.2
					c0,0.1,0,0.3,0.1,0.4l0.2,0.3c0,0,0,0,0,0.1h-7c0.3-0.3,0.6-0.6,0.9-0.9l1.5-1.4l1.4-1.4l0.7-0.7l0.3-0.3
					c0.1-0.1,0.2-0.3,0.2-0.4c0,0,0-0.1,0-0.1c0-0.1,0-0.2-0.1-0.3c-0.9-0.9-1.8-1.9-2.7-2.8l-1.4-1.4c-0.2-0.2-0.3-0.3-0.5-0.5l0,0
					h1h4c0.5,0,1,0,1.6,0l-0.1,0.3c-0.1,0.2-0.2,0.4-0.2,0.7c0,0.2,0.2,0.3,0.4,0.2c0,0,0,0,0.1,0c0.2-0.1,0.3-0.4,0.4-0.6l0.2-0.6
					c0-0.2,0-0.3-0.2-0.4c0,0,0,0-0.1,0l0,0c-0.7-0.1-1.3-0.2-2-0.1h-2c-0.7,0-1.3,0-2,0h-1c-0.3-0.1-0.7,0-1,0.2
					c-0.1,0.1-0.1,0.2,0,0.2c0,0,0,0.1,0.1,0.1l0,0l0.1,0.1c0.1,0.2,0.2,0.3,0.3,0.5c0.2,0.2,0.4,0.4,0.6,0.6l1.3,1.3
					c0.9,0.9,1.7,1.8,2.6,2.6l-0.1,0c-0.1,0.1-0.2,0.2-0.4,0.3l-0.7,0.7l-1.4,1.4c-0.4,0.5-0.9,0.9-1.4,1.4c-0.5,0.4-1,0.9-1.4,1.4
					c0,0,0,0.1,0,0.1c-0.1,0.1-0.1,0.2,0,0.3c0,0,0,0,0,0c0.1,0.1,0.2,0.1,0.4,0.1c0.1,0,0.3,0,0.4,0h6.9h0.1h0.3h0.1
					c0.1,0.1,0.3,0.2,0.4,0.1C198.4,18.6,198.5,18.4,198.4,18.3z"/>
				<path class="st3" d="M193,20.3c-0.1-0.4-0.4-0.8-0.8-0.7c-0.3,0.1-0.6,0.3-0.7,0.5c-0.1-0.1-0.2-0.1-0.3-0.1
					c-0.1,0-0.1,0.1-0.1,0.1c0,0.3,0,0.5,0,0.8v0.1c0,0.3,0,0.5,0.1,0.8c0.1,0.2,0.5,0.2,0.4-0.1l-0.1-0.5c0-0.2,0-0.3,0.1-0.5
					c0.1-0.2,0.3-0.7,0.5-0.7s0.3,0.4,0.3,0.5c0,0.4,0,0.8,0,1.2c0,0.1,0.1,0.2,0.2,0.3h0.2c0.1,0,0.2-0.1,0.2-0.2
					C193.2,21.3,193.2,20.8,193,20.3z"/>
				<path class="st3" d="M195.1,20.4c-0.2-0.1-0.5-0.1-0.7,0c-0.2,0-0.5,0.1-0.6,0.3s0,0.2,0.1,0.2c0.2,0,0.4,0,0.6,0
					c0.2,0,0.4,0,0.6,0C195.4,21,195.4,20.5,195.1,20.4z"/>
				<path class="st3" d="M197.7,21.8c-0.1-0.8-0.2-1.6-0.2-2.3c0-0.2-0.3-0.4-0.5-0.2s-0.4,0.4-0.5,0.6c-0.1,0.1-0.2,0.2-0.2,0.3
					c-0.1,0.1-0.1,0.2-0.1,0.3c0,0,0.1,0.1,0.1,0.1c0.1,0,0.2,0,0.3-0.1c0.1-0.1,0.2-0.2,0.3-0.3l0.1-0.1c0.1,0.6,0.1,1.1,0.2,1.7
					c0,0.1,0.1,0.3,0.3,0.3C197.5,22.1,197.7,22,197.7,21.8C197.7,21.8,197.7,21.8,197.7,21.8z"/>
				<path class="st3" d="M196.7,5c-0.1-0.4-0.5-0.7-0.9-0.8c-0.7-0.1-1.4,0.1-1.9,0.7l-0.2-0.1c-0.2-0.1-0.5-0.2-0.7-0.3
					c-0.4-0.2-0.9-0.1-1.3,0.1c-0.4,0.2-0.6,0.6-0.5,1c0.1,0.4,0.4,0.7,0.8,0.8c0.7,0.1,1.3-0.2,1.8-0.7c0.1,0.1,0.3,0.1,0.4,0.2
					c0.2,0.1,0.5,0.2,0.7,0.2c0.4,0.1,0.9,0.1,1.4,0C196.6,5.8,196.8,5.4,196.7,5z M191.7,5.3c0.1-0.4,0.6-0.5,0.9-0.4
					c0.3,0.1,0.5,0.2,0.8,0.4c-0.3,0.3-0.6,0.5-1,0.5C192.1,5.8,191.6,5.6,191.7,5.3L191.7,5.3z M195.3,5.6c-0.3,0-0.5-0.1-0.8-0.2
					l-0.2-0.1c0,0,0-0.1,0-0.1l0,0c0.3-0.3,0.7-0.4,1.1-0.5c0.3,0,0.8,0.2,0.8,0.6S195.6,5.6,195.3,5.6L195.3,5.6z"/>
				<path class="st3" d="M205.8,14.4c-0.1-0.3-0.6-0.2-0.6,0.1c-0.1,0.5-0.5,0.8-0.9,0.8c-0.6-0.1-1.2-0.4-1.6-0.9
					c-0.3-0.3-0.6-0.6-0.9-0.8v-0.1c0.3-0.8,0.6-1.6,0.8-2.5c0.1-0.4,0.2-0.9,0.3-1.3c0.1-0.4,0.1-0.9,0.1-1.3
					c0-0.1-0.1-0.1-0.1-0.1c0,0-0.1,0-0.1,0.1c-0.1,0.4-0.2,0.7-0.3,1.1s-0.2,0.7-0.3,1.1c-0.2,0.7-0.4,1.4-0.6,2.1l-0.2,0.7
					c-0.1-0.1-0.2-0.1-0.3-0.1c-0.6-0.3-1.2-0.3-1.8,0c-0.5,0.3-0.9,0.8-0.8,1.4c0,0.6,0.4,1.1,0.9,1.3c0.6,0.2,1.2-0.1,1.5-0.5
					c0.3-0.4,0.5-0.8,0.6-1.2c0.4,0.4,0.8,0.9,1.2,1.2c0.5,0.5,1.2,0.7,1.9,0.5C205.4,15.7,205.8,15.1,205.8,14.4z M200.8,14.5
					c-0.2,0.4-0.6,0.9-1.1,0.9c-0.4-0.1-0.7-0.5-0.7-1c0.1-0.5,0.4-0.9,0.9-0.9c0.4-0.1,0.9,0,1.3,0.3C201.1,14,201,14.3,200.8,14.5
					L200.8,14.5z"/>
				<path class="st3" d="M208,15.1c-0.1-0.3-0.4-0.6-0.8-0.7c-0.3,0-0.5,0.1-0.7,0.3c0,0,0-0.1-0.1-0.1c0-0.1-0.1-0.1-0.2-0.1
					c0,0-0.1,0-0.1,0.1c0,0.2,0,0.5,0,0.8c0,0.1,0,0.2,0,0.3c0,0.2,0,0.3,0,0.5c0.1,0.3,0.5,0.2,0.5-0.1c0-0.1,0-0.2,0-0.2
					c0-0.2,0-0.5,0.1-0.7c0.1-0.2,0.2-0.3,0.4-0.3c0.2,0.1,0.3,0.3,0.3,0.5c0,0.1,0,0.3,0,0.4c0,0.2-0.1,0.3,0.1,0.5
					c0.1,0.1,0.2,0.1,0.3,0c0.2-0.1,0.2-0.4,0.2-0.6C208.1,15.5,208.1,15.3,208,15.1z"/>
			</g>
		</g>
	</g>
</g>
</svg>
