<svg xmlns="http://www.w3.org/2000/svg" viewBox="0 0 41.16 43.27"><defs><style>.cls-1,.cls-3,.cls-4{fill:#fff;}.cls-2,.cls-4{opacity:0.7;}.cls-3,.cls-4{stroke:#fff;stroke-miterlimit:10;stroke-width:0.92px;}</style></defs><g id="Calque_2" data-name="Calque 2"><g id="Calque_9" data-name="Calque 9"><path class="cls-1" d="M20.42,6A15.43,15.43,0,1,0,35.84,21.44,15.43,15.43,0,0,0,20.42,6Zm-.08,29.48a14.06,14.06,0,1,1,14.06-14A14.05,14.05,0,0,1,20.34,35.49Z"/><g class="cls-2"><circle class="cls-1" cx="22.62" cy="16.79" r="3.89" transform="translate(-5.24 20.91) rotate(-45)"/></g><circle class="cls-1" cx="23.05" cy="16.33" r="3.15" transform="translate(-4.8 21.08) rotate(-45)"/><g class="cls-2"><rect class="cls-1" x="11.76" y="12.81" width="3.46" height="6.28" rx="1.71" transform="translate(-4.81 5.87) rotate(-20.92)"/></g><rect class="cls-1" x="12.14" y="12.87" width="2.91" height="5.28" rx="1.44" transform="translate(-4.64 5.87) rotate(-20.92)"/><g class="cls-2"><rect class="cls-1" x="21.81" y="28.57" width="6.28" height="3.46" rx="1.71" transform="translate(-5.01 4.94) rotate(-10.29)"/></g><rect class="cls-1" x="22.85" y="28.51" width="4.83" height="2.66" rx="1.32" transform="translate(-4.92 4.99) rotate(-10.29)"/><path class="cls-1" d="M31.58,21.67a1.27,1.27,0,1,1-1.27-1.27A1.27,1.27,0,0,1,31.58,21.67Z"/><path class="cls-1" d="M31.39,15.47a1.32,1.32,0,1,1-1.32-1.31A1.32,1.32,0,0,1,31.39,15.47Z"/><path class="cls-1" d="M25.41,25.27A1.3,1.3,0,1,1,24.11,24,1.3,1.3,0,0,1,25.41,25.27Z"/><path class="cls-1" d="M24.11,10.34a1.29,1.29,0,1,1-1.29-1.29A1.29,1.29,0,0,1,24.11,10.34Z"/><path class="cls-1" d="M11.36,22.52a1.08,1.08,0,1,1-1.08-1.08A1.08,1.08,0,0,1,11.36,22.52Z"/><circle class="cls-1" cx="16.02" cy="31.75" r="1.15"/><circle class="cls-1" cx="16.61" cy="11.63" r="0.59"/><circle class="cls-1" cx="13.49" cy="27.55" r="0.59"/><circle class="cls-1" cx="29.35" cy="25.97" r="0.59"/><path class="cls-1" d="M17.19,23.13a1.08,1.08,0,1,1-1.08-1.08A1.08,1.08,0,0,1,17.19,23.13Z"/><path class="cls-3" d="M26.36,7.53a.3.3,0,0,1-.29-.26c-.09-.95.7-1.56,1.53-2.22s1.76-1.37,1.75-2.47a.3.3,0,0,1,.29-.3h0a.31.31,0,0,1,.3.29C30,4,28.89,4.78,28,5.51c-.73.58-1.37,1.08-1.31,1.7a.29.29,0,0,1-.26.32Z"/><path class="cls-4" d="M30.25,9.72a.31.31,0,0,1-.13,0A.3.3,0,0,1,30,9.3c.16-.32,1.57-3.14,3-3.54a1.17,1.17,0,0,1,1,.14.29.29,0,1,1-.31.49.61.61,0,0,0-.48-.07c-1,.28-2.23,2.43-2.63,3.23A.28.28,0,0,1,30.25,9.72Z"/><path class="cls-3" d="M32.75,12.9h-.07a.29.29,0,0,1-.21-.35c.37-1.41,1.54-1.15,2.48-.95s1.69.32,2.06-.42a.3.3,0,0,1,.4-.13.28.28,0,0,1,.12.39c-.6,1.2-1.77.94-2.71.73-1.11-.24-1.58-.26-1.78.52A.31.31,0,0,1,32.75,12.9Z"/><path class="cls-4" d="M35.91,16.66a2,2,0,0,1-1.22-.37.3.3,0,0,1-.07-.41.29.29,0,0,1,.41-.06c.8.57,2,.09,3-.34.85-.35,1.57-.65,2.13-.42a1,1,0,0,1,.54.6.29.29,0,0,1-.54.21.45.45,0,0,0-.23-.27c-.33-.14-1,.14-1.67.42A6.43,6.43,0,0,1,35.91,16.66Z"/><path class="cls-3" d="M39.75,21.72a.27.27,0,0,1-.24-.13c-.63-1-2.79-.81-3.57-.66a.3.3,0,0,1-.34-.24.29.29,0,0,1,.24-.34c.13,0,3.19-.56,4.16.92a.29.29,0,0,1-.09.4A.24.24,0,0,1,39.75,21.72Z"/><path class="cls-4" d="M39.9,26.55c-1.39,0-3.89-1.47-4.75-2a.3.3,0,0,1-.09-.41.29.29,0,0,1,.4-.09c1.94,1.21,4.31,2.25,4.75,1.86a.29.29,0,0,1,.41,0,.3.3,0,0,1,0,.41A1,1,0,0,1,39.9,26.55Z"/><path class="cls-3" d="M39,30.88a.29.29,0,0,1-.29-.3c0-.54-.74-.62-2-.69s-2.84-.14-2.84-1.53a.29.29,0,1,1,.58,0c0,.78.91.88,2.29.95,1.18.06,2.53.13,2.53,1.27A.3.3,0,0,1,39,30.88Z"/><path class="cls-4" d="M36.08,35.45h0c-.46,0-.85-.53-1.39-1.24-.75-1-1.68-2.19-2.95-2.33a.29.29,0,0,1-.25-.33.28.28,0,0,1,.32-.25c1.51.17,2.57,1.55,3.34,2.55.32.43.77,1,1,1l.06,0a.29.29,0,1,1,.43.39A.66.66,0,0,1,36.08,35.45Z"/><path class="cls-3" d="M31.86,39.55c-.93,0-1.28-1.29-1.62-2.54-.29-1.08-.63-2.32-1.29-2.52a.29.29,0,0,1,.17-.56c1,.3,1.34,1.64,1.68,2.93S31.44,39.05,32,39a.3.3,0,0,1,.34.24.29.29,0,0,1-.24.34Z"/><path class="cls-4" d="M27.1,41.8a.72.72,0,0,1-.48-.18c-.45-.39-.48-1.36-.53-2.48s-.09-2.57-.67-2.93a.3.3,0,0,1-.1-.4.29.29,0,0,1,.4-.1c.85.52.9,2,1,3.41,0,.86.07,1.84.32,2.06a.16.16,0,0,0,.13,0,.29.29,0,1,1,.06.58Z"/><path class="cls-3" d="M19.49,42.81a.29.29,0,0,1-.16,0c-.63-.39-.23-1.33.23-2.42s1.1-2.58.6-3.48a.29.29,0,0,1,.51-.29c.64,1.16,0,2.73-.57,4-.27.62-.67,1.57-.46,1.69a.29.29,0,0,1-.15.54Z"/><path class="cls-3" d="M11.05,39.53a.29.29,0,0,1-.28-.22c-.26-1,.88-1.44,1.88-1.8,1.2-.44,2-.78,1.9-1.52a.3.3,0,0,1,.59-.06c.12,1.25-1.22,1.73-2.29,2.12s-1.64.64-1.51,1.12a.29.29,0,0,1-.21.35Z"/><path class="cls-4" d="M6.8,37a.29.29,0,0,1-.29-.27c-.08-1,.81-1.52,1.67-2.07s1.76-1.11,1.76-2a.29.29,0,1,1,.58,0c0,1.25-1.08,1.93-2,2.53-.78.5-1.45.93-1.4,1.53a.29.29,0,0,1-.26.32Z"/><path class="cls-3" d="M1.55,32.93H1.49a.29.29,0,0,1-.22-.35c.2-.85,1.32-1,2.5-1.18,1.86-.26,3.19-.56,3.32-2a.3.3,0,0,1,.32-.26.31.31,0,0,1,.27.32c-.2,2-2.21,2.28-3.83,2.51-1,.14-1.91.27-2,.73A.29.29,0,0,1,1.55,32.93Z"/><path class="cls-4" d="M1.93,28.12H1.76A1.61,1.61,0,0,1,.5,27.29a.3.3,0,0,1,.1-.4A.29.29,0,0,1,1,27a1,1,0,0,0,.81.54c1.24.13,3.14-1.64,3.78-2.34a.29.29,0,0,1,.41,0,.3.3,0,0,1,0,.41C5.92,25.69,3.68,28.12,1.93,28.12Z"/><path class="cls-3" d="M4.68,22c-.43,0-.76-.34-1.15-.74A3.48,3.48,0,0,0,.76,19.92a.28.28,0,0,1-.3-.28.29.29,0,0,1,.28-.3A4.12,4.12,0,0,1,4,20.86c.28.28.54.55.73.55h0A.51.51,0,0,0,5,21.23a.29.29,0,1,1,.42.4,1,1,0,0,1-.73.37Z"/><path class="cls-4" d="M6.36,16.2A.3.3,0,0,1,6.09,16c0-.11-1.1-2.72-3.51-2.05a.29.29,0,0,1-.36-.2.29.29,0,0,1,.2-.36c2.92-.82,4.2,2.37,4.22,2.4a.3.3,0,0,1-.17.38Z"/><path class="cls-3" d="M8.51,11.59a.29.29,0,0,1-.28-.25c-.06-.44-.51-.62-1.23-.88S5.18,9.81,4.91,8.69a.3.3,0,0,1,.22-.35.3.3,0,0,1,.35.22c.2.81.93,1.07,1.71,1.35s1.51.53,1.61,1.35a.29.29,0,0,1-.25.33Z"/><path class="cls-4" d="M13,8.55a.29.29,0,0,1-.29-.29c0-.88-1-1.69-2-2.48S8.92,4.31,8.84,3.48a.3.3,0,0,1,.27-.32.28.28,0,0,1,.31.26c.06.59.87,1.26,1.65,1.91,1.06.87,2.16,1.78,2.17,2.93a.29.29,0,0,1-.29.29Z"/><path class="cls-3" d="M17.08,6.44H17a.3.3,0,0,1-.2-.37c.21-.71-.29-1.6-.77-2.46-.6-1.06-1.21-2.15-.54-3a.28.28,0,0,1,.4-.06A.29.29,0,0,1,16,.93c-.43.57.06,1.45.58,2.38s1.11,2,.83,2.92A.3.3,0,0,1,17.08,6.44Z"/><path class="cls-4" d="M21.87,6.44a.29.29,0,0,1-.27-.2c-.13-.38-1.21-3.76-.49-5.17a1.15,1.15,0,0,1,.68-.6.3.3,0,0,1,.36.19A.29.29,0,0,1,22,1a.55.55,0,0,0-.33.31c-.52,1,.2,3.75.52,4.71a.29.29,0,0,1-.18.37Z"/></g></g></svg>