<svg xmlns="http://www.w3.org/2000/svg" viewBox="0 0 25.18 35.17"><defs><style>.cls-1,.cls-3{fill:#fff;}.cls-2{fill:none;}.cls-3{opacity:0.7;}</style></defs><g id="Calque_2" data-name="Calque 2"><g id="Calque_9" data-name="Calque 9"><path class="cls-1" d="M22.74,21.35a.35.35,0,0,1-.35-.29,9.78,9.78,0,0,0-.81-2.39l-.09-.18a.61.61,0,0,0-.07-.14,12.24,12.24,0,0,0-2-2.71.36.36,0,0,1-.09-.12l-.27-.26a10.64,10.64,0,0,0-1.13-1l-.09-.09a3.27,3.27,0,0,1-.37-.28,1.14,1.14,0,0,0-.23-.15l-.14-.1a.35.35,0,1,1,.39-.59l.13.08.3.2,0,0a2.41,2.41,0,0,0,.35.25.4.4,0,0,1,.11.12,10.4,10.4,0,0,1,1.16,1l.26.25a.45.45,0,0,1,.1.13h0A13.54,13.54,0,0,1,22.05,18a1.72,1.72,0,0,1,.09.19.91.91,0,0,0,.07.14v0a10.39,10.39,0,0,1,.87,2.57.36.36,0,0,1-.28.42Zm-4.8-7.15Zm.45-.53,0,0Z"/><circle class="cls-1" cx="20.68" cy="21.26" r="0.41"/><path class="cls-1" d="M8.74,21.36a.9.9,0,1,1-.89-.9A.89.89,0,0,1,8.74,21.36Z"/><path class="cls-1" d="M14.59,19.66a1,1,0,1,1-1.4,0A1,1,0,0,1,14.59,19.66Z"/><circle class="cls-1" cx="10.92" cy="19.17" r="0.65"/><path class="cls-1" d="M12.59,35.17A12.59,12.59,0,0,1,9,10.52V3.82c-1.39-.39-2.11-1-2.11-1.69C6.86,1.1,8.65,0,12.59,0s5.73,1.1,5.73,2.13c0,.72-.73,1.3-2.11,1.69v6.7a12.59,12.59,0,0,1-3.62,24.65Zm0-34.28c-3.19,0-4.84.87-4.84,1.24,0,.16.43.59,1.77.91l.34.08V11.2l-.33.09a11.69,11.69,0,1,0,6.12,0l-.33-.09V3.12L15.66,3c1.33-.32,1.76-.75,1.76-.91C17.42,1.76,15.78.89,12.59.89Z"/><path class="cls-2" d="M15.88,24.61a.75.75,0,0,0,.28.18,1,1,0,0,0-.11-1.24,2,2,0,0,0-.19-.12A.85.85,0,0,0,15.88,24.61Z"/><path class="cls-2" d="M21.6,23.27a.36.36,0,0,0,.35.36.28.28,0,0,0,.13,0,.42.42,0,0,0,.06-.19.42.42,0,0,0-.39-.41A.33.33,0,0,0,21.6,23.27Z"/><path class="cls-1" d="M14.11,31.62A9.21,9.21,0,0,1,4.9,22.49H1.85a10.74,10.74,0,0,0,21.48,0A9.21,9.21,0,0,1,14.11,31.62Z"/><path class="cls-3" d="M4.9,22.49a9.22,9.22,0,0,0,18.43,0ZM16.05,25a1,1,0,0,1-1.41,0,1,1,0,0,1,0-1.41,1,1,0,0,1,1.22-.12,2,2,0,0,1,.19.12,1.15,1.15,0,0,1,0,1.41Zm5.68-1.14a.41.41,0,0,1-.41-.41.41.41,0,0,1,.41-.41h0a.42.42,0,0,1,.39.41.42.42,0,0,1-.06.19A.4.4,0,0,1,21.73,23.82Z"/></g></g></svg>