<svg xmlns="http://www.w3.org/2000/svg" viewBox="0 0 28.2 35.27"><defs><style>.cls-1,.cls-2,.cls-3,.cls-4{fill:#fff;}.cls-1{opacity:0.3;}.cls-2{opacity:0.7;}.cls-3{opacity:0.2;}</style></defs><g id="Calque_2" data-name="Calque 2"><g id="Calque_9" data-name="Calque 9"><circle class="cls-1" cx="12.91" cy="15.2" r="12.34"/><path class="cls-2" d="M12.91,4.62a12.35,12.35,0,0,1,12.3,11.46c0-.28.05-.58.05-.88a12.35,12.35,0,0,0-24.69,0,6.41,6.41,0,0,0,0,.88A12.35,12.35,0,0,1,12.91,4.62Z"/><path class="cls-2" d="M5.38,32.33H20.67a1.18,1.18,0,0,1,1.17,1.18v1.17H4.21V33.51A1.17,1.17,0,0,1,5.38,32.33Z"/><path class="cls-2" d="M15,29.66v2.67H11V29.71a16.26,16.26,0,0,0,1.85.11A13.89,13.89,0,0,0,15,29.66Z"/><path class="cls-2" d="M16.37,17.82,18.44,20l-2.07,2.7-2.61,2.19-.93,2.67H11.68l-.1-2.64L12,23.43l.36-3.64-.62-2.2.68-1.27-.64-.68L8.43,12V8.09l.46-.68L9.18,6.3l-.44-.59V5.35l0-1.71a10.46,10.46,0,0,1,4.21-.78A10,10,0,0,1,17,3.53L16.19,4.7l-.5.21-1.43.59-.34,1.37,1.34.82L17,6.51l.37.83,1.17.94.14,1.46-1.84.1-.21.56-1.45.1L13.5,12l-1.58-.17-.08.75.58,1.25L14.25,15l1.31,1.5Z"/><path class="cls-3" d="M17,3.53,16.19,4.7l-.5.21a11.78,11.78,0,0,0-2.78-.29,12.36,12.36,0,0,0-4.21.74l0-1.71a10.69,10.69,0,0,1,4.25-.79A10,10,0,0,1,17,3.53Z"/><path class="cls-4" d="M28.2,15.2A15.29,15.29,0,0,0,12.91,0,15,15,0,0,0,11,.12a.59.59,0,0,0-.51.66.59.59,0,0,0,.64.5,12.89,12.89,0,0,1,1.76-.1,14.06,14.06,0,0,1,1.83.12l-.2,1.05a14.7,14.7,0,0,0-1.63-.08h-.72l-.58,0h0a11.18,11.18,0,0,0-1.82.32,12.93,12.93,0,0,0,.52,25.21l-.19,1.08a14,14,0,0,1-4-1.41.58.58,0,0,0-.81.22.59.59,0,0,0,.23.81,14.92,14.92,0,0,0,4.86,1.63v1.56H5.38a1.76,1.76,0,0,0-1.76,1.77v1.17a.58.58,0,0,0,.59.59H21.84a.58.58,0,0,0,.59-.59V33.51a1.76,1.76,0,0,0-1.76-1.77H15.6V30.15A15.29,15.29,0,0,0,28.2,15.2Zm-3.53,0a11.76,11.76,0,0,1-11,11.72l.59-1.76,2.48-2.09a.2.2,0,0,0,.09-.09l2.07-2.69a.58.58,0,0,0-.05-.77l-2-2.08-.76-1.31L16,16l-1.32-1.47a.43.43,0,0,0-.12-.11l-1.64-1.07-.44-1h0l1,.12a.67.67,0,0,0,.45-.14l1.54-1.32,1.25-.1a.58.58,0,0,0,.51-.37l.08-.21,1.45-.07a.62.62,0,0,0,.42-.2.66.66,0,0,0,.14-.44l-.16-1.48a.61.61,0,0,0-.21-.4L17.9,7l-.32-.7A.6.6,0,0,0,16.8,6l-.08,0L15.26,7l-.66-.39L14.77,6l1.67-.67a.67.67,0,0,0,.27-.23l.51-.79A11.78,11.78,0,0,1,24.67,15.2ZM15.8,4.27,14,5a.61.61,0,0,0-.35.4l-.34,1.37a.61.61,0,0,0,.27.66L15,8.23a.62.62,0,0,0,.59,0l1.17-.79.09.2a.56.56,0,0,0,.16.21l1,.79.05.59-1.22.06a.59.59,0,0,0-.52.38l-.08.21L15.11,10a.61.61,0,0,0-.34.14l-1.45,1.25L12,11.2a.61.61,0,0,0-.43.13.62.62,0,0,0-.22.4l-.07.76a.56.56,0,0,0,0,.31L11.9,14a.61.61,0,0,0,.21.24l1.77,1.13,1.21,1.38.76,1.33a.47.47,0,0,0,.09.12L17.66,20l-1.72,2.24-2.56,2.14a.68.68,0,0,0-.18.26l-.79,2.27h-.17l-.08-2,.37-1.35v-.1l.38-3.61a.81.81,0,0,0,0-.22l-.59-2,.59-1.07a.59.59,0,0,0-.09-.68L9,11.77V8.25l.36-.53a.38.38,0,0,0,.08-.17l.26-1.08A.65.65,0,0,0,9.63,6L9.3,5.54l0-1.47.38-.13c.28-.08.58-.15.85-.21h.09a3.67,3.67,0,0,1,1.16-.2h0a11.48,11.48,0,0,1,1.17-.07A12.25,12.25,0,0,1,16,3.9ZM1.15,15.2a11.78,11.78,0,0,1,7-10.71l0,1.24a.55.55,0,0,0,.12.35l.26.35-.18.74-.4.59a.57.57,0,0,0-.11.33V12a.64.64,0,0,0,.15.4L11.28,16l.36.37-.49.9a.56.56,0,0,0,0,.44l.58,2.1-.32,3.45L11,24.69a.49.49,0,0,0,0,.17l.07,1.93A11.75,11.75,0,0,1,1.15,15.2ZM11.67,28.08h0a10.2,10.2,0,0,0,1.24.05A12.93,12.93,0,0,0,17.16,3a8.19,8.19,0,0,0-1.46-.44l.18-1.06a14,14,0,0,1-4.26,27.68h-.35l.18-1.09Zm9.58,5.43v.59H4.79v-.59a.59.59,0,0,1,.59-.59H20.67A.58.58,0,0,1,21.25,33.51Zm-9.63-1.77V30.41h.12c.39,0,.77,0,1.17,0h.45c.31,0,.62,0,.92-.05h.18v1.34Z"/></g></g></svg>