<svg xmlns="http://www.w3.org/2000/svg" viewBox="0 0 32.94 30.24"><defs><style>.cls-1{opacity:0.7;}.cls-2{fill:#fff;}</style></defs><g id="Calque_2" data-name="Calque 2"><g id="Calque_9" data-name="Calque 9"><g class="cls-1"><circle class="cls-2" cx="18.44" cy="16.32" r="4.08" transform="translate(-3.74 5.62) rotate(-15.76)"/><circle class="cls-2" cx="12.77" cy="2.65" r="2.15" transform="translate(-0.19 4.08) rotate(-18.03)"/><circle class="cls-2" cx="12.27" cy="27.98" r="1.75"/></g><path class="cls-2" d="M17,11.87a4.7,4.7,0,1,1-3.11,3.52,4.61,4.61,0,0,1,2-3A4.42,4.42,0,0,1,17,11.87Zm2.58,7.75a3.28,3.28,0,0,0,.82-.4,3.48,3.48,0,0,0,1-4.82,3.44,3.44,0,0,0-2.21-1.49,3.51,3.51,0,0,0-2.62.51A3.44,3.44,0,0,0,15,15.63a3.48,3.48,0,0,0,4.51,4Z"/><path class="cls-2" d="M26,4.36a2.24,2.24,0,0,1,2.57.88h0a2.21,2.21,0,0,1,.32,1.68,2.17,2.17,0,0,1-.95,1.41,2.23,2.23,0,0,1-3.09-.62A2.26,2.26,0,0,1,24.5,6a2.22,2.22,0,0,1,1-1.41A2.11,2.11,0,0,1,26,4.36ZM27.71,5.8A1.23,1.23,0,0,0,26,5.45a1.23,1.23,0,0,0-.34,1.7,1.23,1.23,0,0,0,2.22-.43,1.24,1.24,0,0,0-.18-.92Z"/><path class="cls-2" d="M11.94.14A2.61,2.61,0,0,1,13.3.05,2.64,2.64,0,0,1,15,1.19a2.64,2.64,0,0,1-.74,3.66A2.65,2.65,0,1,1,11.31.44,2.6,2.6,0,0,1,11.94.14ZM13.3,4.21A1.93,1.93,0,0,0,13.68,4a1.64,1.64,0,0,0,.46-2.28h0a1.64,1.64,0,0,0-2.27-.46A1.64,1.64,0,0,0,13.3,4.21Z"/><path class="cls-2" d="M1,17.35a1.5,1.5,0,0,1,1.72.59h0A1.49,1.49,0,0,1,1.2,20.23,1.5,1.5,0,0,1,0,18.47a1.5,1.5,0,0,1,.64-.95A1.62,1.62,0,0,1,1,17.35ZM1.9,18.5a.49.49,0,0,0-.68-.14.53.53,0,0,0-.21.31.51.51,0,0,0,.39.58.53.53,0,0,0,.37-.07.52.52,0,0,0,.2-.32.47.47,0,0,0-.07-.36Z"/><path class="cls-2" d="M11.55,25.84a2.26,2.26,0,1,1-1.42,2.86A2.27,2.27,0,0,1,11.55,25.84Zm1.12,3.33a1.26,1.26,0,1,0-1.59-.79A1.26,1.26,0,0,0,12.67,29.17Z"/><path class="cls-2" d="M29.17,20.55a2.86,2.86,0,1,1-1.8,3.62A2.86,2.86,0,0,1,29.17,20.55ZM30.67,25a1.86,1.86,0,1,0-2.34-1.17A1.87,1.87,0,0,0,30.67,25Z"/><rect class="cls-2" x="24.59" y="16.52" width="1" height="7.16" transform="translate(-4.33 33.07) rotate(-62.47)"/><rect class="cls-2" x="10.96" y="22.6" width="7.37" height="1" transform="translate(-12.65 24.85) rotate(-61.28)"/><rect class="cls-2" x="2.34" y="17.06" width="12.1" height="1" transform="translate(-2.53 1.45) rotate(-8.59)"/><rect class="cls-2" x="14.65" y="4.33" width="1" height="8.58" transform="translate(-2.17 6.7) rotate(-23.3)"/><rect class="cls-2" x="19.91" y="10.09" width="7.04" height="1" transform="translate(0.52 22.27) rotate(-51.33)"/></g></g></svg>