<svg xmlns="http://www.w3.org/2000/svg" viewBox="0 0 46.04 32.94"><defs><style>.cls-1,.cls-2{fill:#fff;}.cls-1{opacity:0.7;}</style></defs><g id="Calque_2" data-name="Calque 2"><g id="Calque_9" data-name="Calque 9"><polygon class="cls-1" points="20.79 22.24 19.23 20.59 19.39 19.92 21.6 22.2 20.79 22.24"/><polygon class="cls-1" points="22.07 21.97 19.16 18.98 19.27 18.26 22.94 21.99 22.07 21.97"/><polygon class="cls-1" points="23.86 22.22 19.43 17.7 19.67 17.11 24.66 22.17 23.86 22.22"/><polygon class="cls-1" points="25.27 22.08 19.45 16.17 19.58 15.47 25.95 21.91 25.27 22.08"/><polygon class="cls-1" points="26.96 22.23 19.47 14.65 19.49 13.84 27.66 22.07 26.96 22.23"/><polygon class="cls-1" points="28.62 22.34 19.29 12.92 20.12 12.92 28.73 21.6 28.62 22.34"/><polygon class="cls-1" points="28.64 20.81 20.83 12.91 21.66 12.91 28.64 19.96 28.64 20.81"/><polygon class="cls-1" points="29.12 19.74 22.46 13 23.29 13 28.61 18.37 29.12 19.74"/><polygon class="cls-1" points="28.87 17.95 23.86 12.84 24.68 12.84 28.36 16.58 28.87 17.95"/><polygon class="cls-1" points="28.71 16.24 25.19 12.63 26.02 12.63 28.69 15.36 28.71 16.24"/><polygon class="cls-1" points="29.31 15.29 26.57 12.46 27.4 12.46 28.79 13.92 29.31 15.29"/><path class="cls-2" d="M.38,27.69a.4.4,0,0,1-.24-.43c0-.19.37-.36,1.11-.54a8.88,8.88,0,0,1,1.94-.25,2.51,2.51,0,0,1,1.46.37,1.19,1.19,0,0,1,.54,1,2,2,0,0,1-1,1.66A7,7,0,0,1,1.4,30.59a1.43,1.43,0,0,0-.51.16,2.25,2.25,0,0,0-.09.74q0,.69,0,1a.52.52,0,0,1-.12.34.35.35,0,0,1-.28.15c-.25,0-.37-.16-.37-.5,0-.18.05-.69.15-1.52l.3-2.49a2.67,2.67,0,0,0,0-.36A.68.68,0,0,0,.38,27.69Zm.88-.24a3.52,3.52,0,0,0-.06.45q-.06.59-.15,1.29c0,.25-.06.51-.09.8a7,7,0,0,0,2.46-.77c.71-.39,1.07-.82,1.07-1.28s-.44-.86-1.33-.86A5.59,5.59,0,0,0,1.26,27.45Z"/><path class="cls-2" d="M4.81,4.54A5.27,5.27,0,0,1,3.65,5.73a2,2,0,0,1-1.06.39A.72.72,0,0,1,2,5.85a1,1,0,0,1-.23-.7,4,4,0,0,1,1-2.38,2.65,2.65,0,0,1,2-1.28.55.55,0,0,1,.52.4A.2.2,0,0,0,5.44,2c.23,0,.34.08.34.26a1.94,1.94,0,0,1,0,.36,11.6,11.6,0,0,0-.23,1.74c0,.68.13,1.09.39,1.22a.29.29,0,0,1,.18.25.33.33,0,0,1-.18.26.58.58,0,0,1-.35.14c-.21,0-.39-.15-.53-.45A3.07,3.07,0,0,1,4.81,4.54ZM4.55,2.17Q4,2.17,3.26,3.22a3.21,3.21,0,0,0-.73,1.72c0,.32.1.48.32.48s.73-.31,1.28-.93A2.69,2.69,0,0,0,5,2.78C5,2.38,4.82,2.17,4.55,2.17Z"/><path class="cls-2" d="M42.61,17.62A5.25,5.25,0,0,1,43.9,16a2.23,2.23,0,0,1,1.35-.61.67.67,0,0,1,.56.31,1.21,1.21,0,0,1,.23.74,3.74,3.74,0,0,1-1,2.46A2.81,2.81,0,0,1,43,20.08a1,1,0,0,1-.55-.16.58.58,0,0,1-.28-.4.43.43,0,0,0-.11-.3.54.54,0,0,1-.18-.39,12.9,12.9,0,0,1,.21-1.63l.43-2.52a14.22,14.22,0,0,1,.33-1.56.86.86,0,0,1,.23-.4.46.46,0,0,1,.31-.1c.2,0,.29.17.29.51a4.08,4.08,0,0,1-.32,1.35A20.8,20.8,0,0,0,42.61,17.62Zm-.1,1.4c.15.27.32.41.53.41a1.67,1.67,0,0,0,1-.4A3.24,3.24,0,0,0,45,17.92a2.7,2.7,0,0,0,.38-1.22.74.74,0,0,0-.08-.38c-.05-.11-.12-.16-.2-.16-.39,0-.86.31-1.42.95A5.35,5.35,0,0,0,42.51,19Z"/><path class="cls-2" d="M29.42,22.66H9.24V2.48H29.42Zm-19.23-.95H28.47V3.43H10.19Z"/><path class="cls-2" d="M39,32.38H18.85V12.2H39Zm-19.22-1H38.08V13.16H19.81Z"/><rect class="cls-2" x="2.46" y="11.83" width="34.55" height="0.95" transform="translate(-3.03 17.09) rotate(-43.81)"/></g></g></svg>